<svg width="61" height="138" fill="none" xmlns="http://www.w3.org/2000/svg"><path d="M56.062 37.204c-.523 2.392-1.264 1.937-1.432 3.992-.169 2.055 1.297.977 1.684 1.903.388.926-4.345 7.142-4.632 10.258-.286 3.116 1.314-.438-1.6 4.009-2.526 3.857-12.346 5.845-12.346 5.845a27.406 27.406 0 00-11.454-.674c-2.645-2.14-1.786-8.035 2.088-12.448 4.38-5.053 10.629-5.727 14.655-7.108a30.317 30.317 0 008.876-4.464c1.971-1.263 5.053-5.625 4.194-1.313m1.6-7.395c-1.33 0-2.19 2.291-2.19 2.291a20.55 20.55 0 01-6.366 4.666 119.204 119.204 0 01-16.844 5.558c-1.684.388-1.5-.96-.539-2.29.96-1.331 2.712-2.78 3.706-2.24 4.53 2.442 11.285-2.628 9.55-6.132-1.112-2.223-1.499-2.038-2.038-1.853-.539.185-1.23.388-2.948-1.853-3.621-5.693-6.4-.572-7.815-.353a3.792 3.792 0 01-1.23 0c-.505 0-.724-.135-.707.42v.877s-2.695 2.964-2.173 3.739c.135.219.943.724 1.145 1.145.202.422-.842 4.75-5.373 7.21-1.145.623-1.179-.624-.421-2.931.404-1.432 10.713-25.62 10.713-26.192-.035-1.3.022-2.6.168-3.891a34.2 34.2 0 01.354-2.038c.118-.573-.387-.893-.27-1.6.135-1.988.472-3.37.506-4.33-.354-.151-.758 1.095-1.129 2.611 0 .236-.27 0-.471-.202-.203-.202-.337-.387-.371-.303-.488 1.095.606 1.027.337 1.988 0 .1-.37 0-.724-.22-.354-.218-.708-.336-.725-.185-.084 1.297 1.482.91 1.112 2.712 0 .185 0 .37-.101.505-.036.262-.11.518-.22.758-1.01 1.786-1.683-.539-2.475-1.431-.792-.893-1.465-1.685-.674.505.27.758.337 2.762.54 3.217.64 1.365 1.262 1.314 1.128 2.341-.253 2.005-5.811 10.612-6.586 12.044-2.51 4.53-4.245 10.83-5.559 12.7a28.28 28.28 0 00-4.21 11.47c-2.544 13.863 7.832 32.004 7.832 32.004s-6.435 19.791-7.984 22.385c-1.55 2.594-9.955 17.703-12.6 20.567-2.644 2.863-2.29 14.014-.842 13.711 1.449-.304 1.567-5.054 3.116-6.89 1.55-1.836 4.65-.791 5.138-2.695.488-1.903-2.072-2.678-1.904-4.345.169-1.668 11-11.05 12.145-14.014 1.145-2.965.539-8.422 4.127-11.269 5.726-6.737 6.468-21.661 10.308-23.43 8.22-3.79 22.217-11.285 23.261-14.873 1.045-3.587 1.398-12.902 2.038-14.334a15.598 15.598 0 001.247-6.602c-.253-6.738-1.684-8.91-3.1-8.945" fill="#5D95CF"/></svg>