<svg width="132" height="76" fill="none" xmlns="http://www.w3.org/2000/svg"><path d="M37.056 36.574a790.264 790.264 0 00-3.369 5.508l-.859 1.314h.623l.674-1.061a219.164 219.164 0 003.537-5.677l-.606-.084zm1.583.287l-2.51 3.992c-.572.892-1.162 1.684-1.684 2.627h.64c.522-.775 1.028-1.55 1.55-2.358.893-1.381 1.684-2.762 2.594-4.11l-.556-.1m-6.874 7.865a154.926 154.926 0 01-3.37 4.7l.506.185a156.741 156.741 0 003.369-4.615l-.506-.27zm1.145.708c-1.078 1.516-2.173 2.998-3.369 4.413l.522.168c1.112-1.38 2.173-2.83 3.234-4.312l-.455-.27" fill="#707D90"/><path d="M131.885 34.587a3.179 3.179 0 00-.32-1.348l-.236.118.219-.118a4.899 4.899 0 00-1.887-2.004 3.042 3.042 0 00-1.179-.472 18.53 18.53 0 00-3.84-.303 79.513 79.513 0 00-13.896 1.297c1.33-3.992 2.324-7.142 2.947-9.416.169-.286.287-.505.405-.674a3.36 3.36 0 01.353-.505v-.286a1.365 1.365 0 00-.404-.927 1.687 1.687 0 00-1.28-.488h-.202a1.43 1.43 0 00-.809.438 4.403 4.403 0 00-.556.758c-.454.42-1.061.926-1.819 1.499a101.34 101.34 0 01-2.762 2.004 62.027 62.027 0 01-3.622 2.308c-.86.516-1.762.96-2.695 1.33h-.707l-.152-.117v-.27c.022-.185.067-.366.135-.539a42.628 42.628 0 012.914-4.75 29.338 29.338 0 012.106-2.661 4.682 4.682 0 011.28-1.112h.185v-.202a1.283 1.283 0 00-.286-.724.87.87 0 00-.674-.287h-.101c-.278.056-.549.14-.809.253a25.24 25.24 0 00-1.431.606c-.451.187-.889.4-1.314.64a1.957 1.957 0 00-.674.54 1.589 1.589 0 00-.118.656v1.112c-2.021 3.672-3.369 6.182-4.009 7.53a20.755 20.755 0 01-3.604 2.425 7.58 7.58 0 01-3.504 1.112 2.764 2.764 0 01-2.341-.742 3.52 3.52 0 01-.623-2.206 7.126 7.126 0 01.842-3.369 17.419 17.419 0 012.392-3.638 3.774 3.774 0 012.779-1.685h.27v.169a2.4 2.4 0 01-.439 1.162l-.353.59-.084.185v.135a.438.438 0 00.252.42c.151.078.32.113.489.102a2.375 2.375 0 002.19-1.213 2.1 2.1 0 00.202-1.061 1.834 1.834 0 00-.523-1.381 2.139 2.139 0 00-1.482-.455 5.053 5.053 0 00-2.425.741 15.565 15.565 0 00-4.683 4.329 10.78 10.78 0 00-1.684 3.503l-.59.59c-2.56 2.308-4.53 3.369-5.76 3.369a.422.422 0 01-.287 0v-.22c.06-.544.215-1.074.455-1.566a27.13 27.13 0 011.263-2.392 43.339 43.339 0 001.988-3.89c.362-.752.59-1.562.674-2.392a1.398 1.398 0 00-.304-.96 1.178 1.178 0 00-.892-.337c-1 .109-1.965.43-2.83.943-.91.488-2.122 1.28-3.638 2.308a5.334 5.334 0 00.64-2.19 1.298 1.298 0 00-.405-1.061 1.684 1.684 0 00-1.162-.354 5.71 5.71 0 00-2.914 1.145c-.337.22-.59.388-.758.523l-.202.185-.084.084v.286l.185.186.101.1h.354a14.21 14.21 0 011.567-.96c.262-.159.554-.262.859-.303a.405.405 0 01.269 0v.22a2.066 2.066 0 01-.118.42 44.24 44.24 0 01-1.987 4.077 14.722 14.722 0 01-2.611 2.813c-2.409 2.088-4.312 3.099-5.592 3.099a2.224 2.224 0 01-1.18-.253.708.708 0 01-.32-.64c.078-.575.219-1.14.422-1.684l1.364-1.314a7.36 7.36 0 002.526-4.43.588.588 0 00-.286-.505 1.01 1.01 0 00-.455-.118 4.884 4.884 0 00-1.38-2.089 3.689 3.689 0 00-2.342-.758 9.11 9.11 0 00-6.502 3.369 9.97 9.97 0 00-3.166 6.738 3.588 3.588 0 00.606 2.257 2.325 2.325 0 001.886.791c1.7-.151 3.335-.73 4.75-1.684a1.802 1.802 0 00.64 1.516 2.848 2.848 0 001.786.488 8.42 8.42 0 004.16-1.347 20.364 20.364 0 004.01-3.133l-.742 1.28-1.078 1.836-.27.488v.253l.186.404.404.135h.32l.455-.168.472-.101.437-.135.32-.303 2.73-4.919.336-.64.674-1.263c.118-.22.219-.37.286-.489v-.134l.135-.118c.253-.202.775-.607 1.583-1.163a21.4 21.4 0 012.173-1.482 5.054 5.054 0 011.937-.74c.018.11.018.224 0 .336a7.309 7.309 0 01-.573 1.684c-.286.624-.64 1.297-1.044 2.039-.404.74-.707 1.263-.859 1.566l-.455.96c-.292.561-.51 1.016-.657 1.364a8.611 8.611 0 00-.505 1.314c-.148.43-.239.877-.27 1.33a1.466 1.466 0 00.439 1.13c.333.278.762.417 1.195.387a7.95 7.95 0 003.672-1.466 25.584 25.584 0 003.52-2.695 5.053 5.053 0 000 .523 2.847 2.847 0 001.399 2.695 5.39 5.39 0 002.998.791 10.31 10.31 0 004.632-1.162 20.313 20.313 0 003.25-2.122c.032.2.12.387.254.539a1.195 1.195 0 00.926.438c.184-.012.366-.052.539-.118a41.127 41.127 0 007.563-4.296 61.166 61.166 0 005.457-4.177c0 .337-.118.69-.202 1.112-.152.758-.354 1.684-.606 2.796a55.585 55.585 0 01-1.685 5.811 186.26 186.26 0 00-14.216 3.369c-4.615 1.28-8.691 2.762-12.97 4.396l-.74.303h-.135l-1.938.792a64.192 64.192 0 00-15.816 8.81l-.337.286-.522.454-.64.59-.488.455-.573.59c-.135.15-.287.303-.421.47-.135.17-.337.388-.505.59l-.388.472a1.75 1.75 0 00-.135.185 14.35 14.35 0 00-1.684 2.965 9.733 9.733 0 00-.758 3.773c0 3.958 2.038 7.53 6.03 10.662a18.53 18.53 0 0011.892 4.346h1.23c6.956-.438 13.373-4.262 19.235-11.387a79.812 79.812 0 0010.106-16.692l.219-.471.084-.169.253-.539c.539-1.196 1.078-2.442 1.685-3.706a133.26 133.26 0 001.684-4.244c.084-.22.168-.455.269-.674l.203-.556c.488-1.314.993-2.661 1.482-4.042a73.561 73.561 0 0114.317-1.146h3.605a2.933 2.933 0 011.684.522 1.418 1.418 0 01.505 1.18 4.226 4.226 0 01-.775 2.172l-.101.186a9.41 9.41 0 01-.758 1.044l-.219.253c-.32.37-.673.758-1.094 1.162-.097.07-.188.149-.27.236 0 0-.101 0-.135.134a1.303 1.303 0 00-.118.203.718.718 0 000 .269v.152l.236.1a.84.84 0 00.438-.134c.12-.073.233-.158.337-.253a.168.168 0 01.084 0 20.486 20.486 0 002.072-1.819c.245-.245.475-.504.691-.775v-.118a3.84 3.84 0 00.539-.64l.168-.337c.109-.279.166-.576.169-.875zM64.088 24.11a3.537 3.537 0 01-.623 1.128l-.724.86c.27-.472.505-.877.707-1.197.15-.247.325-.479.522-.69l.118-.101zm-3.099 1.162a15.159 15.159 0 00-2.341 4.396 6.3 6.3 0 01-3.554 1.432 1.145 1.145 0 01-.977-.388 1.988 1.988 0 01-.337-1.263 9.719 9.719 0 012.392-5.81 6.468 6.468 0 014.867-3 3.004 3.004 0 011.786.523 3.36 3.36 0 011.027 1.348 8.101 8.101 0 00-2.863 2.796v-.034zm45.209 13.475c-.219.573-.455 1.145-.674 1.684a163.266 163.266 0 01-2.156 5.053 110.985 110.985 0 01-5.996 11.218c-7.176 11.488-14.638 17.3-22.352 17.585h-.91a17.989 17.989 0 01-11.2-3.84c-3.37-2.644-5.054-5.626-5.054-8.96.003-.516.06-1.03.169-1.534.122-.508.274-1.008.454-1.499a15.818 15.818 0 012.729-4.362c.286-.337.59-.69.926-1.028l.303-.32c.422-.404.843-.808 1.297-1.213l.22-.185c.404-.353.842-.707 1.28-1.044l.454-.354 1.449-1.061a70.315 70.315 0 0110.342-5.778 83.893 83.893 0 015.222-2.206l2.088-.825A154.938 154.938 0 01108 33.475c-.522 1.785-1.145 3.52-1.802 5.221v.051z" fill="#fff"/><path d="M51.172 16.362a1.96 1.96 0 01.471-.118l4.497-.235c1.415-.102 2.847-.152 4.262-.203.183.037.372.037.556 0a.523.523 0 00.32-.42.42.42 0 00-.236-.405.775.775 0 00-.404-.236h-8.422c.59-.926 1.28-2.004 2.173-3.268a44.102 44.102 0 013.368-4.194 27.263 27.263 0 013.925-3.621 9.247 9.247 0 014.211-1.853h.573c.577.01 1.147.125 1.684.337a6.199 6.199 0 012.038 1.364l.303.101.354-.134c.166-.12.308-.268.421-.438.115-.169.211-.35.286-.54a1.06 1.06 0 00.135-.454 1.684 1.684 0 00-.522-1.028 2.257 2.257 0 00-1.28-.707 9.584 9.584 0 00-1.398-.1c-.564.001-1.127.046-1.684.135a16.084 16.084 0 00-3.083.825 20.062 20.062 0 00-2.914 1.381 23.225 23.225 0 00-2.56 1.685c-.87.666-1.68 1.404-2.426 2.206-.808.842-1.6 1.685-2.358 2.678-.758.994-1.516 1.92-2.223 2.898l-1.887 2.745a5.062 5.062 0 01-.707 0h-2.46a.96.96 0 00-.538.152.742.742 0 00-.287.42l-.084.32a.792.792 0 00.522.708c.32.152.624.32.91.489.247.182.468.397.657.64l.084.252a1.432 1.432 0 01-.219.624l-3.537 6.62a265.76 265.76 0 01-4.599 8.253 211.61 211.61 0 01-5.423 8.843 120.018 120.018 0 01-5.946 8.422 59.72 59.72 0 01-6.215 6.872 22.385 22.385 0 01-6.182 4.278 13.575 13.575 0 01-5.29 1.213h-.572a8.422 8.422 0 01-4.413-1.449 6.855 6.855 0 01-2.577-3.368 7.647 7.647 0 01-.387-2.443c.015-.91.14-1.814.37-2.695a14.788 14.788 0 013.049-6.164 14.231 14.231 0 014.935-3.774c.204-.086.4-.188.59-.303l.185-.168.101-.27-.168-.252h-.236c-.249.02-.493.077-.724.168a15.161 15.161 0 00-3.133 1.583 18.95 18.95 0 00-2.965 2.41c-.903.89-1.71 1.871-2.409 2.93a11.791 11.791 0 00-1.414 3.57A10.106 10.106 0 000 54.919c.002.982.15 1.958.438 2.897a8.422 8.422 0 002.83 4.21 9.938 9.938 0 005.238 2.022c.387.026.775.026 1.162 0a16.66 16.66 0 006.148-1.297 23.447 23.447 0 007.075-4.7 68.26 68.26 0 007.04-7.663 147.305 147.305 0 006.637-9.315 183.263 183.263 0 005.929-9.618 323.09 323.09 0 004.935-8.607 335.01 335.01 0 013.537-6.283l.203-.202z" fill="#fff"/></svg>