<svg width="144" height="180" fill="none" xmlns="http://www.w3.org/2000/svg"><path d="M62.155 33.483c-.47 2.153-1.137 1.744-1.288 3.593-.152 1.85 1.167.88 1.516 1.713.348.834-3.912 6.428-4.17 9.232-.257 2.805 1.183-.394-1.44 3.608-2.273 3.472-11.111 5.26-11.111 5.26a24.663 24.663 0 00-10.309-.606c-2.38-1.925-1.607-7.23 1.88-11.203 3.942-4.547 9.566-5.154 13.189-6.397a27.285 27.285 0 007.989-4.017c1.773-1.137 4.548-5.063 3.774-1.183m1.44-6.655c-1.197 0-1.97 2.062-1.97 2.062a18.494 18.494 0 01-5.73 4.2 107.274 107.274 0 01-15.16 5.002c-1.516.349-1.349-.864-.485-2.062.864-1.197 2.44-2.501 3.335-2.016 4.078 2.198 10.157-2.365 8.596-5.518-1-2.001-1.35-1.834-1.835-1.668-.485.167-1.106.349-2.653-1.667-3.259-5.124-5.76-.516-7.034-.319-.366.06-.74.06-1.106 0-.455 0-.652-.12-.637.38v.788s-2.425 2.668-1.956 3.365c.122.197.85.652 1.031 1.031.182.379-.758 4.275-4.836 6.488-1.03.561-1.06-.56-.379-2.637.364-1.29 9.642-23.058 9.642-23.573-.03-1.17.02-2.34.151-3.502.122-.819.213-1.32.319-1.835.106-.515-.349-.803-.243-1.44.122-1.789.425-3.032.455-3.896-.318-.136-.682.986-1.016 2.35 0 .212-.242 0-.424-.182s-.303-.349-.334-.273c-.44.986.546.925.304 1.789 0 .091-.334 0-.652-.197-.319-.197-.637-.303-.652-.167-.076 1.167 1.334.819 1 2.44 0 .168 0 .334-.09.456a2.485 2.485 0 01-.198.682c-.91 1.607-1.516-.485-2.228-1.289-.713-.803-1.319-1.516-.606.455.242.682.303 2.486.485 2.895.576 1.228 1.137 1.183 1.015 2.108-.227 1.804-5.23 9.55-5.927 10.839-2.259 4.078-3.82 9.747-5.003 11.43a25.453 25.453 0 00-3.79 10.323c-2.289 12.477 7.05 28.803 7.05 28.803s-5.791 17.813-7.186 20.147c-1.395 2.335-8.96 15.933-11.34 18.51-2.38 2.577-2.06 12.613-.757 12.34 1.303-.273 1.41-4.548 2.804-6.2 1.395-1.653 4.184-.713 4.624-2.426.44-1.713-1.865-2.41-1.713-3.911.152-1.501 9.9-9.945 10.93-12.613 1.03-2.668.485-7.58 3.714-10.141 5.154-6.064 5.821-19.495 9.278-21.087 7.397-3.411 19.995-10.157 20.935-13.386.94-3.229 1.258-11.612 1.834-12.9a14.039 14.039 0 001.122-5.943c-.227-6.064-1.516-8.02-2.79-8.05M22.587 176.194l-.531-3.866h-.849l.849 5.245h.591l2.714-5.245h-.88l-1.895 3.866zm5.396-3.987c-1.213 0-2.213 1.016-2.44 2.668-.228 1.652.47 2.82 1.803 2.82 1.334 0 2.214-1.046 2.441-2.668.228-1.622-.455-2.82-1.804-2.82zm.97 2.759c-.212 1.38-.788 2.047-1.516 2.047-.727 0-1.197-.698-1-2.077.197-1.38.788-2.062 1.516-2.062.727 0 1.197.713 1 2.092zm4.865-2.759a2.32 2.32 0 00-1.835 1.289 9.104 9.104 0 000-1.168h-.758a7.383 7.383 0 01-.166 1.607l-.637 3.623h.849l.424-2.44c.212-1.274 1.228-2.183 1.759-2.183.53 0 .682.5.53 1.288l-.59 3.335h.848l.591-3.335c.228-.955.03-2.016-1.015-2.016zm9.206-1.91h-1.016l-3.001 3.471.606-3.471h-.88l-1.288 7.261h.88l.59-3.365 2.23 3.365h1l-2.35-3.562 3.229-3.699zm1.498 3.154v-1.122h-.758a7.383 7.383 0 01-.166 1.607l-.637 3.623h.849l.485-2.881a1.636 1.636 0 011.743-1.515l.152-.94a2.028 2.028 0 00-1.668 1.228zm2.912-2.169h.849l.166-.985H47.6l-.166.985zm-1.121 6.276h.848l.925-5.23h-.849l-.925 5.23zm2.758-3.908a1.408 1.408 0 001.092 1.516c.576.182.834.5.773.985a.908.908 0 01-.986.819 2.036 2.036 0 01-1.273-.455l-.212.637a2.4 2.4 0 001.516.485 1.635 1.635 0 001.789-1.607c0-.667-.304-1.274-1.274-1.516a.789.789 0 01-.591-.91.823.823 0 01.575-.71.822.822 0 01.32-.033c.376.007.74.128 1.045.349l.197-.606a2.161 2.161 0 00-1.227-.394 1.605 1.605 0 00-1.744 1.44zm5.959-2.748h-.848l-.258 1.425h-.834l-.106.592h.834l-.803 4.638h.849l.803-4.638h.849l.106-.592h-.849l.258-1.425zm.68 6.656h.85l.91-5.23h-.85l-.91 5.23zm1.106-6.276h.85l.166-.985h-.849l-.167.985zm4.506.925a2.32 2.32 0 00-1.835 1.289 9.104 9.104 0 000-1.168h-.758a7.383 7.383 0 01-.166 1.607l-.637 3.623h.849l.424-2.44c.212-1.274 1.228-2.183 1.759-2.183.53 0 .682.5.53 1.288l-.591 3.335h.849l.591-3.335c.228-.955.076-2.016-1.016-2.016zm2.983-.925h.849l.166-.985h-.849l-.166.985zm-1.105 6.276h.833l.925-5.23h-.85l-.909 5.23zm6.123-4.517a1.29 1.29 0 00-1.213-.834c-1.258 0-2.213 1.137-2.455 2.683-.243 1.547.181 2.79 1.516 2.79a1.855 1.855 0 001.515-.834 5.676 5.676 0 000 .712h.728a8.82 8.82 0 01.182-1.516l.637-3.638h-.637l-.273.637zm-.364 1.91c-.227 1.273-.849 2.077-1.606 2.077-.758 0-1.077-.819-.85-2.077.228-1.258.834-2.092 1.592-2.092.758 0 1.077.849.864 2.092zm3.896-1.061c-.303 2.395.788 3.774 2.44 3.774a2.8 2.8 0 001.805-.652l.106-.833a2.517 2.517 0 01-1.683.697c-1.258 0-2.016-1.076-1.773-3.032.242-1.956 1.319-2.926 2.531-2.926a2.125 2.125 0 011.516.698l.121-.819a2.349 2.349 0 00-1.713-.667c-1.576.076-3.062 1.38-3.35 3.76zm8.565-1.683a2.27 2.27 0 00-1.788 1.198s0-.288.106-.455l.47-2.653h-.85l-1.288 7.261h.85l.424-2.44c.212-1.274 1.228-2.183 1.773-2.183.546 0 .667.5.53 1.288l-.59 3.335h.803l.591-3.335c.213-.955.046-2.016-1.03-2.016zm5.337.121l-1.926 4.002-.515-4.002h-.849l.773 5.2-1.213 2.395h.804l3.79-7.595h-.864zm4.774.728a1.29 1.29 0 00-1.212-.849c-1.259 0-2.199 1.137-2.456 2.683-.258 1.547.182 2.79 1.516 2.79a1.742 1.742 0 001.349-.667v.227c-.364 1.819-.834 2.046-1.622 2.046a2.286 2.286 0 01-1.516-.591v.789c.438.328.969.509 1.516.515.985 0 2-.424 2.44-2.895l.85-4.776h-.637l-.228.728zm-.364 1.895c-.212 1.273-.848 2.077-1.606 2.077-.758 0-1.077-.819-.85-2.077.228-1.258.834-2.077 1.517-2.077.682 0 1.152.834.94 2.077zm3.293-1.5v-1.122h-.743a7.582 7.582 0 01-.182 1.607l-.637 3.623h.85l.5-2.881a1.624 1.624 0 011.728-1.515l.151-.94a2.028 2.028 0 00-1.667 1.228zm3.727 2.879l-.516-4.002h-.849l.774 5.2-1.213 2.395h.803l3.79-7.595h-.879l-1.91 4.002zm6.29-4.123a2.332 2.332 0 00-1.849 1.289 9.104 9.104 0 000-1.168h-.743a8.42 8.42 0 01-.167 1.607l-.652 3.623h.849l.425-2.44c.212-1.274 1.243-2.183 1.773-2.183.531 0 .667.5.531 1.288l-.591 3.335h.849l.591-3.335c.227-.955.076-2.016-1.016-2.016zm2.352 1.44a1.412 1.412 0 001.092 1.516c.576.182.818.501.773.986a.914.914 0 01-.324.612.914.914 0 01-.662.206 2.03 2.03 0 01-1.273-.455l-.212.637c.434.331.97.502 1.516.485a1.609 1.609 0 001.25-.407 1.6 1.6 0 00.396-.543c.093-.206.142-.43.142-.657 0-.667-.288-1.273-1.258-1.516a.786.786 0 01-.591-.909.806.806 0 01.292-.558.837.837 0 01.283-.153.84.84 0 01.319-.032c.377.006.742.128 1.046.349l.197-.607a2.217 2.217 0 00-1.227-.394 1.609 1.609 0 00-1.759 1.44zm7.153-1.319l-2.304 2.411.788-4.442h-.849l-1.273 7.261h.834l.485-2.728 1.5 2.728h.91l-1.546-2.759 2.38-2.471h-.925zm5.002 0l-.243.713a1.294 1.294 0 00-1.213-.834c-1.258 0-2.213 1.137-2.455 2.683-.243 1.547.181 2.79 1.516 2.79a1.854 1.854 0 001.515-.834 6.04 6.04 0 000 .712h.728a8.89 8.89 0 01.182-1.516l.637-3.638-.667-.076zm-.607 2.623c-.227 1.273-.849 2.077-1.607 2.077s-1.076-.819-.849-2.077c.228-1.258.834-2.092 1.516-2.092.683 0 1.153.849.94 2.092z" fill="#5D95CF"/><path d="M64.58 73.382a1.864 1.864 0 001.517-.849 5.927 5.927 0 000 .728h.743c.012-.54.067-1.077.166-1.607l1.016-5.67h-.849l-.47 2.668a1.197 1.197 0 00-1.137-.742c-1.258 0-2.213 1.121-2.47 2.668-.259 1.546.12 2.804 1.485 2.804zm-.697-2.744c.228-1.243.834-2.077 1.607-2.077s1.077.834.85 2.077c-.228 1.243-.835 2.077-1.517 2.077-.682 0-1.152-.818-.94-2.077zm7.854-1.894a1.289 1.289 0 00-1.212-.834c-1.259 0-2.214 1.122-2.456 2.668-.243 1.546.182 2.805 1.516 2.805a1.864 1.864 0 001.516-.85 5.89 5.89 0 000 .728h.727a8.75 8.75 0 01.182-1.606l.637-3.624h-.637l-.273.713zm-.364 1.895c-.227 1.273-.849 2.122-1.637 2.122s-1.076-.818-.849-2.077c.228-1.258.834-2.076 1.516-2.076s1.183.788.97 2.03zm4.634 1.137c0-.666-.288-1.273-1.273-1.516a.803.803 0 01-.591-.909.834.834 0 01.894-.728c.378.008.746.124 1.061.334l.182-.607a2.168 2.168 0 00-1.213-.379 1.592 1.592 0 00-1.682 1.516 1.379 1.379 0 001.091 1.516c.561.182.819.5.773.986a.925.925 0 01-.97.773 2.061 2.061 0 01-1.273-.455l-.197.637c.434.33.97.502 1.516.485a1.637 1.637 0 001.682-1.653zm6.081-.531a2.198 2.198 0 00-1.516-2.229 1.334 1.334 0 01-.819-1.349 1.122 1.122 0 011.137-1.091c.482.008.947.179 1.32.485l.257-.683a2.229 2.229 0 00-1.516-.545 2.061 2.061 0 00-.819 3.956c.758.349 1.198.789 1.122 1.516a1.304 1.304 0 01-1.364 1.274 2.077 2.077 0 01-1.516-.728l-.288.743a2.425 2.425 0 001.82.712 2.168 2.168 0 002.182-2.061zm.927 2.015h.849l.803-4.654h.849l.106-.576h-.834l.243-1.44h-.849l-.243 1.44h-.833l-.122.576h.85l-.82 4.654zm3.832.122a2.32 2.32 0 001.835-1.288v1.167h.757a7.38 7.38 0 01.167-1.607l.637-3.623h-.849l-.425 2.44c-.212 1.274-1.227 2.184-1.758 2.184-.53 0-.682-.5-.53-1.289l.59-3.335h-.863l-.592 3.335c-.212.955-.06 2.016 1.031 2.016zm5.306 0a1.927 1.927 0 001.515-.849 3.965 3.965 0 000 .728h.743a8.5 8.5 0 01.167-1.607l.925-5.67h-.85l-.47 2.668a1.168 1.168 0 00-1.136-.742c-1.258 0-2.198 1.121-2.456 2.668-.258 1.546.212 2.804 1.562 2.804zm-.683-2.744c.213-1.243.834-2.077 1.516-2.077s1.077.834.864 2.077c-.212 1.243-.773 2.123-1.516 2.123-.742 0-1.091-.864-.864-2.123zm3.99 2.623h.85l.925-5.23h-.85l-.924 5.23zm1.118-6.291h.834l.182-.986h-.85l-.166.986zm5.339 3.744c.242-1.637-.455-2.82-1.804-2.82-1.35 0-2.214 1.031-2.441 2.669-.227 1.637.455 2.82 1.804 2.82s2.213-1.032 2.441-2.669zm-3.38-.09c.196-1.38.787-2.047 1.515-2.047.728 0 1.198.712.985 2.077-.212 1.364-.773 2.061-1.516 2.061-.742 0-1.197-.712-.985-2.092zm8.218-2.591h-1v-.288c.212-1.182.47-1.273.97-1.273h.258l.106-.576a1.969 1.969 0 00-.47-.091c-.94 0-1.516.485-1.698 1.895v.288h-.758l-.106.576h.758l-.819 4.639h.849l.819-4.64h1l.091-.53zm3.969-1.67h-.849l-.137.834h.849l.137-.834zm-2.892 7.019a2.322 2.322 0 001.834-1.288 9.093 9.093 0 000 1.167h.758a7.295 7.295 0 01.167-1.607l.636-3.623h-.849l-.424 2.44c-.212 1.274-1.228 2.184-1.759 2.184-.53 0-.682-.5-.53-1.289l.591-3.335h-.849l-.591 3.335c-.243.955-.076 2.016 1.016 2.016zm1.165-7.019h-.849l-.136.834h.849l.136-.834zm5.501 2.472l.151-.925a2.047 2.047 0 00-1.728 1.228 8.514 8.514 0 000-1.107h-.743a7.29 7.29 0 01-.166 1.516l-.637 3.624h.849l.485-2.88a1.638 1.638 0 011.789-1.456zm5.883 2.411c.121-.833-.197-1.743-.97-1.88a1.774 1.774 0 001.122-1.515 1.518 1.518 0 00-1.516-1.82h-1.728L116 73.309h2.244a2.154 2.154 0 002.137-2.062zm-2.395-4.547h.773c.788 0 1.061.454.94 1.182s-.47 1.183-1.258 1.183h-.864l.409-2.365zm-1.016 5.82l.47-2.728h1.061c.864 0 1.122.622 1.061 1.35a1.373 1.373 0 01-.946 1.316c-.183.06-.377.082-.569.063h-1.077zm5.565.864a1.867 1.867 0 001.516-.85 5.89 5.89 0 000 .728h.727c.012-.54.073-1.078.182-1.606l.637-3.624h-.682l-.243.713a1.293 1.293 0 00-1.212-.834c-1.259 0-2.199 1.122-2.456 2.668-.258 1.546.182 2.805 1.531 2.805zm-.682-2.744c.212-1.243.833-2.077 1.591-2.077s1.077.834.865 2.077c-.213 1.243-.849 2.122-1.607 2.122s-1.077-.864-.849-2.122zm6.124-4.655h-.849l-1.288 7.277h.849l1.288-7.277zm.743 7.276l1.273-7.276h-.833l-1.289 7.277h.849zm4.774-.347l.152-.834a2.113 2.113 0 01-1.516.591c-.925 0-1.38-.743-1.349-1.698a2.482 2.482 0 010-.44h2.85c.115-.316.181-.648.197-.985a1.523 1.523 0 00-.399-1.15 1.515 1.515 0 00-1.117-.487c-1.274 0-2.38 1.243-2.441 3.032 0 1.319.652 2.426 1.971 2.426a2.167 2.167 0 001.652-.455zm-1.106-4.336a.785.785 0 01.818.545.768.768 0 01.03.35 2.16 2.16 0 010 .454h-2.198c.273-.833.698-1.349 1.35-1.349zm2.365 4.683h.849l.804-4.654h.849l.106-.576h-.834l.243-1.44h-.834l-.258 1.44h-.834l-.106.576h.819l-.804 4.654zm2.883 0h.849l.803-4.654h.849l.121-.576h-.849l.243-1.44h-.849l-.242 1.44h-.834l-.122.576h.849l-.818 4.654zm-71.33 9.31c-.212 1.273-1.228 2.183-1.773 2.183-.546 0-.667-.5-.531-1.289l.591-3.335h-.834l-.606 3.335c-.167.955 0 2.016 1.092 2.016a2.334 2.334 0 001.834-1.288 9.093 9.093 0 000 1.167h.621a8.5 8.5 0 01.167-1.607l.652-3.623H66.7l-.394 2.44zm4.943-2.562a2.335 2.335 0 00-1.85 1.273c.049-.382.074-.767.076-1.152h-.758a8.475 8.475 0 01-.167 1.516l-.652 3.638h.85l.424-2.456c.227-1.273 1.243-2.167 1.773-2.167.531 0 .683.485.531 1.273l-.591 3.35h.849l.591-3.35c.091-.88-.06-1.925-1.076-1.925zm5.335.742a1.198 1.198 0 00-1.152-.743c-1.258 0-2.198 1.122-2.456 2.668-.257 1.547.182 2.805 1.516 2.805a1.865 1.865 0 001.516-.85 5.929 5.929 0 000 .729h.743c.012-.54.068-1.077.167-1.607l1.016-5.67h-.85l-.5 2.668zm-.303 1.986c-.212 1.273-.849 2.077-1.516 2.077s-1.076-.819-.864-2.077c.212-1.258.834-2.077 1.607-2.077s1 .834.773 2.077zm8.356-4.638h-4.563l-.136.758h1.849l-1.137 6.503h.864l1.152-6.503h1.85l.12-.758zm2.273 2.744a1.273 1.273 0 00-1.212-.834c-1.258 0-2.198 1.122-2.456 2.668s.182 2.805 1.516 2.805a1.865 1.865 0 001.516-.85 3.965 3.965 0 000 .728h.743a8.42 8.42 0 01.167-1.607l.636-3.623h-.636l-.273.713zm-.363 1.895c-.137 1.273-.85 2.152-1.653 2.152s-1.076-.818-.864-2.077c.213-1.258.834-2.076 1.592-2.076.758 0 1.137.758.925 2zm4.88-2.729a2.32 2.32 0 00-1.85 1.273 8.894 8.894 0 000-1.152h-.743a8.475 8.475 0 01-.166 1.516l-.652 3.638h.849l.424-2.456c.227-1.273 1.243-2.167 1.774-2.167.53 0 .667.485.53 1.273l-.591 3.35h.849l.621-3.274c.198-.955 0-2.001-1.045-2.001zm2.227.697h2.077l-2.971 4.23-.06.424h3.258l.076-.591H93.76l2.972-4.215.06-.424h-3.047l-.09.576zm4.655 4.654h.849l.909-5.23h-.849l-.91 5.23zm1.271-7.261l-.166.97h.849l.167-.97h-.85zm4.097 1.91a2.29 2.29 0 00-1.834 1.273V80.13h-.758a7.359 7.359 0 01-.167 1.516l-.637 3.638h.849l.44-2.38c.212-1.273 1.228-2.168 1.758-2.168.531 0 .682.486.531 1.274l-.591 3.35h.849l.591-3.35c.212-.955.06-2.001-1.031-2.001zm6.275-1.926l-3.608 7.277h.879l.985-1.986h2.289l.258 2h.879l-.97-7.291h-.712zm-1.41 4.548l1.516-3.032.379 3.032h-1.895zm7.276-.06c-.227 1.273-1.243 2.183-1.774 2.183-.53 0-.682-.5-.53-1.289l.591-3.335h-.849l-.591 3.335c-.167.955 0 2.016 1.076 2.016a2.314 2.314 0 001.835-1.288v1.167h.758a8.5 8.5 0 01.166-1.607l.637-3.623h-.849l-.47 2.44zm5.366-1.728a1.275 1.275 0 00-1.213-.834c-1.258 0-2.198 1.122-2.456 2.668s.182 2.805 1.516 2.805a1.738 1.738 0 001.349-.683v.228c-.364 1.819-.834 2.046-1.622 2.046a2.366 2.366 0 01-1.516-.576v.773c.438.329.969.51 1.516.516.985 0 2.001-.425 2.441-2.896l.849-4.76h-.622l-.242.713zm-.364 1.895c-.212 1.273-.849 2.077-1.607 2.077s-1.076-.82-.849-2.077c.227-1.259.834-2.077 1.516-2.077s1.152.834.94 2.077zm1.974-1.29a1.382 1.382 0 001.091 1.516c.561.182.819.5.773.986a.92.92 0 01-1 .818 2.015 2.015 0 01-1.258-.454l-.212.636c.434.331.969.502 1.515.485a1.637 1.637 0 001.789-1.606c0-.668-.288-1.274-1.273-1.517a.8.8 0 01-.591-.909.83.83 0 01.894-.728 1.95 1.95 0 011.061.334l.243-.667a2.26 2.26 0 00-1.228-.38 1.61 1.61 0 00-1.63.86 1.61 1.61 0 00-.174.626zm6.319-1.44a1.712 1.712 0 00-1.334.667l.455-2.592h-.895l-1.288 7.277h.652l.242-.728a1.262 1.262 0 001.213.849c1.258 0 2.198-1.137 2.456-2.683.257-1.547-.137-2.79-1.501-2.79zm.697 2.729c-.227 1.243-.833 2.077-1.607 2.077-.773 0-1.076-.834-.849-2.077.228-1.243.849-2.077 1.516-2.077s1.153.819.94 2.077zm4.761-.166c-.213 1.273-1.228 2.183-1.759 2.183-.53 0-.682-.5-.53-1.289l.591-3.335h-.849l-.591 3.335c-.182.955 0 2.016 1.076 2.016a2.318 2.318 0 001.834-1.288 9.093 9.093 0 000 1.167h.758a7.418 7.418 0 01.167-1.607l.637-3.623h-.849l-.485 2.44zm4.762-2.562a2.049 2.049 0 00-1.729 1.228 8.513 8.513 0 000-1.107h-.758a7.29 7.29 0 01-.166 1.516l-.637 3.638h.834l.5-2.88a1.638 1.638 0 011.728-1.516l.228-.88zm3.742.122l-.243.712a1.29 1.29 0 00-1.213-.834c-1.258 0-2.213 1.122-2.456 2.668-.242 1.546.182 2.804 1.516 2.804a1.793 1.793 0 001.35-.682v.228c-.349 1.819-.834 2.046-1.622 2.046a2.362 2.362 0 01-1.516-.576v.773c.437.329.968.51 1.516.516.985 0 2.001-.425 2.44-2.896l.849-4.76h-.621zm-.576 2.607c-.228 1.273-.849 2.076-1.607 2.076s-1.077-.818-.849-2.076c.227-1.259.834-2.077 1.516-2.077s1.121.834.94 2.077z" fill="#fff"/><path d="M33.352 126.516a695.8 695.8 0 00-3.032 4.957l-.773 1.182h.56l.607-.955a196.816 196.816 0 003.184-5.109l-.546-.075zm1.425.257l-2.259 3.593c-.515.804-1.046 1.516-1.516 2.365h.576c.47-.697.925-1.395 1.395-2.122.803-1.243 1.516-2.486 2.334-3.699l-.5-.091m-6.185 7.079a138.188 138.188 0 01-3.032 4.23l.455.167a141.065 141.065 0 003.031-4.154l-.454-.243zm1.03.637c-.97 1.364-1.955 2.699-3.031 3.972l.47.152c1-1.244 1.955-2.547 2.91-3.881l-.41-.243" fill="#707D90"/><path d="M118.696 124.729a2.841 2.841 0 00-.288-1.213l-.212.107.197-.107a4.42 4.42 0 00-1.698-1.804 2.74 2.74 0 00-1.061-.424 16.685 16.685 0 00-3.456-.273c-4.195.022-8.38.412-12.507 1.167 1.198-3.592 2.092-6.427 2.653-8.474.152-.257.258-.455.364-.606.092-.161.198-.313.318-.455v-.258a1.224 1.224 0 00-.364-.833 1.51 1.51 0 00-1.152-.44h-.182a1.286 1.286 0 00-.727.394 3.976 3.976 0 00-.501.682 21.84 21.84 0 01-1.637 1.35 92.16 92.16 0 01-2.486 1.803 56.228 56.228 0 01-3.26 2.077c-.774.465-1.585.865-2.425 1.198h-.636l-.137-.106v-.243c.02-.166.06-.329.121-.485a38.415 38.415 0 012.623-4.275 26.493 26.493 0 011.895-2.395c.32-.401.71-.74 1.152-1.001h.167v-.181a1.151 1.151 0 00-.258-.652.78.78 0 00-.606-.258h-.091c-.25.05-.494.126-.728.227-.318.122-.758.304-1.288.546-.406.168-.8.361-1.183.576-.236.115-.443.28-.606.485a1.43 1.43 0 00-.106.592v1c-1.82 3.305-3.032 5.564-3.608 6.776a18.677 18.677 0 01-3.245 2.183 6.827 6.827 0 01-3.153 1.001 2.48 2.48 0 01-2.107-.667 3.17 3.17 0 01-.56-1.986 6.413 6.413 0 01.757-3.032 15.672 15.672 0 012.153-3.274 3.396 3.396 0 012.501-1.516h.243v.151a2.15 2.15 0 01-.394 1.046l-.319.531-.075.167v.121a.393.393 0 00.227.379.86.86 0 00.44.091 2.141 2.141 0 001.97-1.092 1.88 1.88 0 00.182-.955 1.656 1.656 0 00-.47-1.243 1.928 1.928 0 00-1.334-.409 4.55 4.55 0 00-2.183.667 14.004 14.004 0 00-4.214 3.896 9.7 9.7 0 00-1.516 3.153l-.53.531c-2.305 2.076-4.078 3.032-5.185 3.032a.38.38 0 01-.258 0v-.198c.055-.49.193-.966.41-1.409.342-.736.722-1.455 1.136-2.153a39.042 39.042 0 001.79-3.502 6.442 6.442 0 00.606-2.153 1.261 1.261 0 00-.273-.864 1.067 1.067 0 00-.804-.303c-.9.099-1.768.388-2.547.849-.818.44-1.91 1.152-3.274 2.077a4.79 4.79 0 00.576-1.971 1.165 1.165 0 00-.364-.955 1.517 1.517 0 00-1.046-.318 5.128 5.128 0 00-2.622 1.031c-.303.197-.53.348-.682.47l-.182.166-.076.076v.258l.166.167.092.091h.318c.45-.319.922-.607 1.41-.864.236-.144.499-.237.773-.273a.36.36 0 01.242 0v.197a1.888 1.888 0 01-.106.379 39.835 39.835 0 01-1.789 3.668 13.22 13.22 0 01-2.35 2.532c-2.167 1.88-3.88 2.789-5.032 2.789a1.996 1.996 0 01-1.061-.227.64.64 0 01-.288-.576 7.02 7.02 0 01.379-1.516l1.227-1.183a6.623 6.623 0 002.274-3.986.533.533 0 00-.257-.455.9.9 0 00-.41-.106 4.398 4.398 0 00-1.243-1.88 3.316 3.316 0 00-2.107-.682 8.195 8.195 0 00-5.851 3.032 8.972 8.972 0 00-2.85 6.063c-.05.719.142 1.434.545 2.032a2.102 2.102 0 001.698.712 9.096 9.096 0 004.275-1.516 1.622 1.622 0 00.576 1.365 2.562 2.562 0 001.607.439 7.574 7.574 0 003.745-1.213 18.313 18.313 0 003.608-2.819l-.668 1.152-.97 1.652-.242.44v.227l.166.364.364.121h.288l.41-.151.424-.091.394-.121.288-.273 2.456-4.427.303-.576.607-1.137c.106-.197.197-.333.257-.439v-.122l.122-.106a24.34 24.34 0 011.425-1.046c.624-.484 1.277-.93 1.955-1.334a4.549 4.549 0 011.744-.667.95.95 0 010 .303 6.56 6.56 0 01-.516 1.516 30.9 30.9 0 01-.94 1.835c-.364.667-.637 1.136-.773 1.409l-.41.864c-.262.506-.459.915-.59 1.228a7.753 7.753 0 00-.455 1.183 4.638 4.638 0 00-.243 1.197 1.322 1.322 0 00.394 1.016c.3.251.686.376 1.077.349a7.161 7.161 0 003.304-1.319 22.977 22.977 0 003.169-2.426 4.548 4.548 0 000 .47 2.563 2.563 0 001.258 2.426c.81.496 1.749.744 2.698.712a9.273 9.273 0 004.17-1.046 18.267 18.267 0 002.925-1.91c.028.18.107.349.227.485a1.068 1.068 0 00.834.394c.166-.01.33-.046.485-.106a37 37 0 006.807-3.865 55.295 55.295 0 004.912-3.76c0 .303-.107.622-.182 1.001a106.72 106.72 0 01-.546 2.516 49.959 49.959 0 01-1.516 5.23c-4.366.849-8.64 1.88-12.795 3.032-4.153 1.152-7.822 2.486-11.672 3.957l-.667.273h-.122l-1.743.712a57.77 57.77 0 00-14.235 7.928l-.303.258-.47.409-.576.531-.44.409-.515.531c-.121.136-.258.273-.379.424-.121.152-.303.349-.455.531l-.348.424a1.564 1.564 0 00-.122.167 12.926 12.926 0 00-1.516 2.668 8.762 8.762 0 00-.682 3.396c0 3.562 1.834 6.776 5.427 9.596a16.678 16.678 0 0010.703 3.911h1.106c6.261-.394 12.037-3.835 17.313-10.248a71.85 71.85 0 009.095-15.023l.197-.424.076-.152.227-.485c.486-1.076.97-2.198 1.516-3.335a118.262 118.262 0 001.516-3.82c.076-.197.152-.41.243-.607l.182-.5c.44-1.182.894-2.395 1.334-3.638a66.176 66.176 0 0112.885-1.031h3.245a2.636 2.636 0 011.516.47 1.279 1.279 0 01.454 1.061 3.803 3.803 0 01-.697 1.956l-.091.166a8.527 8.527 0 01-.682.94l-.197.228a15.3 15.3 0 01-.986 1.046 1.742 1.742 0 00-.242.212s-.091 0-.121.121a1.143 1.143 0 00-.107.182.662.662 0 000 .243v.136l.213.091a.757.757 0 00.394-.121 1.97 1.97 0 00.303-.228.163.163 0 01.076 0c.657-.503 1.28-1.05 1.864-1.637a8.06 8.06 0 00.622-.697v-.106c.182-.174.345-.367.485-.576l.152-.303a2.22 2.22 0 00.151-.789zM57.679 115.3c-.123.37-.313.714-.56 1.016l-.652.773c.242-.425.454-.788.636-1.076.135-.223.293-.432.47-.622l.106-.091zm-2.789 1.046a13.653 13.653 0 00-2.107 3.957 5.67 5.67 0 01-3.199 1.288 1.035 1.035 0 01-.88-.348 1.79 1.79 0 01-.302-1.137 8.744 8.744 0 012.152-5.23 5.818 5.818 0 014.382-2.699 2.697 2.697 0 011.606.47c.407.319.725.736.925 1.213a7.29 7.29 0 00-2.577 2.516v-.03zm40.688 12.128c-.197.515-.41 1.03-.606 1.516a146.965 146.965 0 01-1.94 4.547 99.882 99.882 0 01-5.397 10.097c-6.458 10.338-13.174 15.568-20.117 15.826h-.819a16.192 16.192 0 01-10.08-3.456c-3.033-2.38-4.549-5.064-4.549-8.065.003-.464.054-.926.152-1.38.11-.457.247-.907.41-1.349a14.234 14.234 0 012.455-3.926c.258-.303.53-.622.834-.925l.273-.288c.379-.364.758-.728 1.167-1.091l.197-.167c.364-.318.758-.637 1.152-.94l.41-.318 1.303-.955a63.255 63.255 0 019.308-5.2 75.919 75.919 0 014.7-1.986l1.88-.743a139.466 139.466 0 0120.89-5.942c-.47 1.607-1.032 3.168-1.623 4.699v.046z" fill="#fff"/><path d="M46.054 108.327c.137-.053.28-.089.425-.106l4.047-.212a106.96 106.96 0 013.836-.182c.165.032.335.032.5 0a.47.47 0 00.288-.379.376.376 0 00-.212-.364.69.69 0 00-.364-.212h-7.58a69.508 69.508 0 011.956-2.941 39.622 39.622 0 013.032-3.775 24.546 24.546 0 013.532-3.26 8.322 8.322 0 013.79-1.667h.515c.52.01 1.033.112 1.516.303.687.284 1.31.7 1.834 1.228l.273.091.319-.121c.149-.107.277-.24.379-.394.103-.152.19-.315.257-.485a.956.956 0 00.122-.41 1.516 1.516 0 00-.47-.924 2.031 2.031 0 00-1.152-.637 8.615 8.615 0 00-1.259-.09c-.507 0-1.014.04-1.516.12a14.48 14.48 0 00-2.774.743 18.06 18.06 0 00-2.622 1.243c-.801.454-1.57.96-2.305 1.516-.782.6-1.512 1.264-2.182 1.986-.728.758-1.44 1.516-2.123 2.41-.682.895-1.364 1.729-2 2.608l-1.699 2.471a4.51 4.51 0 01-.636 0h-2.214a.867.867 0 00-.485.136.667.667 0 00-.258.379l-.075.288a.712.712 0 00.47.637c.288.136.56.288.818.44.223.164.422.358.591.576l.076.227c-.02.2-.088.392-.197.561l-3.183 5.958a240.133 240.133 0 01-4.139 7.428 190.66 190.66 0 01-4.881 7.958 107.876 107.876 0 01-5.351 7.58 53.65 53.65 0 01-5.594 6.185 20.154 20.154 0 01-5.564 3.851 12.23 12.23 0 01-4.76 1.091H8.52a7.575 7.575 0 01-3.972-1.303 6.172 6.172 0 01-2.32-3.032 6.885 6.885 0 01-.348-2.198 10.22 10.22 0 01.333-2.426 13.31 13.31 0 012.744-5.548 12.812 12.812 0 014.442-3.396c.183-.078.36-.169.53-.273l.167-.152.091-.242-.151-.227h-.213a2.283 2.283 0 00-.652.151c-.991.364-1.938.843-2.82 1.425a17.04 17.04 0 00-2.667 2.168 16.308 16.308 0 00-2.168 2.638 10.61 10.61 0 00-1.273 3.213A9.102 9.102 0 000 143.027c.001.884.134 1.763.394 2.607a7.578 7.578 0 002.547 3.79 8.939 8.939 0 004.715 1.819c.348.024.697.024 1.046 0 1.901-.034 3.78-.43 5.533-1.167a21.104 21.104 0 006.367-4.229 61.478 61.478 0 006.336-6.898 132.58 132.58 0 005.973-8.383c1.96-2.981 3.74-5.867 5.336-8.656a289.57 289.57 0 004.442-7.747 305.285 305.285 0 013.184-5.654l.181-.182z" fill="#fff"/></svg>