<svg width="137" height="127" fill="none" xmlns="http://www.w3.org/2000/svg"><path d="M2.095 122.771l-.59-4.295H.564l.943 5.828h.657l3.015-5.828H4.2l-2.106 4.295zm6-4.429c-1.348 0-2.46 1.128-2.712 2.964-.253 1.836.522 3.133 2.005 3.133 1.482 0 2.459-1.162 2.711-2.964.253-1.803-.505-3.133-2.004-3.133zm1.078 3.065c-.236 1.533-.876 2.274-1.684 2.274-.809 0-1.331-.775-1.112-2.307.219-1.533.876-2.291 1.684-2.291.809 0 1.331.792 1.112 2.324zm5.405-3.065a2.581 2.581 0 00-2.038 1.432c.027-.432.027-.866 0-1.297h-.843a8.18 8.18 0 01-.185 1.785l-.707 4.026h.943l.472-2.712c.235-1.415 1.364-2.426 1.954-2.426.589 0 .757.556.589 1.432l-.657 3.706h.943l.657-3.706c.253-1.061.034-2.24-1.128-2.24zm10.226-2.123h-1.128l-3.336 3.857.674-3.857h-.977l-1.431 8.068h.976l.657-3.739 2.476 3.739h1.112l-2.61-3.958 3.587-4.11zm1.666 3.504v-1.247h-.843c.004.6-.058 1.199-.185 1.786l-.708 4.025h.944l.539-3.2a1.82 1.82 0 011.937-1.684l.168-1.045a2.264 2.264 0 00-1.853 1.365zm3.233-2.409h.943l.186-1.095h-.944l-.185 1.095zm-1.246 6.973h.943l1.028-5.811h-.944l-1.027 5.811zm3.068-4.345a1.566 1.566 0 001.213 1.685c.64.202.926.556.86 1.095a1.012 1.012 0 01-1.096.909 2.258 2.258 0 01-1.415-.505l-.235.707a2.655 2.655 0 001.684.539 1.803 1.803 0 001.384-.458 1.814 1.814 0 00.603-1.327c0-.741-.336-1.415-1.414-1.685a.874.874 0 01-.657-1.01.914.914 0 01.639-.79.927.927 0 01.355-.036c.418.007.823.143 1.162.388l.219-.674a2.407 2.407 0 00-1.365-.438 1.786 1.786 0 00-1.937 1.6zm6.62-3.048h-.943l-.287 1.583h-.926l-.118.657h.926l-.892 5.154h.943l.893-5.154h.943l.118-.657h-.943l.286-1.583zm.753 7.393h.944l1.01-5.811h-.943l-1.01 5.811zm1.235-6.973h.943l.185-1.095h-.943l-.185 1.095zm4.999 1.028a2.581 2.581 0 00-2.038 1.432c.028-.432.028-.866 0-1.297h-.842a8.18 8.18 0 01-.185 1.785l-.708 4.026h.944l.471-2.712c.236-1.415 1.365-2.426 1.954-2.426.59 0 .758.556.59 1.432l-.657 3.706h.943l.657-3.706c.253-1.061.084-2.24-1.129-2.24zm3.321-1.028h.943l.186-1.095h-.944l-.185 1.095zm-1.23 6.973h.926l1.027-5.811h-.943l-1.01 5.811zm6.804-5.019a1.43 1.43 0 00-1.347-.926c-1.398 0-2.46 1.263-2.73 2.981-.269 1.718.203 3.099 1.685 3.099a2.05 2.05 0 001.684-.926 6.342 6.342 0 000 .792h.81a9.74 9.74 0 01.201-1.685l.708-4.042h-.708l-.303.707zm-.404 2.123c-.253 1.414-.943 2.307-1.786 2.307-.842 0-1.196-.909-.943-2.307s.927-2.325 1.769-2.325c.842 0 1.196.943.96 2.325zm4.327-1.18c-.336 2.661.877 4.194 2.713 4.194a3.122 3.122 0 002.004-.724l.118-.927a2.796 2.796 0 01-1.87.775c-1.398 0-2.24-1.196-1.97-3.369.269-2.173 1.465-3.251 2.812-3.251a2.367 2.367 0 011.685.775l.135-.909a2.593 2.593 0 00-.877-.565 2.63 2.63 0 00-1.027-.177c-1.752.085-3.402 1.533-3.722 4.178zm9.519-1.87a2.524 2.524 0 00-1.988 1.331s0-.32.118-.506l.522-2.947h-.943l-1.432 8.068h.943l.472-2.712c.236-1.415 1.364-2.425 1.97-2.425.607 0 .742.555.59 1.431l-.657 3.706h.893l.657-3.706c.236-1.061.05-2.24-1.145-2.24zm5.928.135l-2.139 4.446-.572-4.446h-.944l.86 5.777-1.348 2.661h.893l4.21-8.438h-.96zm5.307.809a1.425 1.425 0 00-.525-.684 1.425 1.425 0 00-.823-.259c-1.398 0-2.442 1.263-2.729 2.981-.286 1.718.203 3.099 1.685 3.099a1.917 1.917 0 001.499-.741v.253c-.404 2.021-.927 2.274-1.802 2.274a2.541 2.541 0 01-1.685-.657v.876a2.869 2.869 0 001.685.573c1.094 0 2.223-.472 2.712-3.218l.943-5.305h-.708l-.252.808zm-.405 2.106c-.236 1.414-.943 2.307-1.785 2.307s-1.196-.909-.943-2.307c.252-1.398.926-2.308 1.684-2.308.758 0 1.28.926 1.044 2.308zm3.655-1.668v-1.247h-.826a8.425 8.425 0 01-.202 1.786l-.707 4.025h.943l.556-3.2a1.8 1.8 0 011.92-1.684l.168-1.045a2.264 2.264 0 00-1.852 1.365zm4.144 3.199l-.573-4.446h-.943l.86 5.777-1.348 2.661h.893l4.21-8.438h-.977l-2.122 4.446zm6.989-4.58a2.6 2.6 0 00-2.055 1.432c.028-.432.028-.866 0-1.297h-.826a9.452 9.452 0 01-.185 1.785l-.724 4.026h.943l.472-2.712c.236-1.415 1.381-2.426 1.97-2.426.59 0 .742.556.59 1.432l-.657 3.706h.943l.657-3.706c.253-1.061.084-2.24-1.128-2.24zm2.61 1.6a1.567 1.567 0 001.213 1.684c.64.202.91.556.859 1.095a1.008 1.008 0 01-1.095.91 2.253 2.253 0 01-1.415-.506l-.236.708a2.642 2.642 0 001.685.539 1.797 1.797 0 001.39-.452 1.805 1.805 0 00.597-1.334c0-.741-.32-1.414-1.398-1.684a.874.874 0 01-.657-1.011.911.911 0 01.994-.825c.418.007.824.142 1.162.388l.22-.674a2.458 2.458 0 00-1.365-.438 1.787 1.787 0 00-1.75.933 1.79 1.79 0 00-.204.667zm7.951-1.466l-2.56 2.678.876-4.935h-.944l-1.414 8.068h.926l.539-3.032 1.667 3.032h1.011l-1.718-3.066 2.644-2.745h-1.027zm5.559.001l-.27.791a1.427 1.427 0 00-1.347-.926c-1.398 0-2.459 1.263-2.729 2.981-.269 1.718.202 3.099 1.684 3.099a2.048 2.048 0 001.685-.926 6.156 6.156 0 000 .792h.808a9.84 9.84 0 01.202-1.685l.708-4.042-.741-.084zm-.674 2.914c-.253 1.414-.943 2.307-1.785 2.307-.843 0-1.196-.909-.944-2.307.253-1.398.927-2.325 1.685-2.325s1.28.943 1.044 2.325z" fill="#5D95CF"/><path d="M48.754 8.535a2.072 2.072 0 001.685-.943 6.61 6.61 0 000 .808h.825c.013-.599.075-1.196.185-1.785l1.129-6.3h-.944l-.522 2.965a1.33 1.33 0 00-1.263-.825c-1.398 0-2.46 1.246-2.745 2.964-.287 1.718.134 3.116 1.65 3.116zm-.775-3.049c.253-1.38.927-2.307 1.786-2.307s1.196.926.943 2.307c-.253 1.382-.926 2.308-1.684 2.308-.758 0-1.28-.91-1.045-2.308zm8.728-2.104a1.432 1.432 0 00-1.348-.926c-1.398 0-2.459 1.247-2.729 2.965-.269 1.718.203 3.116 1.685 3.116a2.072 2.072 0 001.684-.944 6.57 6.57 0 000 .809h.809c.012-.6.08-1.198.202-1.785l.707-4.026h-.707l-.303.791zm-.404 2.106c-.253 1.415-.944 2.358-1.82 2.358-.875 0-1.195-.91-.943-2.308.253-1.398.927-2.307 1.684-2.307.759 0 1.314.876 1.079 2.257zm5.15 1.263c0-.74-.32-1.415-1.415-1.684a.893.893 0 01-.657-1.01.927.927 0 01.993-.81c.42.01.83.138 1.18.371l.202-.673a2.409 2.409 0 00-1.348-.421 1.769 1.769 0 00-1.87 1.684 1.533 1.533 0 001.213 1.684c.623.202.91.556.86 1.095a1.028 1.028 0 01-1.079.86 2.29 2.29 0 01-1.415-.506l-.219.707a2.645 2.645 0 001.685.54 1.819 1.819 0 001.87-1.837zm6.756-.59a2.442 2.442 0 00-1.685-2.476 1.483 1.483 0 01-.91-1.499A1.247 1.247 0 0166.879.974a2.369 2.369 0 011.465.539l.287-.758a2.476 2.476 0 00-1.685-.607 2.29 2.29 0 00-.91 4.396c.843.388 1.331.876 1.247 1.685a1.448 1.448 0 01-1.516 1.415 2.307 2.307 0 01-1.684-.809l-.32.826a2.695 2.695 0 002.021.791 2.409 2.409 0 002.425-2.29zm1.028 2.241h.943l.893-5.172h.943l.118-.64h-.927l.27-1.6h-.943l-.27 1.6h-.926l-.135.64h.943l-.91 5.172zm4.261.134a2.577 2.577 0 002.038-1.432v1.297h.843c-.004-.6.058-1.199.185-1.785l.707-4.026h-.943l-.472 2.712c-.235 1.415-1.364 2.425-1.953 2.425-.59 0-.759-.556-.59-1.432l.657-3.705h-.96l-.657 3.705c-.236 1.062-.067 2.24 1.145 2.24zm5.894-.001a2.139 2.139 0 001.684-.943c-.024.269-.024.54 0 .808h.826a9.45 9.45 0 01.185-1.785l1.028-6.3h-.944L81.65 3.28a1.297 1.297 0 00-1.263-.825c-1.398 0-2.442 1.246-2.729 2.964-.286 1.718.236 3.116 1.735 3.116zm-.758-3.049c.236-1.38.927-2.307 1.684-2.307.758 0 1.196.926.96 2.307-.235 1.382-.858 2.359-1.684 2.359-.825 0-1.212-.96-.96-2.359zm4.432 2.915h.944l1.027-5.811h-.943L83.066 8.4zm1.247-6.991h.926L85.44.315h-.943l-.186 1.095zm5.927 4.162c.27-1.819-.505-3.133-2.004-3.133s-2.459 1.146-2.712 2.965c-.252 1.82.506 3.133 2.005 3.133 1.499 0 2.46-1.145 2.712-2.965zm-3.755-.1c.219-1.533.876-2.275 1.684-2.275.809 0 1.33.792 1.095 2.308-.236 1.516-.86 2.29-1.685 2.29-.825 0-1.33-.79-1.094-2.324zm9.131-2.881h-1.111v-.32C94.74.957 95.027.856 95.583.856h.286l.118-.64a2.172 2.172 0 00-.522-.1c-1.044 0-1.685.538-1.887 2.105v.32h-.842l-.118.64h.842l-.91 5.154h.944l.91-5.154h1.111l.101-.59zm4.412-1.854h-.943l-.151.927h.943l.151-.927zM96.81 8.536a2.577 2.577 0 002.039-1.432c-.028.432-.028.865 0 1.297h.842c-.004-.6.058-1.199.185-1.785l.708-4.026h-.944l-.471 2.712c-.236 1.415-1.364 2.425-1.954 2.425-.59 0-.758-.556-.59-1.432l.657-3.705h-.943l-.657 3.705c-.27 1.062-.084 2.24 1.129 2.24zM98.107.737h-.944l-.151.927h.943l.152-.927zm6.113 2.747l.168-1.028a2.271 2.271 0 00-1.92 1.364c.026-.409.026-.82 0-1.23h-.825a8.155 8.155 0 01-.186 1.685l-.707 4.026h.943l.539-3.2a1.82 1.82 0 011.988-1.617zm6.539 2.678c.134-.927-.219-1.937-1.079-2.089a1.964 1.964 0 001.247-1.684 1.698 1.698 0 00-.356-1.416 1.686 1.686 0 00-1.328-.605h-1.921l-1.431 8.085h2.493a2.39 2.39 0 002.375-2.291zm-2.662-5.053h.859c.876 0 1.179.505 1.045 1.313-.135.809-.523 1.314-1.399 1.314h-.96l.455-2.627zm-1.128 6.468l.522-3.032h1.179c.96 0 1.246.69 1.179 1.499a1.539 1.539 0 01-.501 1.141 1.533 1.533 0 01-1.183.392h-1.196zm6.177.96a2.069 2.069 0 001.685-.944c-.017.27-.017.54 0 .809h.808c.013-.6.08-1.198.202-1.785l.708-4.026h-.758l-.27.791a1.429 1.429 0 00-1.347-.926c-1.398 0-2.443 1.247-2.729 2.965-.286 1.718.202 3.116 1.701 3.116zm-.758-3.049c.236-1.381.927-2.308 1.769-2.308.842 0 1.196.927.96 2.308-.236 1.381-.943 2.358-1.785 2.358-.843 0-1.196-.96-.944-2.358zm6.807-5.173h-.943L116.82 8.4h.944l1.431-8.085zm.826 8.085l1.415-8.085h-.926L119.078 8.4h.943zm5.305-.385l.169-.927a2.34 2.34 0 01-1.684.657c-1.028 0-1.533-.825-1.5-1.886a2.846 2.846 0 010-.489h3.167a3.72 3.72 0 00.219-1.095 1.682 1.682 0 00-1.684-1.819c-1.415 0-2.645 1.381-2.712 3.369 0 1.465.724 2.695 2.189 2.695a2.413 2.413 0 001.836-.505zm-1.229-4.818a.874.874 0 01.943.994c.018.168.018.337 0 .505h-2.442c.303-.926.775-1.499 1.499-1.499zm2.631 5.205h.943l.893-5.172h.943l.118-.64h-.926l.269-1.6h-.926l-.287 1.6h-.926l-.118.64h.91l-.893 5.172zm3.196 0h.944l.892-5.172h.944l.134-.64h-.943l.27-1.6h-.944l-.269 1.6h-.927l-.134.64h.943l-.91 5.172zM50.675 18.744c-.236 1.415-1.365 2.426-1.971 2.426-.607 0-.741-.556-.59-1.432l.657-3.706h-.926l-.674 3.706c-.185 1.061 0 2.24 1.213 2.24a2.594 2.594 0 002.038-1.432c-.028.432-.028.866 0 1.297h.69c.005-.6.067-1.197.186-1.785l.724-4.026h-.91l-.438 2.712zm5.493-2.846a2.594 2.594 0 00-2.055 1.414c.054-.424.082-.852.084-1.28h-.842a9.412 9.412 0 01-.185 1.685l-.725 4.042h.944l.471-2.729c.253-1.415 1.381-2.408 1.97-2.408.59 0 .759.539.59 1.415l-.657 3.722h.944l.657-3.722c.1-.977-.068-2.14-1.196-2.14zm5.927.824a1.331 1.331 0 00-1.28-.825c-1.398 0-2.443 1.246-2.73 2.964-.285 1.719.203 3.117 1.685 3.117a2.072 2.072 0 001.685-.944 6.61 6.61 0 000 .809h.825c.014-.6.075-1.196.185-1.786l1.129-6.3h-.944l-.555 2.965zm-.337 2.207c-.236 1.415-.944 2.308-1.685 2.308-.74 0-1.196-.91-.96-2.308.236-1.398.927-2.308 1.786-2.308s1.111.927.859 2.308zm9.28-5.155h-5.07l-.152.843h2.055l-1.263 7.226h.96l1.28-7.226h2.055l.135-.843zm2.53 3.05a1.415 1.415 0 00-1.347-.926c-1.398 0-2.443 1.246-2.729 2.964-.286 1.718.202 3.116 1.684 3.116a2.073 2.073 0 001.685-.943c-.025.269-.025.54 0 .808h.825a9.45 9.45 0 01.185-1.785l.708-4.026h-.707l-.304.792zm-.404 2.105c-.151 1.415-.943 2.392-1.836 2.392-.893 0-1.196-.91-.96-2.307.236-1.398.926-2.308 1.769-2.308.842 0 1.263.842 1.027 2.224zm5.423-3.031a2.576 2.576 0 00-2.055 1.414 9.942 9.942 0 000-1.28h-.826a9.42 9.42 0 01-.185 1.685l-.724 4.042h.943l.472-2.729c.252-1.415 1.38-2.408 1.97-2.408.59 0 .742.539.59 1.415l-.657 3.722h.943l.691-3.638c.219-1.061 0-2.223-1.162-2.223zm2.474.774h2.308l-3.302 4.7-.067.471h3.621l.085-.657h-2.527l3.302-4.682.067-.472h-3.386l-.1.64zm5.173 5.171h.944l1.01-5.81h-.943l-1.01 5.81zm1.412-8.068l-.185 1.078h.943l.186-1.078h-.944zm4.549 2.123a2.544 2.544 0 00-2.038 1.414v-1.28h-.842a8.168 8.168 0 01-.186 1.685l-.707 4.042h.943l.489-2.644c.235-1.415 1.364-2.409 1.954-2.409.589 0 .757.539.589 1.415l-.657 3.722h.943l.657-3.722c.236-1.061.068-2.223-1.145-2.223zm6.97-2.14l-4.009 8.085h.977l1.095-2.207h2.544l.286 2.224h.977l-1.078-8.102h-.792zM97.6 18.81l1.684-3.369.421 3.369H97.6zm8.086-.066c-.252 1.415-1.381 2.426-1.97 2.426-.59 0-.758-.556-.59-1.432l.657-3.706h-.943l-.657 3.706c-.185 1.061 0 2.24 1.196 2.24a2.574 2.574 0 002.038-1.432v1.297h.842c.005-.6.067-1.197.185-1.785l.708-4.026h-.943l-.523 2.712zm5.963-1.92a1.416 1.416 0 00-1.348-.926c-1.398 0-2.442 1.246-2.728 2.964-.287 1.718.202 3.116 1.684 3.116a1.934 1.934 0 001.499-.758v.253c-.404 2.021-.926 2.274-1.802 2.274a2.626 2.626 0 01-1.684-.64v.859a2.861 2.861 0 001.684.572c1.095 0 2.223-.471 2.712-3.217l.943-5.289h-.691l-.269.792zm-.404 2.105c-.236 1.415-.944 2.308-1.786 2.308-.842 0-1.196-.91-.943-2.307.253-1.398.926-2.308 1.684-2.308.758 0 1.28.926 1.045 2.308zm2.19-1.431a1.536 1.536 0 001.213 1.684c.623.202.91.556.859 1.095a1.023 1.023 0 01-1.111.91 2.238 2.238 0 01-1.398-.506l-.236.708a2.642 2.642 0 001.684.539 1.818 1.818 0 001.988-1.786c0-.741-.32-1.415-1.415-1.684a.895.895 0 01-.657-1.01.924.924 0 01.994-.81c.42.007.83.136 1.179.371l.269-.74a2.507 2.507 0 00-1.364-.422 1.788 1.788 0 00-2.005 1.65zm7.022-1.601a1.903 1.903 0 00-1.482.741l.505-2.88h-.994l-1.431 8.085h.724l.269-.809a1.405 1.405 0 001.348.944c1.398 0 2.442-1.264 2.729-2.982.286-1.718-.152-3.099-1.668-3.099zm.775 3.032c-.253 1.381-.926 2.308-1.785 2.308-.86 0-1.196-.927-.944-2.308.253-1.381.944-2.308 1.685-2.308.741 0 1.28.91 1.044 2.308zm5.292-.185c-.236 1.415-1.364 2.426-1.954 2.426-.59 0-.758-.556-.59-1.432l.657-3.706h-.943l-.657 3.706c-.202 1.061 0 2.24 1.196 2.24a2.582 2.582 0 002.038-1.432c-.028.432-.028.866 0 1.297h.842c-.003-.6.059-1.198.186-1.785l.707-4.026h-.943l-.539 2.712zm5.287-2.846a2.27 2.27 0 00-1.92 1.364c.027-.41.027-.82 0-1.23h-.842a8.154 8.154 0 01-.185 1.685l-.708 4.042h.927l.556-3.2a1.817 1.817 0 011.92-1.685l.252-.976zm4.162.134l-.269.792a1.437 1.437 0 00-1.348-.927c-1.398 0-2.459 1.247-2.729 2.965-.269 1.718.203 3.116 1.685 3.116a1.985 1.985 0 001.499-.758v.253c-.388 2.021-.927 2.274-1.802 2.274a2.629 2.629 0 01-1.685-.64v.859a2.867 2.867 0 001.685.572c1.094 0 2.223-.471 2.711-3.217l.944-5.289h-.691zm-.64 2.897c-.253 1.415-.943 2.308-1.785 2.308-.843 0-1.196-.91-.944-2.308.253-1.398.927-2.307 1.685-2.307s1.246.926 1.044 2.307z" fill="#fff"/></svg>