<svg width="125" height="120" fill="none" xmlns="http://www.w3.org/2000/svg"><path d="M44.833 22.383c-.315 1.439-.761 1.165-.863 2.401-.101 1.237.781.588 1.015 1.145.233.558-2.618 4.297-2.79 6.172-.173 1.874.79-.264-.965 2.412-1.522 2.32-7.437 3.516-7.437 3.516a16.53 16.53 0 00-6.9-.405c-1.594-1.287-1.076-4.834 1.258-7.49 2.638-3.04 6.403-3.445 8.828-4.276a18.273 18.273 0 005.347-2.685c1.188-.76 3.044-3.385 2.527-.79m.964-4.45c-.802 0-1.32 1.38-1.32 1.38a12.377 12.377 0 01-3.835 2.806 71.856 71.856 0 01-10.147 3.344c-1.015.233-.903-.577-.325-1.378.579-.8 1.634-1.672 2.233-1.348 2.73 1.47 6.798-1.58 5.753-3.688-.67-1.338-.903-1.226-1.228-1.115-.324.111-.74.233-1.775-1.115-2.182-3.425-3.856-.344-4.709-.213-.245.04-.495.04-.74 0-.305 0-.437-.08-.427.254v.527s-1.623 1.783-1.309 2.25c.082.131.569.435.69.689.122.253-.507 2.857-3.236 4.337-.69.375-.71-.375-.254-1.764.243-.86 6.453-15.413 6.453-15.757-.02-.782.014-1.564.102-2.341.081-.547.142-.882.213-1.226.071-.345-.233-.538-.162-.963.08-1.196.284-2.027.304-2.604-.213-.092-.457.658-.68 1.57 0 .142-.162 0-.284-.121-.122-.122-.203-.233-.223-.183-.294.659.365.618.203 1.196 0 .06-.223 0-.437-.132-.213-.131-.426-.202-.436-.111-.05.78.893.547.67 1.631 0 .112 0 .223-.061.304a1.664 1.664 0 01-.132.456c-.609 1.074-1.015-.324-1.492-.861-.476-.537-.882-1.013-.405.304.162.456.202 1.662.324 1.936.386.82.761.79.68 1.408-.152 1.206-3.5 6.384-3.967 7.246-1.512 2.726-2.557 6.516-3.349 7.64a17.003 17.003 0 00-2.537 6.901c-1.532 8.34 4.719 19.254 4.719 19.254s-3.877 11.907-4.81 13.468c-.933 1.56-5.997 10.65-7.59 12.373-1.593 1.723-1.38 8.431-.507 8.249.872-.183.943-3.04 1.877-4.145.933-1.104 2.8-.476 3.095-1.621.294-1.145-1.248-1.611-1.147-2.615.102-1.003 6.626-6.647 7.316-8.43.69-1.784.325-5.068 2.486-6.78 3.45-4.054 3.897-13.032 6.21-14.096 4.952-2.28 13.384-6.79 14.013-8.948.63-2.159.842-7.763 1.228-8.624a9.373 9.373 0 00.75-3.972c-.151-4.054-1.014-5.36-1.866-5.381" fill="#5D95CF"/><path d="M124.286 81.396a2.99 2.99 0 00-.302-1.27l-.222.111.206-.11a4.419 4.419 0 00-.746-1.064 4.597 4.597 0 00-1.032-.826 2.869 2.869 0 00-1.111-.444 17.46 17.46 0 00-3.619-.286 74.92 74.92 0 00-13.095 1.222c1.254-3.761 2.19-6.73 2.778-8.873.159-.27.27-.476.381-.634.096-.169.208-.328.333-.477v-.27a1.284 1.284 0 00-.381-.872 1.579 1.579 0 00-1.206-.46h-.191c-.292.05-.56.194-.762.412a4.143 4.143 0 00-.523.714c-.429.397-1 .873-1.715 1.413a95.003 95.003 0 01-2.603 1.889 58.752 58.752 0 01-3.413 2.174c-.81.486-1.66.906-2.54 1.254h-.665l-.143-.11v-.255c.02-.174.064-.344.127-.508a40.194 40.194 0 012.746-4.476 27.766 27.766 0 011.984-2.508c.336-.42.744-.774 1.207-1.047h.174v-.19a1.207 1.207 0 00-.27-.683.809.809 0 00-.634-.27h-.096a3.8 3.8 0 00-.762.238 23.19 23.19 0 00-1.349.571 11.43 11.43 0 00-1.238.604 1.84 1.84 0 00-.635.507c-.08.197-.118.407-.11.62v1.047c-1.906 3.46-3.175 5.826-3.779 7.095a19.558 19.558 0 01-3.396 2.286 7.143 7.143 0 01-3.302 1.048 2.604 2.604 0 01-2.206-.699 3.317 3.317 0 01-.588-2.08 6.713 6.713 0 01.794-3.174 16.414 16.414 0 012.254-3.428 3.556 3.556 0 012.619-1.588h.254v.16a2.253 2.253 0 01-.413 1.094l-.333.556-.08.175v.127a.412.412 0 00.239.396.889.889 0 00.46.096 2.238 2.238 0 002.063-1.143c.15-.311.216-.656.19-1a1.732 1.732 0 00-.491-1.302 2.016 2.016 0 00-1.397-.428 4.762 4.762 0 00-2.286.698 14.665 14.665 0 00-4.412 4.08 10.158 10.158 0 00-1.588 3.3l-.555.556c-2.413 2.175-4.27 3.175-5.429 3.175a.397.397 0 01-.27 0v-.206a4.493 4.493 0 01.429-1.477c.359-.77.756-1.522 1.19-2.253a40.862 40.862 0 001.873-3.667 6.746 6.746 0 00.635-2.254 1.32 1.32 0 00-.285-.905 1.11 1.11 0 00-.842-.317 6.65 6.65 0 00-2.666.889c-.858.46-2 1.206-3.429 2.174.348-.636.554-1.34.603-2.063a1.222 1.222 0 00-.38-1 1.587 1.587 0 00-1.096-.334 5.376 5.376 0 00-2.746 1.08 9.968 9.968 0 00-.714.492l-.19.174-.08.08v.27l.175.174.095.095h.333c.472-.333.965-.635 1.476-.904.248-.15.523-.248.81-.286a.38.38 0 01.254 0v.206a1.96 1.96 0 01-.111.397 41.718 41.718 0 01-1.873 3.841 13.845 13.845 0 01-2.46 2.651c-2.27 1.969-4.064 2.92-5.27 2.92a2.095 2.095 0 01-1.112-.237.666.666 0 01-.301-.603 7.35 7.35 0 01.397-1.588l1.285-1.238a6.937 6.937 0 002.381-4.174.556.556 0 00-.27-.477.951.951 0 00-.428-.11 4.604 4.604 0 00-1.302-1.969 3.476 3.476 0 00-2.206-.714 8.59 8.59 0 00-6.127 3.174 9.397 9.397 0 00-2.984 6.35 3.381 3.381 0 00.571 2.126 2.19 2.19 0 001.778.747 9.523 9.523 0 004.476-1.588 1.698 1.698 0 00.603 1.429 2.682 2.682 0 001.683.46 7.936 7.936 0 003.92-1.27 19.187 19.187 0 003.778-2.952l-.698 1.206-1.016 1.73-.254.46v.239l.175.38.38.128h.302l.429-.159.444-.095.413-.127.301-.286 2.572-4.635.317-.603.635-1.19c.111-.207.207-.35.27-.46v-.128l.127-.11c.238-.191.73-.572 1.492-1.096a20.154 20.154 0 012.048-1.397 4.76 4.76 0 011.825-.698 1 1 0 010 .317 6.89 6.89 0 01-.54 1.587c-.27.588-.603 1.223-.984 1.921-.38.699-.666 1.19-.81 1.476l-.428.905c-.275.53-.481.958-.619 1.286a8.122 8.122 0 00-.476 1.238c-.14.405-.225.826-.254 1.254a1.383 1.383 0 00.413 1.063c.314.263.718.394 1.127.365a7.492 7.492 0 003.46-1.38 24.114 24.114 0 003.318-2.54 4.751 4.751 0 000 .492 2.681 2.681 0 001.317 2.54 5.08 5.08 0 002.825.746 9.714 9.714 0 004.365-1.096 19.137 19.137 0 003.064-2 1 1 0 00.238.508 1.127 1.127 0 00.873.413c.174-.011.345-.049.508-.111a38.785 38.785 0 007.127-4.048 57.666 57.666 0 005.143-3.936c0 .317-.111.65-.191 1.047a102.12 102.12 0 01-.571 2.635A52.35 52.35 0 01102.159 79a175.446 175.446 0 00-13.397 3.175c-4.35 1.206-8.19 2.603-12.222 4.143l-.699.286h-.127l-1.825.746a60.49 60.49 0 00-14.905 8.301l-.317.27-.492.428-.604.556-.46.429-.54.555c-.127.143-.27.286-.396.445-.127.158-.318.365-.477.555l-.365.445a1.6 1.6 0 00-.127.174 13.522 13.522 0 00-1.587 2.794 9.175 9.175 0 00-.714 3.555c0 3.731 1.92 7.096 5.682 10.048A17.459 17.459 0 0069.794 120h1.158c6.556-.412 12.603-4.016 18.127-10.73a75.23 75.23 0 009.524-15.73l.207-.444.079-.16.238-.507c.508-1.127 1.016-2.302 1.587-3.492a124.57 124.57 0 001.588-4c.079-.207.158-.429.253-.635l.191-.524c.46-1.238.936-2.508 1.397-3.81a69.311 69.311 0 0113.492-1.079h3.397a2.76 2.76 0 011.587.492 1.338 1.338 0 01.476 1.111 3.989 3.989 0 01-.73 2.048l-.095.175a8.907 8.907 0 01-.715.984l-.206.238c-.301.35-.635.714-1.032 1.095a1.86 1.86 0 00-.254.222s-.095 0-.127.127c-.042.06-.08.124-.111.19a.678.678 0 000 .255v.143l.223.095a.793.793 0 00.412-.127c.113-.07.22-.149.318-.238a.156.156 0 01.079 0c.688-.527 1.341-1.1 1.952-1.714.231-.231.448-.475.651-.73v-.112c.191-.182.362-.384.508-.603l.159-.317c.103-.264.156-.543.159-.826zm-63.89-9.873a3.333 3.333 0 01-.587 1.064l-.682.81c.254-.445.476-.826.667-1.128.14-.233.306-.451.492-.65l.11-.096zm-2.92 1.095a14.284 14.284 0 00-2.206 4.143 5.936 5.936 0 01-3.35 1.35 1.08 1.08 0 01-.92-.366 1.874 1.874 0 01-.318-1.19 9.16 9.16 0 012.255-5.476 6.096 6.096 0 014.587-2.826 2.824 2.824 0 011.682.492c.426.334.76.771.969 1.27a7.633 7.633 0 00-2.699 2.635v-.032zm42.603 12.699c-.206.54-.428 1.08-.635 1.587a152.984 152.984 0 01-2.031 4.762 104.463 104.463 0 01-5.651 10.571C85 113.063 77.968 118.539 70.698 118.809h-.857a16.955 16.955 0 01-10.555-3.619c-3.175-2.492-4.762-5.302-4.762-8.445.003-.485.056-.969.158-1.444.116-.479.26-.95.43-1.413a14.913 14.913 0 012.57-4.11c.27-.318.556-.652.873-.97l.286-.3a42.97 42.97 0 011.222-1.144l.207-.174c.38-.334.793-.667 1.206-.984l.429-.334 1.365-1a66.277 66.277 0 019.746-5.444 79.069 79.069 0 014.92-2.08l1.969-.777a146.018 146.018 0 0121.873-6.222c-.492 1.682-1.08 3.317-1.699 4.92v.048z" fill="#000"/><path d="M48.222 64.221a1.81 1.81 0 01.445-.11l4.238-.223c1.333-.095 2.682-.143 4.016-.19.172.034.35.034.523 0a.492.492 0 00.302-.397.396.396 0 00-.222-.381.73.73 0 00-.381-.223h-7.937a72.712 72.712 0 012.048-3.079c.977-1.38 2.037-2.7 3.175-3.952a25.698 25.698 0 013.698-3.413 8.714 8.714 0 013.968-1.746h.54c.544.01 1.081.117 1.587.317.72.297 1.373.734 1.92 1.286l.287.095.333-.127c.156-.112.29-.252.397-.412.108-.16.198-.33.27-.508a.997.997 0 00.126-.429 1.588 1.588 0 00-.492-.968 2.127 2.127 0 00-1.206-.667A9.035 9.035 0 0064.54 49c-.532.001-1.063.043-1.588.127a15.13 15.13 0 00-2.904.778c-.95.36-1.868.794-2.747 1.301a21.877 21.877 0 00-2.412 1.588 18.324 18.324 0 00-2.286 2.079c-.762.794-1.508 1.587-2.222 2.524-.714.936-1.429 1.81-2.095 2.73l-1.778 2.587a4.755 4.755 0 01-.667 0h-2.318a.904.904 0 00-.507.143.698.698 0 00-.27.397l-.08.302a.746.746 0 00.493.666c.301.143.587.302.857.46.233.172.441.375.619.604l.08.238a1.37 1.37 0 01-.207.587l-3.334 6.238a250.418 250.418 0 01-4.333 7.778 199.455 199.455 0 01-5.11 8.333 113.103 113.103 0 01-5.604 7.937 56.306 56.306 0 01-5.857 6.476 21.09 21.09 0 01-5.826 4.032 12.808 12.808 0 01-4.984 1.143h-.54a7.943 7.943 0 01-4.158-1.366 6.456 6.456 0 01-2.429-3.174 7.207 7.207 0 01-.365-2.302 10.7 10.7 0 01.35-2.54 13.937 13.937 0 012.872-5.809 13.411 13.411 0 014.651-3.555 4.42 4.42 0 00.556-.286l.174-.159.096-.254-.16-.238h-.221a2.378 2.378 0 00-.683.159c-1.038.381-2.03.882-2.952 1.492a17.857 17.857 0 00-2.794 2.27 17.098 17.098 0 00-2.27 2.762 11.11 11.11 0 00-1.333 3.365A9.524 9.524 0 000 100.555c.001.925.14 1.845.413 2.73a7.937 7.937 0 002.666 3.968 9.374 9.374 0 004.937 1.905c.365.024.73.024 1.095 0a15.7 15.7 0 005.794-1.223 22.087 22.087 0 006.666-4.428 64.323 64.323 0 006.635-7.222 138.838 138.838 0 006.254-8.778 172.66 172.66 0 005.588-9.064 305.07 305.07 0 004.65-8.11 315.028 315.028 0 013.334-5.921l.19-.19z" fill="#000"/></svg>