<svg width="132" height="180" fill="none" xmlns="http://www.w3.org/2000/svg"><path d="M69.062 37.204c-.522 2.392-1.264 1.937-1.432 3.992-.168 2.055 1.297.977 1.684 1.903.388.926-4.345 7.142-4.632 10.258-.286 3.116 1.314-.438-1.6 4.009-2.526 3.857-12.346 5.845-12.346 5.845a27.406 27.406 0 00-11.454-.674c-2.645-2.14-1.786-8.035 2.088-12.448 4.38-5.053 10.629-5.727 14.655-7.108a30.317 30.317 0 008.876-4.464c1.971-1.263 5.053-5.625 4.194-1.313m1.6-7.395c-1.33 0-2.19 2.291-2.19 2.291a20.55 20.55 0 01-6.366 4.666 119.204 119.204 0 01-16.844 5.558c-1.684.388-1.5-.96-.539-2.29.96-1.331 2.712-2.78 3.706-2.24 4.53 2.442 11.285-2.628 9.55-6.132-1.112-2.223-1.499-2.038-2.038-1.853-.539.185-1.23.388-2.948-1.853-3.621-5.693-6.4-.572-7.815-.353a3.792 3.792 0 01-1.23 0c-.505 0-.724-.135-.707.42v.877s-2.695 2.964-2.173 3.739c.135.219.943.724 1.145 1.145.202.422-.842 4.75-5.373 7.21-1.145.623-1.179-.624-.421-2.931.404-1.432 10.713-25.62 10.713-26.192-.035-1.3.022-2.6.168-3.891a34.2 34.2 0 01.354-2.038c.118-.573-.387-.893-.27-1.6.135-1.988.472-3.37.506-4.33-.354-.151-.758 1.095-1.129 2.611 0 .236-.27 0-.471-.202-.203-.202-.337-.387-.371-.303-.488 1.095.606 1.027.337 1.988 0 .1-.37 0-.724-.22-.354-.218-.708-.336-.725-.185-.084 1.297 1.482.91 1.112 2.712 0 .185 0 .37-.101.505-.036.262-.11.518-.22.758-1.01 1.786-1.684-.539-2.475-1.431-.792-.893-1.465-1.685-.674.505.27.758.337 2.762.54 3.217.64 1.365 1.262 1.314 1.128 2.341-.253 2.005-5.811 10.612-6.586 12.044-2.51 4.53-4.245 10.83-5.559 12.7a28.28 28.28 0 00-4.21 11.47c-2.544 13.863 7.832 32.004 7.832 32.004s-6.435 19.791-7.984 22.385c-1.55 2.594-9.955 17.703-12.6 20.567-2.644 2.863-2.29 14.014-.842 13.711 1.449-.304 1.567-5.054 3.116-6.89 1.55-1.836 4.65-.791 5.138-2.695.488-1.903-2.072-2.678-1.903-4.345.168-1.668 10.998-11.05 12.144-14.014 1.145-2.965.539-8.422 4.127-11.269 5.727-6.737 6.468-21.661 10.308-23.43 8.22-3.79 22.217-11.285 23.261-14.873 1.045-3.587 1.398-12.902 2.038-14.334a15.598 15.598 0 001.247-6.602c-.253-6.738-1.684-8.91-3.1-8.945" fill="#5D95CF"/><path d="M37.056 140.574a783.29 783.29 0 00-3.369 5.508l-.859 1.314h.623l.674-1.061a219.868 219.868 0 003.537-5.677l-.606-.084zm1.583.287l-2.51 3.992c-.572.892-1.162 1.684-1.684 2.627h.64c.522-.775 1.028-1.549 1.55-2.358.893-1.381 1.684-2.762 2.594-4.11l-.556-.101m-6.874 7.866a154.458 154.458 0 01-3.37 4.7l.506.185a156.588 156.588 0 003.369-4.615l-.506-.27zm1.145.708c-1.078 1.516-2.173 2.998-3.369 4.413l.522.168c1.112-1.381 2.173-2.829 3.234-4.312l-.455-.269" fill="#707D90"/><path d="M131.885 138.587a3.179 3.179 0 00-.32-1.348l-.236.118.219-.118a4.693 4.693 0 00-.792-1.128 4.9 4.9 0 00-1.095-.876 3.037 3.037 0 00-1.179-.472 18.517 18.517 0 00-3.84-.303 79.474 79.474 0 00-13.896 1.297c1.33-3.992 2.324-7.142 2.947-9.416.169-.286.287-.505.405-.674.102-.179.22-.348.353-.505v-.286a1.367 1.367 0 00-.404-.927 1.692 1.692 0 00-1.28-.488h-.202a1.43 1.43 0 00-.809.438 4.396 4.396 0 00-.556.758c-.454.421-1.061.926-1.819 1.499a100.99 100.99 0 01-2.762 2.004 62.108 62.108 0 01-3.622 2.308 18.48 18.48 0 01-2.695 1.331h-.707l-.152-.118v-.27c.022-.185.067-.366.135-.539a42.638 42.638 0 012.914-4.75 29.32 29.32 0 012.106-2.661 4.686 4.686 0 011.28-1.112h.185v-.202a1.283 1.283 0 00-.286-.724.87.87 0 00-.674-.287h-.101a4.083 4.083 0 00-.809.253 25.24 25.24 0 00-1.431.606 12.26 12.26 0 00-1.314.64 1.974 1.974 0 00-.674.539 1.595 1.595 0 00-.118.657v1.112c-2.021 3.672-3.369 6.182-4.009 7.529a20.713 20.713 0 01-3.604 2.426 7.578 7.578 0 01-3.504 1.111 2.752 2.752 0 01-2.341-.741 3.519 3.519 0 01-.623-2.206 7.126 7.126 0 01.842-3.369 17.42 17.42 0 012.392-3.638 3.771 3.771 0 012.779-1.685h.27v.169a2.4 2.4 0 01-.439 1.162l-.353.59-.084.185v.135a.437.437 0 00.252.421.94.94 0 00.489.101 2.372 2.372 0 002.19-1.213 2.1 2.1 0 00.202-1.061 1.837 1.837 0 00-.523-1.381 2.138 2.138 0 00-1.482-.455 5.058 5.058 0 00-2.425.741 15.557 15.557 0 00-4.683 4.329 10.779 10.779 0 00-1.684 3.503l-.59.59c-2.56 2.308-4.53 3.369-5.76 3.369a.426.426 0 01-.287 0v-.219c.06-.545.215-1.075.455-1.567.381-.818.803-1.616 1.263-2.392a43.194 43.194 0 001.988-3.891 7.15 7.15 0 00.674-2.391 1.397 1.397 0 00-.304-.96 1.168 1.168 0 00-.892-.337 7.06 7.06 0 00-2.83.943c-.91.488-2.122 1.28-3.638 2.308a5.338 5.338 0 00.64-2.19 1.297 1.297 0 00-.405-1.061 1.68 1.68 0 00-1.162-.354 5.718 5.718 0 00-2.914 1.145c-.337.219-.59.388-.758.523l-.202.185-.084.084v.286l.185.186.101.101h.354c.5-.354 1.024-.674 1.567-.96.262-.16.554-.263.859-.304a.415.415 0 01.269 0v.219a2.035 2.035 0 01-.118.421 44.242 44.242 0 01-1.987 4.077 14.747 14.747 0 01-2.611 2.813c-2.409 2.088-4.312 3.099-5.592 3.099a2.226 2.226 0 01-1.18-.253.706.706 0 01-.32-.64 7.8 7.8 0 01.422-1.684l1.364-1.314a7.358 7.358 0 002.526-4.43.585.585 0 00-.286-.505 1.004 1.004 0 00-.455-.118 4.886 4.886 0 00-1.38-2.089 3.689 3.689 0 00-2.342-.758 9.121 9.121 0 00-6.502 3.369 9.971 9.971 0 00-3.166 6.737 3.591 3.591 0 00.606 2.258 2.322 2.322 0 001.886.791c1.7-.151 3.335-.731 4.75-1.684a1.8 1.8 0 00.64 1.516 2.845 2.845 0 001.786.488 8.428 8.428 0 004.16-1.347 20.372 20.372 0 004.01-3.133l-.742 1.28-1.078 1.836-.27.488v.253l.186.404.404.135h.32l.455-.168.472-.101.437-.135.32-.303 2.73-4.919.336-.64.674-1.263c.118-.219.219-.371.286-.489v-.134l.135-.118c.253-.202.775-.607 1.583-1.163a21.414 21.414 0 012.173-1.482 5.067 5.067 0 011.937-.741c.018.112.018.225 0 .337a7.3 7.3 0 01-.573 1.684 33.74 33.74 0 01-1.044 2.038c-.404.742-.707 1.264-.859 1.567l-.455.96c-.292.562-.51 1.016-.657 1.364a8.637 8.637 0 00-.505 1.314 5.17 5.17 0 00-.27 1.331 1.463 1.463 0 00.439 1.128c.333.279.762.418 1.195.388a7.955 7.955 0 003.672-1.466 25.482 25.482 0 003.52-2.695 5.069 5.069 0 000 .523 2.846 2.846 0 001.399 2.695c.9.551 1.943.827 2.998.791 1.614-.019 3.2-.417 4.632-1.162a20.352 20.352 0 003.25-2.122c.032.2.12.387.254.539a1.2 1.2 0 00.926.438c.184-.012.366-.052.539-.118a41.207 41.207 0 007.563-4.295 61.213 61.213 0 005.457-4.178c0 .337-.118.691-.202 1.112-.152.758-.354 1.684-.606 2.796a55.597 55.597 0 01-1.685 5.811 186.26 186.26 0 00-14.216 3.369c-4.615 1.28-8.691 2.762-12.97 4.396l-.74.303h-.135l-1.938.792a64.204 64.204 0 00-15.816 8.809l-.337.287-.522.454-.64.59-.488.455-.573.589c-.135.152-.287.303-.421.472-.135.168-.337.387-.505.589l-.388.472a1.86 1.86 0 00-.135.185 14.352 14.352 0 00-1.684 2.965 9.733 9.733 0 00-.758 3.773c0 3.958 2.038 7.529 6.03 10.662a18.53 18.53 0 0011.892 4.346h1.23c6.956-.438 13.373-4.262 19.235-11.387a79.823 79.823 0 0010.106-16.692l.219-.472.084-.168.253-.539c.539-1.196 1.078-2.442 1.685-3.706a133.304 133.304 0 001.684-4.244c.084-.219.168-.455.269-.674l.203-.556c.488-1.314.993-2.661 1.482-4.042a73.562 73.562 0 0114.317-1.146h3.605a2.938 2.938 0 011.684.522 1.42 1.42 0 01.505 1.179 4.223 4.223 0 01-.775 2.173l-.101.186a9.54 9.54 0 01-.758 1.044l-.219.253c-.32.37-.673.758-1.094 1.162-.097.07-.188.149-.27.236 0 0-.101 0-.135.134a1.365 1.365 0 00-.118.202.721.721 0 000 .27v.152l.236.101a.848.848 0 00.438-.135c.12-.073.233-.158.337-.253a.17.17 0 01.084 0 20.46 20.46 0 002.072-1.819c.245-.245.475-.504.691-.775v-.118a3.84 3.84 0 00.539-.64l.168-.337c.109-.279.166-.576.169-.875zM64.088 128.11a3.538 3.538 0 01-.623 1.128l-.724.859c.27-.471.505-.876.707-1.196.15-.247.325-.479.522-.69l.118-.101zm-3.099 1.162a15.16 15.16 0 00-2.341 4.396 6.3 6.3 0 01-3.554 1.432 1.152 1.152 0 01-.977-.388 1.987 1.987 0 01-.337-1.263 9.72 9.72 0 012.392-5.811 6.473 6.473 0 014.867-2.998 2.996 2.996 0 011.786.522 3.36 3.36 0 011.027 1.348 8.092 8.092 0 00-2.863 2.796v-.034zm45.209 13.475c-.219.573-.455 1.145-.674 1.684a163.311 163.311 0 01-2.156 5.054 111.146 111.146 0 01-5.996 11.218c-7.176 11.487-14.638 17.298-22.352 17.584h-.91a17.983 17.983 0 01-11.2-3.84c-3.37-2.644-5.054-5.626-5.054-8.961a7.46 7.46 0 01.169-1.533c.122-.508.274-1.008.454-1.499a15.814 15.814 0 012.729-4.362c.286-.337.59-.691.926-1.028l.303-.32c.422-.404.843-.808 1.297-1.213l.22-.185c.404-.354.842-.707 1.28-1.044l.454-.354 1.449-1.061a70.294 70.294 0 0110.342-5.777 83.53 83.53 0 015.222-2.207l2.088-.825A154.915 154.915 0 01108 137.475c-.522 1.785-1.145 3.52-1.802 5.221v.051z" fill="#fff"/><path d="M51.172 120.362a1.92 1.92 0 01.471-.118l4.497-.236c1.415-.101 2.847-.151 4.262-.202.183.037.372.037.556 0a.52.52 0 00.32-.421.422.422 0 00-.236-.404.777.777 0 00-.404-.236h-8.422c.59-.926 1.28-2.004 2.173-3.267a44.125 44.125 0 013.368-4.195 27.305 27.305 0 013.925-3.621 9.242 9.242 0 014.211-1.853h.573a4.836 4.836 0 011.684.337 6.206 6.206 0 012.038 1.364l.303.101.354-.134c.166-.12.308-.268.421-.438.115-.169.211-.35.286-.539.08-.14.125-.295.135-.455a1.688 1.688 0 00-.522-1.028 2.257 2.257 0 00-1.28-.707 9.618 9.618 0 00-1.398-.101c-.564.001-1.127.046-1.684.135a16.034 16.034 0 00-3.083.825 20.102 20.102 0 00-2.914 1.381 23.19 23.19 0 00-2.56 1.685c-.87.666-1.68 1.404-2.426 2.206-.808.842-1.6 1.685-2.358 2.678-.758.994-1.516 1.921-2.223 2.898l-1.887 2.745a4.914 4.914 0 01-.707 0h-2.46a.962.962 0 00-.538.152.74.74 0 00-.287.421l-.084.32a.793.793 0 00.522.707c.32.152.624.32.91.489.247.182.468.397.657.64l.084.252a1.436 1.436 0 01-.219.624l-3.537 6.619a266.453 266.453 0 01-4.599 8.254 211.936 211.936 0 01-5.423 8.843 120.256 120.256 0 01-5.946 8.422 59.718 59.718 0 01-6.215 6.872 22.384 22.384 0 01-6.182 4.278 13.574 13.574 0 01-5.29 1.213h-.572a8.425 8.425 0 01-4.413-1.449 6.853 6.853 0 01-2.577-3.368 7.651 7.651 0 01-.387-2.443c.015-.91.14-1.814.37-2.695a14.79 14.79 0 013.049-6.165 14.242 14.242 0 014.935-3.773c.204-.086.4-.188.59-.303l.185-.168.101-.27-.168-.252h-.236c-.249.02-.493.077-.724.168a15.19 15.19 0 00-3.133 1.583 18.934 18.934 0 00-2.965 2.409c-.903.89-1.71 1.872-2.409 2.931a11.788 11.788 0 00-1.414 3.571 10.103 10.103 0 00-.27 2.274c.002.982.15 1.958.438 2.897a8.425 8.425 0 002.83 4.211 9.938 9.938 0 005.238 2.021c.387.026.775.026 1.162 0 2.113-.038 4.2-.479 6.148-1.297a23.45 23.45 0 007.075-4.699 68.286 68.286 0 007.04-7.664 147.172 147.172 0 006.637-9.315 183.1 183.1 0 005.929-9.618 321.992 321.992 0 004.935-8.607 335.782 335.782 0 013.537-6.283l.203-.202z" fill="#fff"/></svg>