<svg width="90" height="25" fill="none" xmlns="http://www.w3.org/2000/svg"><path d="M1.754 8.535a2.072 2.072 0 001.685-.943c-.017.27-.017.54 0 .808h.825c.013-.599.075-1.196.185-1.785l1.129-6.3h-.944L4.112 3.28a1.33 1.33 0 00-1.263-.825C1.451 2.455.389 3.7.103 5.419c-.286 1.718.135 3.116 1.651 3.116zM.98 5.486c.253-1.38.927-2.307 1.786-2.307s1.196.926.943 2.307c-.253 1.382-.926 2.308-1.684 2.308-.758 0-1.28-.91-1.045-2.308zm8.727-2.104a1.432 1.432 0 00-1.348-.926c-1.398 0-2.459 1.247-2.728 2.965-.27 1.718.202 3.116 1.684 3.116a2.072 2.072 0 001.684-.944c-.016.27-.016.54 0 .809h.809c.012-.6.08-1.198.202-1.785l.707-4.026h-.707l-.303.791zm-.405 2.106C9.05 6.903 8.36 7.846 7.484 7.846s-1.196-.91-.943-2.308c.253-1.398.927-2.307 1.684-2.307.758 0 1.314.876 1.079 2.257zm5.151 1.263c0-.74-.32-1.415-1.415-1.684a.893.893 0 01-.657-1.01.927.927 0 01.993-.81c.42.01.83.138 1.18.371l.202-.673a2.409 2.409 0 00-1.348-.421 1.769 1.769 0 00-1.87 1.684 1.533 1.533 0 001.213 1.684c.623.202.91.556.86 1.095a1.028 1.028 0 01-1.079.86 2.29 2.29 0 01-1.415-.506l-.219.707a2.645 2.645 0 001.685.54 1.819 1.819 0 001.87-1.837zm6.756-.59a2.442 2.442 0 00-1.685-2.476 1.483 1.483 0 01-.91-1.499A1.247 1.247 0 0119.878.974a2.369 2.369 0 011.465.539l.287-.758a2.476 2.476 0 00-1.685-.607 2.29 2.29 0 00-.91 4.396c.843.388 1.331.876 1.247 1.685a1.448 1.448 0 01-1.516 1.415 2.307 2.307 0 01-1.684-.809l-.32.826a2.695 2.695 0 002.021.791 2.409 2.409 0 002.425-2.29zm1.028 2.241h.943l.893-5.172h.943l.118-.64h-.927l.27-1.6h-.943l-.27 1.6h-.926l-.135.64h.943l-.91 5.172zm4.261.134a2.577 2.577 0 002.038-1.432v1.297h.842c-.003-.6.059-1.199.186-1.785l.707-4.026h-.943l-.472 2.712c-.236 1.415-1.364 2.425-1.954 2.425-.59 0-.758-.556-.59-1.432l.658-3.705h-.96l-.657 3.705c-.236 1.062-.068 2.24 1.145 2.24zm5.894-.001a2.139 2.139 0 001.684-.943c-.024.269-.024.54 0 .808h.826a9.45 9.45 0 01.185-1.785l1.028-6.3h-.944L34.65 3.28a1.297 1.297 0 00-1.263-.825c-1.398 0-2.443 1.246-2.729 2.964-.286 1.718.236 3.116 1.735 3.116zm-.758-3.049c.236-1.38.926-2.307 1.684-2.307.759 0 1.196.926.96 2.307-.235 1.382-.858 2.359-1.684 2.359-.825 0-1.213-.96-.96-2.359zm4.432 2.915h.944l1.027-5.811h-.943L36.066 8.4zm1.247-6.991h.926L38.44.315h-.943l-.185 1.095zm5.927 4.162c.27-1.819-.505-3.133-2.004-3.133s-2.459 1.146-2.711 2.965c-.253 1.82.505 3.133 2.004 3.133s2.46-1.145 2.712-2.965zm-3.755-.1c.218-1.533.876-2.275 1.684-2.275.809 0 1.33.792 1.095 2.308-.236 1.516-.86 2.29-1.685 2.29-.825 0-1.33-.79-1.094-2.324zm9.131-2.881h-1.111v-.32C47.74.957 48.027.856 48.583.856h.286l.118-.64a2.172 2.172 0 00-.522-.1c-1.045 0-1.685.538-1.887 2.105v.32h-.842l-.118.64h.842l-.91 5.154h.944l.91-5.154h1.111l.101-.59zM53.028.737h-.943l-.151.927h.943l.151-.927zM49.81 8.536a2.577 2.577 0 002.039-1.432c-.028.432-.028.865 0 1.297h.842c-.004-.6.058-1.199.185-1.785l.708-4.026h-.944l-.471 2.712c-.236 1.415-1.364 2.425-1.954 2.425-.59 0-.758-.556-.59-1.432l.657-3.705h-.943l-.657 3.705c-.27 1.062-.084 2.24 1.129 2.24zM51.107.737h-.944l-.151.927h.943l.152-.927zm6.113 2.747l.168-1.028a2.274 2.274 0 00-1.92 1.364c.026-.409.026-.82 0-1.23h-.825a8.168 8.168 0 01-.186 1.685l-.707 4.026h.943l.54-3.2a1.819 1.819 0 011.987-1.617zm6.538 2.678c.135-.927-.219-1.937-1.078-2.089a1.97 1.97 0 001.247-1.684A1.684 1.684 0 0062.243.368h-1.92L58.89 8.453h2.492a2.392 2.392 0 002.375-2.291zm-2.66-5.053h.858c.876 0 1.18.505 1.044 1.313-.134.809-.522 1.314-1.398 1.314h-.96l.455-2.627zm-1.13 6.468l.523-3.032h1.179c.96 0 1.246.69 1.179 1.499a1.532 1.532 0 01-1.684 1.533h-1.196zm6.178.96a2.071 2.071 0 001.685-.944 6.57 6.57 0 000 .809h.808c.013-.6.08-1.198.202-1.785l.708-4.026h-.758l-.27.791a1.432 1.432 0 00-1.347-.926c-1.398 0-2.443 1.247-2.729 2.965-.286 1.718.202 3.116 1.701 3.116zm-.758-3.049c.236-1.381.927-2.308 1.769-2.308.842 0 1.196.927.96 2.308-.236 1.381-.943 2.358-1.785 2.358-.843 0-1.196-.96-.944-2.358zM72.195.315h-.943L69.82 8.4h.944L72.195.315zm.826 8.085L74.436.315h-.926L72.078 8.4h.943zm5.305-.385l.169-.927a2.342 2.342 0 01-1.684.657c-1.028 0-1.533-.825-1.5-1.886a2.806 2.806 0 010-.489h3.167c.128-.352.202-.72.219-1.095a1.683 1.683 0 00-1.684-1.819c-1.415 0-2.645 1.381-2.712 3.369 0 1.465.724 2.695 2.19 2.695a2.408 2.408 0 001.835-.505zm-1.23-4.818a.876.876 0 01.944.994c.018.168.018.337 0 .505h-2.442c.303-.926.775-1.499 1.499-1.499zm2.632 5.205h.943l.893-5.172h.943l.118-.64h-.927l.27-1.6h-.926l-.287 1.6h-.926l-.118.64h.91l-.893 5.172zm3.196 0h.944l.892-5.172h.944l.134-.64h-.943l.27-1.6h-.944l-.27 1.6h-.926l-.134.64h.943l-.91 5.172zM3.675 18.744C3.439 20.16 2.31 21.17 1.704 21.17c-.607 0-.741-.556-.59-1.432l.657-3.706H.845L.17 19.738c-.185 1.061 0 2.24 1.213 2.24a2.594 2.594 0 002.038-1.432c-.028.432-.028.866 0 1.297h.69c.005-.6.067-1.197.186-1.785l.724-4.026h-.91l-.437 2.712zm5.493-2.846a2.594 2.594 0 00-2.055 1.414c.054-.424.082-.852.084-1.28h-.842a9.416 9.416 0 01-.185 1.685l-.725 4.042h.944l.471-2.729c.253-1.415 1.381-2.408 1.97-2.408.59 0 .759.539.59 1.415l-.656 3.722h.943l.657-3.722c.1-.977-.068-2.14-1.196-2.14zm5.927.824a1.331 1.331 0 00-1.28-.825c-1.399 0-2.443 1.246-2.73 2.964-.286 1.719.203 3.117 1.685 3.117a2.072 2.072 0 001.685-.944 6.61 6.61 0 000 .809h.825c.014-.6.075-1.196.185-1.786l1.129-6.3h-.944l-.555 2.965zm-.337 2.207c-.236 1.415-.943 2.308-1.685 2.308-.74 0-1.196-.91-.96-2.308.236-1.398.927-2.308 1.786-2.308s1.112.927.859 2.308zm9.28-5.155h-5.07l-.152.843h2.055l-1.263 7.226h.96l1.28-7.226h2.055l.135-.843zm2.53 3.05a1.415 1.415 0 00-1.347-.926c-1.398 0-2.443 1.246-2.729 2.964-.286 1.718.202 3.116 1.684 3.116a2.073 2.073 0 001.685-.943c-.025.269-.025.54 0 .808h.825a9.45 9.45 0 01.186-1.785l.707-4.026h-.707l-.304.792zm-.404 2.105c-.152 1.415-.943 2.392-1.836 2.392-.893 0-1.196-.91-.96-2.307.236-1.398.926-2.308 1.769-2.308.842 0 1.263.842 1.027 2.224zm5.423-3.031a2.576 2.576 0 00-2.055 1.414 9.942 9.942 0 000-1.28h-.826a9.42 9.42 0 01-.185 1.685l-.724 4.042h.943l.472-2.729c.252-1.415 1.38-2.408 1.97-2.408.59 0 .742.539.59 1.415l-.657 3.722h.943l.691-3.638c.219-1.061 0-2.223-1.162-2.223zm2.474.774h2.308l-3.302 4.7-.067.471h3.621l.085-.657h-2.527l3.301-4.682.068-.472h-3.386l-.1.64zm5.173 5.171h.944l1.01-5.81h-.943l-1.01 5.81zm1.412-8.068l-.185 1.078h.943l.185-1.078h-.943zm4.549 2.123a2.544 2.544 0 00-2.038 1.414v-1.28h-.842a8.168 8.168 0 01-.186 1.685l-.707 4.042h.943l.489-2.644c.235-1.415 1.364-2.409 1.953-2.409.59 0 .758.539.59 1.415l-.657 3.722h.943l.657-3.722c.236-1.061.068-2.223-1.145-2.223zm6.97-2.14l-4.009 8.085h.977l1.095-2.207h2.544l.286 2.224h.977l-1.078-8.102h-.792zM50.6 18.81l1.684-3.369.421 3.369H50.6zm8.086-.066c-.252 1.415-1.38 2.426-1.97 2.426-.59 0-.758-.556-.59-1.432l.657-3.706h-.943l-.657 3.706c-.185 1.061 0 2.24 1.196 2.24a2.577 2.577 0 002.038-1.432v1.297h.842c.005-.6.067-1.197.185-1.785l.708-4.026h-.944l-.522 2.712zm5.963-1.92a1.415 1.415 0 00-1.348-.926c-1.398 0-2.442 1.246-2.728 2.964-.287 1.718.202 3.116 1.684 3.116a1.937 1.937 0 001.5-.758v.253c-.405 2.021-.927 2.274-1.803 2.274a2.628 2.628 0 01-1.684-.64v.859a2.863 2.863 0 001.684.572c1.095 0 2.223-.471 2.712-3.217l.943-5.289h-.69l-.27.792zm-.404 2.105c-.236 1.415-.944 2.308-1.786 2.308-.842 0-1.196-.91-.943-2.307.253-1.398.926-2.308 1.684-2.308.758 0 1.28.926 1.045 2.308zm2.191-1.431a1.533 1.533 0 001.212 1.684c.624.202.91.556.86 1.095a1.028 1.028 0 01-1.112.91 2.24 2.24 0 01-1.398-.506l-.236.708a2.644 2.644 0 001.684.539 1.818 1.818 0 001.988-1.786c0-.741-.32-1.415-1.415-1.684a.893.893 0 01-.657-1.01.927.927 0 01.994-.81c.42.007.83.136 1.179.371l.27-.74a2.51 2.51 0 00-1.365-.422 1.785 1.785 0 00-2.004 1.65zm7.021-1.601a1.903 1.903 0 00-1.482.741l.505-2.88h-.994l-1.431 8.085h.724l.27-.809a1.398 1.398 0 001.347.944c1.398 0 2.442-1.264 2.729-2.982.286-1.718-.152-3.099-1.668-3.099zm.775 3.032c-.253 1.381-.927 2.308-1.785 2.308-.86 0-1.196-.927-.944-2.308.253-1.381.944-2.308 1.685-2.308.74 0 1.28.91 1.044 2.308zm5.292-.185c-.236 1.415-1.365 2.426-1.954 2.426-.59 0-.758-.556-.59-1.432l.657-3.706h-.943l-.657 3.706c-.202 1.061 0 2.24 1.196 2.24a2.577 2.577 0 002.038-1.432 10.13 10.13 0 000 1.297h.842c-.003-.6.059-1.198.186-1.785l.707-4.026h-.943l-.54 2.712zm5.287-2.846a2.274 2.274 0 00-1.92 1.364c.027-.41.027-.82 0-1.23h-.842a8.168 8.168 0 01-.185 1.685l-.708 4.042h.927l.555-3.2a1.819 1.819 0 011.92-1.685l.253-.976zm4.162.134l-.27.792a1.432 1.432 0 00-1.347-.927c-1.398 0-2.46 1.247-2.729 2.965-.27 1.718.203 3.116 1.685 3.116a1.987 1.987 0 001.499-.758v.253c-.388 2.021-.927 2.274-1.802 2.274a2.627 2.627 0 01-1.685-.64v.859a2.863 2.863 0 001.685.572c1.094 0 2.223-.471 2.712-3.217l.943-5.289h-.69zm-.64 2.897c-.253 1.415-.943 2.308-1.785 2.308-.843 0-1.196-.91-.944-2.308.253-1.398.927-2.307 1.685-2.307s1.246.926 1.044 2.307z" fill="#fff"/></svg>