<svg width="50" height="5" fill="none" xmlns="http://www.w3.org/2000/svg"><path d="M1.295 3.097L1.03 1.164H.605l.425 2.623h.296l1.356-2.623h-.44l-.947 1.933zm2.697-1.993c-.607 0-1.107.507-1.22 1.334-.114.826.234 1.41.901 1.41s1.107-.524 1.22-1.335c.114-.81-.227-1.41-.901-1.41zm.485 1.379c-.106.69-.394 1.023-.758 1.023s-.6-.348-.5-1.038c.098-.69.394-1.031.757-1.031.364 0 .6.356.5 1.046zm2.432-1.379a1.16 1.16 0 00-.917.644 4.55 4.55 0 000-.584h-.38c.002.27-.026.54-.083.804l-.318 1.811h.424l.213-1.22c.106-.637.614-1.092.879-1.092s.341.25.265.645l-.295 1.667h.424l.296-1.667c.113-.478.015-1.008-.508-1.008zM11.512.15h-.508l-1.5 1.736L9.806.15h-.44l-.644 3.631h.44l.295-1.683 1.114 1.683h.5L9.898 2 11.512.15zm.749 1.575v-.56h-.379c.002.27-.026.539-.083.803l-.319 1.811h.425l.243-1.44a.819.819 0 01.871-.758l.076-.47a1.016 1.016 0 00-.834.614zM13.719.643h.424l.084-.493h-.425l-.083.493zm-.563 3.138h.425l.462-2.615h-.424l-.463 2.615zm1.382-1.956a.705.705 0 00.545.758c.288.09.417.25.387.493a.455.455 0 01-.493.409 1.009 1.009 0 01-.636-.228l-.107.319c.218.165.485.25.758.242a.819.819 0 00.895-.803c0-.334-.152-.637-.637-.758a.394.394 0 01-.296-.455.408.408 0 01.448-.371.92.92 0 01.523.174l.098-.303a1.084 1.084 0 00-.614-.197.803.803 0 00-.871.72zM17.515.451h-.424l-.129.713h-.417l-.053.295h.417l-.402 2.32h.425l.402-2.32h.424l.053-.295h-.424l.128-.713zm.34 3.33h.425l.455-2.615h-.425l-.454 2.615zM18.41.643h.425l.083-.493h-.424l-.084.493zm2.249.461a1.16 1.16 0 00-.917.644c.012-.195.012-.39 0-.584h-.38c.002.27-.026.54-.083.804l-.318 1.811h.424l.213-1.22c.106-.637.614-1.092.879-1.092s.341.25.265.645l-.295 1.667h.424l.296-1.667c.113-.478.038-1.008-.508-1.008zm1.493-.461h.425L22.66.15h-.424l-.084.493zm-.55 3.138h.416l.463-2.615h-.425l-.454 2.615zm3.062-2.261a.645.645 0 00-.607-.416c-.629 0-1.106.568-1.228 1.341-.121.773.091 1.395.758 1.395a.925.925 0 00.758-.417 2.861 2.861 0 000 .356h.364c.008-.255.039-.508.091-.758l.318-1.819H24.8l-.136.318zm-.182.955c-.114.637-.425 1.039-.804 1.039-.379 0-.538-.41-.424-1.039.113-.629.417-1.046.796-1.046.379 0 .538.425.432 1.046zm1.946-.53c-.152 1.197.394 1.887 1.22 1.887.33 0 .649-.114.902-.326l.053-.417a1.258 1.258 0 01-.841.349c-.63 0-1.008-.538-.887-1.516S27.535.459 28.14.459a1.061 1.061 0 01.758.349l.06-.41a1.174 1.174 0 00-.856-.333c-.789.038-1.531.69-1.675 1.88zm4.282-.84a1.137 1.137 0 00-.894.6s0-.145.053-.228L30.104.15h-.425l-.644 3.631h.425l.212-1.22c.106-.637.614-1.092.887-1.092s.333.25.265.645l-.296 1.667h.402l.296-1.667c.106-.478.023-1.009-.516-1.009zm2.67.061l-.962 2.001-.258-2.001h-.425l.387 2.6-.606 1.197h.401l1.895-3.797h-.432zm2.388.362a.644.644 0 00-.607-.424c-.629 0-1.099.568-1.228 1.341s.091 1.395.758 1.395a.864.864 0 00.675-.334v.114c-.182.91-.417 1.023-.811 1.023a1.144 1.144 0 01-.758-.295v.394c.219.164.484.254.758.258.492 0 1-.213 1.22-1.448l.425-2.388h-.319l-.113.364zm-.182.947c-.106.637-.425 1.039-.804 1.039-.379 0-.538-.41-.424-1.039.114-.629.417-1.038.758-1.038.34 0 .576.417.47 1.038zm1.644-.748v-.56h-.371a3.79 3.79 0 01-.091.803l-.319 1.811h.425l.25-1.44a.812.812 0 01.864-.758l.076-.47a1.016 1.016 0 00-.834.614zm1.867 1.44l-.257-2.001h-.425l.387 2.6-.607 1.197h.402l1.895-3.797h-.44l-.955 2.001zm3.143-2.063a1.167 1.167 0 00-.924.644c.012-.195.012-.39 0-.584h-.372a4.26 4.26 0 01-.083.804l-.326 1.811h.425l.212-1.22c.106-.637.621-1.092.887-1.092.265 0 .333.25.265.645l-.296 1.667h.425l.295-1.667c.114-.478.038-1.008-.507-1.008zm1.173.722a.705.705 0 00.545.758c.288.09.41.25.387.492a.455.455 0 01-.493.41 1.017 1.017 0 01-.636-.228l-.107.319c.218.165.485.25.758.242a.811.811 0 00.895-.803c0-.334-.144-.637-.63-.758a.394.394 0 01-.295-.455.41.41 0 01.447-.372c.188.004.37.064.523.175l.099-.303a1.107 1.107 0 00-.614-.197.804.804 0 00-.88.72zm3.578-.66l-1.152 1.205.394-2.22h-.424l-.637 3.63h.417l.242-1.364.75 1.364h.455l-.773-1.38 1.19-1.235h-.462zm2.501-.002l-.121.356a.644.644 0 00-.607-.416c-.629 0-1.106.568-1.228 1.341-.121.773.091 1.395.758 1.395a.925.925 0 00.758-.417 2.861 2.861 0 000 .356h.364c.008-.255.039-.508.091-.758l.318-1.819-.333-.038zm-.303 1.311c-.114.637-.425 1.039-.804 1.039-.379 0-.538-.41-.424-1.039.114-.629.417-1.046.758-1.046.34 0 .576.425.47 1.046z" fill="#5D95CF"/></svg>