<svg width="1920" height="583" fill="none" xmlns="http://www.w3.org/2000/svg"><path fill-rule="evenodd" clip-rule="evenodd" d="M1542.85 361.489C1040.79 558.851 548.409 711.333-5.695 421.848l1.389-2.659C548.522 708.007 1039.75 556.037 1541.75 358.697c48.45-19.044 96.99-38.511 145.71-58.045 455.92-182.827 926.32-371.459 1463.81-273.21l-.54 2.952c-536.59-98.085-1006.17 90.206-1462.2 273.061-48.69 19.525-97.23 38.988-145.68 58.034z" fill="#5D95CF"/><path fill-rule="evenodd" clip-rule="evenodd" d="M1501.08 419.155C922.448 520.45 418.058 552.758-26.793 276.052l1.585-2.547C418.609 549.568 921.978 517.487 1500.56 416.2c129.85-22.732 263.49-48.949 401.08-75.942C2376.97 247.005 2899.47 144.5 3476 144.5v3c-576.21 0-1098.33 102.429-1573.62 195.673-137.64 27.001-271.34 53.232-401.3 75.982z" fill="#5D95CF"/></svg>