<svg viewBox="0 0 147 180" xmlns="http://www.w3.org/2000/svg" xmlns:xlink="http://www.w3.org/1999/xlink"><style>:root&gt;svg{display:none}:root&gt;svg:target{display:block}</style><svg viewBox="0 0 61 138" id="ballerina" xmlns="http://www.w3.org/2000/svg"><path d="M56.062 37.204c-.523 2.392-1.264 1.937-1.432 3.992-.169 2.055 1.297.977 1.684 1.903.388.926-4.345 7.142-4.632 10.258-.286 3.116 1.314-.438-1.6 4.009-2.526 3.857-12.346 5.845-12.346 5.845a27.406 27.406 0 00-11.454-.674c-2.645-2.14-1.786-8.035 2.088-12.448 4.38-5.053 10.629-5.727 14.655-7.108a30.317 30.317 0 008.876-4.464c1.971-1.263 5.053-5.625 4.194-1.313m1.6-7.395c-1.33 0-2.19 2.291-2.19 2.291a20.55 20.55 0 01-6.366 4.666 119.204 119.204 0 01-16.844 5.558c-1.684.388-1.5-.96-.539-2.29.96-1.331 2.712-2.78 3.706-2.24 4.53 2.442 11.285-2.628 9.55-6.132-1.112-2.223-1.499-2.038-2.038-1.853-.539.185-1.23.388-2.948-1.853-3.621-5.693-6.4-.572-7.815-.353a3.792 3.792 0 01-1.23 0c-.505 0-.724-.135-.707.42v.877s-2.695 2.964-2.173 3.739c.135.219.943.724 1.145 1.145.202.422-.842 4.75-5.373 7.21-1.145.623-1.179-.624-.421-2.931.404-1.432 10.713-25.62 10.713-26.192-.035-1.3.022-2.6.168-3.891a34.2 34.2 0 01.354-2.038c.118-.573-.387-.893-.27-1.6.135-1.988.472-3.37.506-4.33-.354-.151-.758 1.095-1.129 2.611 0 .236-.27 0-.471-.202-.203-.202-.337-.387-.371-.303-.488 1.095.606 1.027.337 1.988 0 .1-.37 0-.724-.22-.354-.218-.708-.336-.725-.185-.084 1.297 1.482.91 1.112 2.712 0 .185 0 .37-.101.505-.036.262-.11.518-.22.758-1.01 1.786-1.683-.539-2.475-1.431-.792-.893-1.465-1.685-.674.505.27.758.337 2.762.54 3.217.64 1.365 1.262 1.314 1.128 2.341-.253 2.005-5.811 10.612-6.586 12.044-2.51 4.53-4.245 10.83-5.559 12.7a28.28 28.28 0 00-4.21 11.47c-2.544 13.863 7.832 32.004 7.832 32.004s-6.435 19.791-7.984 22.385c-1.55 2.594-9.955 17.703-12.6 20.567-2.644 2.863-2.29 14.014-.842 13.711 1.449-.304 1.567-5.054 3.116-6.89 1.55-1.836 4.65-.791 5.138-2.695.488-1.903-2.072-2.678-1.904-4.345.169-1.668 11-11.05 12.145-14.014 1.145-2.965.539-8.422 4.127-11.269 5.726-6.737 6.468-21.661 10.308-23.43 8.22-3.79 22.217-11.285 23.261-14.873 1.045-3.587 1.398-12.902 2.038-14.334a15.598 15.598 0 001.247-6.602c-.253-6.738-1.684-8.91-3.1-8.945"/></svg><svg viewBox="0 0 132 76" id="fancy" xmlns="http://www.w3.org/2000/svg"><path d="M37.056 36.574a790.264 790.264 0 00-3.369 5.508l-.859 1.314h.623l.674-1.061a219.164 219.164 0 003.537-5.677l-.606-.084zm1.583.287l-2.51 3.992c-.572.892-1.162 1.684-1.684 2.627h.64c.522-.775 1.028-1.55 1.55-2.358.893-1.381 1.684-2.762 2.594-4.11l-.556-.1m-6.874 7.865a154.926 154.926 0 01-3.37 4.7l.506.185a156.741 156.741 0 003.369-4.615l-.506-.27zm1.145.708c-1.078 1.516-2.173 2.998-3.369 4.413l.522.168c1.112-1.38 2.173-2.83 3.234-4.312l-.455-.27m99.009-10.897a3.179 3.179 0 00-.32-1.348l-.236.118.219-.118a4.899 4.899 0 00-1.887-2.004 3.042 3.042 0 00-1.179-.472 18.53 18.53 0 00-3.84-.303 79.513 79.513 0 00-13.896 1.297c1.33-3.992 2.324-7.142 2.947-9.416.169-.286.287-.505.405-.674a3.36 3.36 0 01.353-.505v-.286a1.365 1.365 0 00-.404-.927 1.687 1.687 0 00-1.28-.488h-.202a1.43 1.43 0 00-.809.438 4.403 4.403 0 00-.556.758c-.454.42-1.061.926-1.819 1.499a101.34 101.34 0 01-2.762 2.004 62.027 62.027 0 01-3.622 2.308c-.86.516-1.762.96-2.695 1.33h-.707l-.152-.117v-.27c.022-.185.067-.366.135-.539a42.628 42.628 0 012.914-4.75 29.338 29.338 0 012.106-2.661 4.682 4.682 0 011.28-1.112h.185v-.202a1.283 1.283 0 00-.286-.724.87.87 0 00-.674-.287h-.101c-.278.056-.549.14-.809.253a25.24 25.24 0 00-1.431.606c-.451.187-.889.4-1.314.64a1.957 1.957 0 00-.674.54 1.589 1.589 0 00-.118.656v1.112c-2.021 3.672-3.369 6.182-4.009 7.53a20.755 20.755 0 01-3.604 2.425 7.58 7.58 0 01-3.504 1.112 2.764 2.764 0 01-2.341-.742 3.52 3.52 0 01-.623-2.206 7.126 7.126 0 01.842-3.369 17.419 17.419 0 012.392-3.638 3.774 3.774 0 012.779-1.685h.27v.169a2.4 2.4 0 01-.439 1.162l-.353.59-.084.185v.135a.438.438 0 00.252.42c.151.078.32.113.489.102a2.375 2.375 0 002.19-1.213 2.1 2.1 0 00.202-1.061 1.834 1.834 0 00-.523-1.381 2.139 2.139 0 00-1.482-.455 5.053 5.053 0 00-2.425.741 15.565 15.565 0 00-4.683 4.329 10.78 10.78 0 00-1.684 3.503l-.59.59c-2.56 2.308-4.53 3.369-5.76 3.369a.422.422 0 01-.287 0v-.22c.06-.544.215-1.074.455-1.566a27.13 27.13 0 011.263-2.392 43.339 43.339 0 001.988-3.89c.362-.752.59-1.562.674-2.392a1.398 1.398 0 00-.304-.96 1.178 1.178 0 00-.892-.337c-1 .109-1.965.43-2.83.943-.91.488-2.122 1.28-3.638 2.308a5.334 5.334 0 00.64-2.19 1.298 1.298 0 00-.405-1.061 1.684 1.684 0 00-1.162-.354 5.71 5.71 0 00-2.914 1.145c-.337.22-.59.388-.758.523l-.202.185-.084.084v.286l.185.186.101.1h.354a14.21 14.21 0 011.567-.96c.262-.159.554-.262.859-.303a.405.405 0 01.269 0v.22a2.066 2.066 0 01-.118.42 44.24 44.24 0 01-1.987 4.077 14.722 14.722 0 01-2.611 2.813c-2.409 2.088-4.312 3.099-5.592 3.099a2.224 2.224 0 01-1.18-.253.708.708 0 01-.32-.64c.078-.575.219-1.14.422-1.684l1.364-1.314a7.36 7.36 0 002.526-4.43.588.588 0 00-.286-.505 1.01 1.01 0 00-.455-.118 4.884 4.884 0 00-1.38-2.089 3.689 3.689 0 00-2.342-.758 9.11 9.11 0 00-6.502 3.369 9.97 9.97 0 00-3.166 6.738 3.588 3.588 0 00.606 2.257 2.325 2.325 0 001.886.791c1.7-.151 3.335-.73 4.75-1.684a1.802 1.802 0 00.64 1.516 2.848 2.848 0 001.786.488 8.42 8.42 0 004.16-1.347 20.364 20.364 0 004.01-3.133l-.742 1.28-1.078 1.836-.27.488v.253l.186.404.404.135h.32l.455-.168.472-.101.437-.135.32-.303 2.73-4.919.336-.64.674-1.263c.118-.22.219-.37.286-.489v-.134l.135-.118c.253-.202.775-.607 1.583-1.163a21.4 21.4 0 012.173-1.482 5.054 5.054 0 011.937-.74c.018.11.018.224 0 .336a7.309 7.309 0 01-.573 1.684c-.286.624-.64 1.297-1.044 2.039-.404.74-.707 1.263-.859 1.566l-.455.96c-.292.561-.51 1.016-.657 1.364a8.611 8.611 0 00-.505 1.314c-.148.43-.239.877-.27 1.33a1.466 1.466 0 00.439 1.13c.333.278.762.417 1.195.387a7.95 7.95 0 003.672-1.466 25.584 25.584 0 003.52-2.695 5.053 5.053 0 000 .523 2.847 2.847 0 001.399 2.695 5.39 5.39 0 002.998.791 10.31 10.31 0 004.632-1.162 20.313 20.313 0 003.25-2.122c.032.2.12.387.254.539a1.195 1.195 0 00.926.438c.184-.012.366-.052.539-.118a41.127 41.127 0 007.563-4.296 61.166 61.166 0 005.457-4.177c0 .337-.118.69-.202 1.112-.152.758-.354 1.684-.606 2.796a55.585 55.585 0 01-1.685 5.811 186.26 186.26 0 00-14.216 3.369c-4.615 1.28-8.691 2.762-12.97 4.396l-.74.303h-.135l-1.938.792a64.192 64.192 0 00-15.816 8.81l-.337.286-.522.454-.64.59-.488.455-.573.59c-.135.15-.287.303-.421.47-.135.17-.337.388-.505.59l-.388.472a1.75 1.75 0 00-.135.185 14.35 14.35 0 00-1.684 2.965 9.733 9.733 0 00-.758 3.773c0 3.958 2.038 7.53 6.03 10.662a18.53 18.53 0 0011.892 4.346h1.23c6.956-.438 13.373-4.262 19.235-11.387a79.812 79.812 0 0010.106-16.692l.219-.471.084-.169.253-.539c.539-1.196 1.078-2.442 1.685-3.706a133.26 133.26 0 001.684-4.244c.084-.22.168-.455.269-.674l.203-.556c.488-1.314.993-2.661 1.482-4.042a73.561 73.561 0 0114.317-1.146h3.605a2.933 2.933 0 011.684.522 1.418 1.418 0 01.505 1.18 4.226 4.226 0 01-.775 2.172l-.101.186a9.41 9.41 0 01-.758 1.044l-.219.253c-.32.37-.673.758-1.094 1.162-.097.07-.188.149-.27.236 0 0-.101 0-.135.134a1.303 1.303 0 00-.118.203.718.718 0 000 .269v.152l.236.1a.84.84 0 00.438-.134c.12-.073.233-.158.337-.253a.168.168 0 01.084 0 20.486 20.486 0 002.072-1.819c.245-.245.475-.504.691-.775v-.118a3.84 3.84 0 00.539-.64l.168-.337c.109-.279.166-.576.169-.875zM64.088 24.11a3.537 3.537 0 01-.623 1.128l-.724.86c.27-.472.505-.877.707-1.197.15-.247.325-.479.522-.69l.118-.101zm-3.099 1.162a15.159 15.159 0 00-2.341 4.396 6.3 6.3 0 01-3.554 1.432 1.145 1.145 0 01-.977-.388 1.988 1.988 0 01-.337-1.263 9.719 9.719 0 012.392-5.81 6.468 6.468 0 014.867-3 3.004 3.004 0 011.786.523 3.36 3.36 0 011.027 1.348 8.101 8.101 0 00-2.863 2.796v-.034zm45.209 13.475c-.219.573-.455 1.145-.674 1.684a163.266 163.266 0 01-2.156 5.053 110.985 110.985 0 01-5.996 11.218c-7.176 11.488-14.638 17.3-22.352 17.585h-.91a17.989 17.989 0 01-11.2-3.84c-3.37-2.644-5.054-5.626-5.054-8.96.003-.516.06-1.03.169-1.534.122-.508.274-1.008.454-1.499a15.818 15.818 0 012.729-4.362c.286-.337.59-.69.926-1.028l.303-.32c.422-.404.843-.808 1.297-1.213l.22-.185c.404-.353.842-.707 1.28-1.044l.454-.354 1.449-1.061a70.315 70.315 0 0110.342-5.778 83.893 83.893 0 015.222-2.206l2.088-.825A154.938 154.938 0 01108 33.475c-.522 1.785-1.145 3.52-1.802 5.221v.051z"/><path d="M51.172 16.362a1.96 1.96 0 01.471-.118l4.497-.235c1.415-.102 2.847-.152 4.262-.203.183.037.372.037.556 0a.523.523 0 00.32-.42.42.42 0 00-.236-.405.775.775 0 00-.404-.236h-8.422c.59-.926 1.28-2.004 2.173-3.268a44.102 44.102 0 013.368-4.194 27.263 27.263 0 013.925-3.621 9.247 9.247 0 014.211-1.853h.573c.577.01 1.147.125 1.684.337a6.199 6.199 0 012.038 1.364l.303.101.354-.134c.166-.12.308-.268.421-.438.115-.169.211-.35.286-.54a1.06 1.06 0 00.135-.454 1.684 1.684 0 00-.522-1.028 2.257 2.257 0 00-1.28-.707 9.584 9.584 0 00-1.398-.1c-.564.001-1.127.046-1.684.135a16.084 16.084 0 00-3.083.825 20.062 20.062 0 00-2.914 1.381 23.225 23.225 0 00-2.56 1.685c-.87.666-1.68 1.404-2.426 2.206-.808.842-1.6 1.685-2.358 2.678-.758.994-1.516 1.92-2.223 2.898l-1.887 2.745a5.062 5.062 0 01-.707 0h-2.46a.96.96 0 00-.538.152.742.742 0 00-.287.42l-.084.32a.792.792 0 00.522.708c.32.152.624.32.91.489.247.182.468.397.657.64l.084.252a1.432 1.432 0 01-.219.624l-3.537 6.62a265.76 265.76 0 01-4.599 8.253 211.61 211.61 0 01-5.423 8.843 120.018 120.018 0 01-5.946 8.422 59.72 59.72 0 01-6.215 6.872 22.385 22.385 0 01-6.182 4.278 13.575 13.575 0 01-5.29 1.213h-.572a8.422 8.422 0 01-4.413-1.449 6.855 6.855 0 01-2.577-3.368 7.647 7.647 0 01-.387-2.443c.015-.91.14-1.814.37-2.695a14.788 14.788 0 013.049-6.164 14.231 14.231 0 014.935-3.774c.204-.086.4-.188.59-.303l.185-.168.101-.27-.168-.252h-.236c-.249.02-.493.077-.724.168a15.161 15.161 0 00-3.133 1.583 18.95 18.95 0 00-2.965 2.41c-.903.89-1.71 1.871-2.409 2.93a11.791 11.791 0 00-1.414 3.57A10.106 10.106 0 000 54.919c.002.982.15 1.958.438 2.897a8.422 8.422 0 002.83 4.21 9.938 9.938 0 005.238 2.022c.387.026.775.026 1.162 0a16.66 16.66 0 006.148-1.297 23.447 23.447 0 007.075-4.7 68.26 68.26 0 007.04-7.663 147.305 147.305 0 006.637-9.315 183.263 183.263 0 005.929-9.618 323.09 323.09 0 004.935-8.607 335.01 335.01 0 013.537-6.283l.203-.202z"/></svg><svg viewBox="0 0 24 24" id="fb" xmlns="http://www.w3.org/2000/svg"><path d="M12 0C5.372 0 0 5.372 0 12s5.372 12 12 12 12-5.372 12-12S18.628 0 12 0zm2.842 8.293H13.04c-.214 0-.451.28-.451.655v1.302h2.256l-.341 1.857h-1.915v5.577h-2.13v-5.577h-1.93V10.25h1.93V9.158c0-1.568 1.088-2.842 2.58-2.842h1.804v1.977z"/></svg><svg viewBox="0 0 144 180" id="footer__logo" xmlns="http://www.w3.org/2000/svg"><path d="M62.155 33.483c-.47 2.153-1.137 1.744-1.288 3.593-.152 1.85 1.167.88 1.516 1.713.348.834-3.912 6.428-4.17 9.232-.257 2.805 1.183-.394-1.44 3.608-2.273 3.472-11.111 5.26-11.111 5.26a24.663 24.663 0 00-10.309-.606c-2.38-1.925-1.607-7.23 1.88-11.203 3.942-4.547 9.566-5.154 13.189-6.397a27.285 27.285 0 007.989-4.017c1.773-1.137 4.548-5.063 3.774-1.183m1.44-6.655c-1.197 0-1.97 2.062-1.97 2.062a18.494 18.494 0 01-5.73 4.2 107.274 107.274 0 01-15.16 5.002c-1.516.349-1.349-.864-.485-2.062.864-1.197 2.44-2.501 3.335-2.016 4.078 2.198 10.157-2.365 8.596-5.518-1-2.001-1.35-1.834-1.835-1.668-.485.167-1.106.349-2.653-1.667-3.259-5.124-5.76-.516-7.034-.319-.366.06-.74.06-1.106 0-.455 0-.652-.12-.637.38v.788s-2.425 2.668-1.956 3.365c.122.197.85.652 1.031 1.031.182.379-.758 4.275-4.836 6.488-1.03.561-1.06-.56-.379-2.637.364-1.29 9.642-23.058 9.642-23.573-.03-1.17.02-2.34.151-3.502.122-.819.213-1.32.319-1.835.106-.515-.349-.803-.243-1.44.122-1.789.425-3.032.455-3.896-.318-.136-.682.986-1.016 2.35 0 .212-.242 0-.424-.182s-.303-.349-.334-.273c-.44.986.546.925.304 1.789 0 .091-.334 0-.652-.197-.319-.197-.637-.303-.652-.167-.076 1.167 1.334.819 1 2.44 0 .168 0 .334-.09.456a2.485 2.485 0 01-.198.682c-.91 1.607-1.516-.485-2.228-1.289-.713-.803-1.319-1.516-.606.455.242.682.303 2.486.485 2.895.576 1.228 1.137 1.183 1.015 2.108-.227 1.804-5.23 9.55-5.927 10.839-2.259 4.078-3.82 9.747-5.003 11.43a25.453 25.453 0 00-3.79 10.323c-2.289 12.477 7.05 28.803 7.05 28.803s-5.791 17.813-7.186 20.147c-1.395 2.335-8.96 15.933-11.34 18.51-2.38 2.577-2.06 12.613-.757 12.34 1.303-.273 1.41-4.548 2.804-6.2 1.395-1.653 4.184-.713 4.624-2.426.44-1.713-1.865-2.41-1.713-3.911.152-1.501 9.9-9.945 10.93-12.613 1.03-2.668.485-7.58 3.714-10.141 5.154-6.064 5.821-19.495 9.278-21.087 7.397-3.411 19.995-10.157 20.935-13.386.94-3.229 1.258-11.612 1.834-12.9a14.039 14.039 0 001.122-5.943c-.227-6.064-1.516-8.02-2.79-8.05M22.587 176.194l-.531-3.866h-.849l.849 5.245h.591l2.714-5.245h-.88l-1.895 3.866zm5.396-3.987c-1.213 0-2.213 1.016-2.44 2.668-.228 1.652.47 2.82 1.803 2.82 1.334 0 2.214-1.046 2.441-2.668.228-1.622-.455-2.82-1.804-2.82zm.97 2.759c-.212 1.38-.788 2.047-1.516 2.047-.727 0-1.197-.698-1-2.077.197-1.38.788-2.062 1.516-2.062.727 0 1.197.713 1 2.092zm4.865-2.759a2.32 2.32 0 00-1.835 1.289 9.104 9.104 0 000-1.168h-.758a7.383 7.383 0 01-.166 1.607l-.637 3.623h.849l.424-2.44c.212-1.274 1.228-2.183 1.759-2.183.53 0 .682.5.53 1.288l-.59 3.335h.848l.591-3.335c.228-.955.03-2.016-1.015-2.016zm9.206-1.91h-1.016l-3.001 3.471.606-3.471h-.88l-1.288 7.261h.88l.59-3.365 2.23 3.365h1l-2.35-3.562 3.229-3.699zm1.498 3.154v-1.122h-.758a7.383 7.383 0 01-.166 1.607l-.637 3.623h.849l.485-2.881a1.636 1.636 0 011.743-1.515l.152-.94a2.028 2.028 0 00-1.668 1.228zm2.912-2.169h.849l.166-.985H47.6l-.166.985zm-1.121 6.276h.848l.925-5.23h-.849l-.925 5.23zm2.758-3.908a1.408 1.408 0 001.092 1.516c.576.182.834.5.773.985a.908.908 0 01-.986.819 2.036 2.036 0 01-1.273-.455l-.212.637a2.4 2.4 0 001.516.485 1.635 1.635 0 001.789-1.607c0-.667-.304-1.274-1.274-1.516a.789.789 0 01-.591-.91.823.823 0 01.575-.71.822.822 0 01.32-.033c.376.007.74.128 1.045.349l.197-.606a2.161 2.161 0 00-1.227-.394 1.605 1.605 0 00-1.744 1.44zm5.959-2.748h-.848l-.258 1.425h-.834l-.106.592h.834l-.803 4.638h.849l.803-4.638h.849l.106-.592h-.849l.258-1.425zm.68 6.656h.85l.91-5.23h-.85l-.91 5.23zm1.106-6.276h.85l.166-.985h-.849l-.167.985zm4.506.925a2.32 2.32 0 00-1.835 1.289 9.104 9.104 0 000-1.168h-.758a7.383 7.383 0 01-.166 1.607l-.637 3.623h.849l.424-2.44c.212-1.274 1.228-2.183 1.759-2.183.53 0 .682.5.53 1.288l-.591 3.335h.849l.591-3.335c.228-.955.076-2.016-1.016-2.016zm2.983-.925h.849l.166-.985h-.849l-.166.985zm-1.105 6.276h.833l.925-5.23h-.85l-.909 5.23zm6.123-4.517a1.29 1.29 0 00-1.213-.834c-1.258 0-2.213 1.137-2.455 2.683-.243 1.547.181 2.79 1.516 2.79a1.855 1.855 0 001.515-.834 5.676 5.676 0 000 .712h.728a8.82 8.82 0 01.182-1.516l.637-3.638h-.637l-.273.637zm-.364 1.91c-.227 1.273-.849 2.077-1.606 2.077-.758 0-1.077-.819-.85-2.077.228-1.258.834-2.092 1.592-2.092.758 0 1.077.849.864 2.092zm3.896-1.061c-.303 2.395.788 3.774 2.44 3.774a2.8 2.8 0 001.805-.652l.106-.833a2.517 2.517 0 01-1.683.697c-1.258 0-2.016-1.076-1.773-3.032.242-1.956 1.319-2.926 2.531-2.926a2.125 2.125 0 011.516.698l.121-.819a2.349 2.349 0 00-1.713-.667c-1.576.076-3.062 1.38-3.35 3.76zm8.565-1.683a2.27 2.27 0 00-1.788 1.198s0-.288.106-.455l.47-2.653h-.85l-1.288 7.261h.85l.424-2.44c.212-1.274 1.228-2.183 1.773-2.183.546 0 .667.5.53 1.288l-.59 3.335h.803l.591-3.335c.213-.955.046-2.016-1.03-2.016zm5.337.121l-1.926 4.002-.515-4.002h-.849l.773 5.2-1.213 2.395h.804l3.79-7.595h-.864zm4.774.728a1.29 1.29 0 00-1.212-.849c-1.259 0-2.199 1.137-2.456 2.683-.258 1.547.182 2.79 1.516 2.79a1.742 1.742 0 001.349-.667v.227c-.364 1.819-.834 2.046-1.622 2.046a2.286 2.286 0 01-1.516-.591v.789c.438.328.969.509 1.516.515.985 0 2-.424 2.44-2.895l.85-4.776h-.637l-.228.728zm-.364 1.895c-.212 1.273-.848 2.077-1.606 2.077-.758 0-1.077-.819-.85-2.077.228-1.258.834-2.077 1.517-2.077.682 0 1.152.834.94 2.077zm3.293-1.5v-1.122h-.743a7.582 7.582 0 01-.182 1.607l-.637 3.623h.85l.5-2.881a1.624 1.624 0 011.728-1.515l.151-.94a2.028 2.028 0 00-1.667 1.228zm3.727 2.879l-.516-4.002h-.849l.774 5.2-1.213 2.395h.803l3.79-7.595h-.879l-1.91 4.002zm6.29-4.123a2.332 2.332 0 00-1.849 1.289 9.104 9.104 0 000-1.168h-.743a8.42 8.42 0 01-.167 1.607l-.652 3.623h.849l.425-2.44c.212-1.274 1.243-2.183 1.773-2.183.531 0 .667.5.531 1.288l-.591 3.335h.849l.591-3.335c.227-.955.076-2.016-1.016-2.016zm2.352 1.44a1.412 1.412 0 001.092 1.516c.576.182.818.501.773.986a.914.914 0 01-.324.612.914.914 0 01-.662.206 2.03 2.03 0 01-1.273-.455l-.212.637c.434.331.97.502 1.516.485a1.609 1.609 0 001.25-.407 1.6 1.6 0 00.396-.543c.093-.206.142-.43.142-.657 0-.667-.288-1.273-1.258-1.516a.786.786 0 01-.591-.909.806.806 0 01.292-.558.837.837 0 01.283-.153.84.84 0 01.319-.032c.377.006.742.128 1.046.349l.197-.607a2.217 2.217 0 00-1.227-.394 1.609 1.609 0 00-1.759 1.44zm7.153-1.319l-2.304 2.411.788-4.442h-.849l-1.273 7.261h.834l.485-2.728 1.5 2.728h.91l-1.546-2.759 2.38-2.471h-.925zm5.002 0l-.243.713a1.294 1.294 0 00-1.213-.834c-1.258 0-2.213 1.137-2.455 2.683-.243 1.547.181 2.79 1.516 2.79a1.854 1.854 0 001.515-.834 6.04 6.04 0 000 .712h.728a8.89 8.89 0 01.182-1.516l.637-3.638-.667-.076zm-.607 2.623c-.227 1.273-.849 2.077-1.607 2.077s-1.076-.819-.849-2.077c.228-1.258.834-2.092 1.516-2.092.683 0 1.153.849.94 2.092zM64.58 73.382a1.864 1.864 0 001.517-.849 5.927 5.927 0 000 .728h.743c.012-.54.067-1.077.166-1.607l1.016-5.67h-.849l-.47 2.668a1.197 1.197 0 00-1.137-.742c-1.258 0-2.213 1.121-2.47 2.668-.259 1.546.12 2.804 1.485 2.804zm-.697-2.744c.228-1.243.834-2.077 1.607-2.077s1.077.834.85 2.077c-.228 1.243-.835 2.077-1.517 2.077-.682 0-1.152-.818-.94-2.077zm7.854-1.894a1.289 1.289 0 00-1.212-.834c-1.259 0-2.214 1.122-2.456 2.668-.243 1.546.182 2.805 1.516 2.805a1.864 1.864 0 001.516-.85 5.89 5.89 0 000 .728h.727a8.75 8.75 0 01.182-1.606l.637-3.624h-.637l-.273.713zm-.364 1.895c-.227 1.273-.849 2.122-1.637 2.122s-1.076-.818-.849-2.077c.228-1.258.834-2.076 1.516-2.076s1.183.788.97 2.03zm4.634 1.137c0-.666-.288-1.273-1.273-1.516a.803.803 0 01-.591-.909.834.834 0 01.894-.728c.378.008.746.124 1.061.334l.182-.607a2.168 2.168 0 00-1.213-.379 1.592 1.592 0 00-1.682 1.516 1.379 1.379 0 001.091 1.516c.561.182.819.5.773.986a.925.925 0 01-.97.773 2.061 2.061 0 01-1.273-.455l-.197.637c.434.33.97.502 1.516.485a1.637 1.637 0 001.682-1.653zm6.081-.531a2.198 2.198 0 00-1.516-2.229 1.334 1.334 0 01-.819-1.349 1.122 1.122 0 011.137-1.091c.482.008.947.179 1.32.485l.257-.683a2.229 2.229 0 00-1.516-.545 2.061 2.061 0 00-.819 3.956c.758.349 1.198.789 1.122 1.516a1.304 1.304 0 01-1.364 1.274 2.077 2.077 0 01-1.516-.728l-.288.743a2.425 2.425 0 001.82.712 2.168 2.168 0 002.182-2.061zm.927 2.015h.849l.803-4.654h.849l.106-.576h-.834l.243-1.44h-.849l-.243 1.44h-.833l-.122.576h.85l-.82 4.654zm3.832.122a2.32 2.32 0 001.835-1.288v1.167h.757a7.38 7.38 0 01.167-1.607l.637-3.623h-.849l-.425 2.44c-.212 1.274-1.227 2.184-1.758 2.184-.53 0-.682-.5-.53-1.289l.59-3.335h-.863l-.592 3.335c-.212.955-.06 2.016 1.031 2.016zm5.306 0a1.927 1.927 0 001.515-.849 3.965 3.965 0 000 .728h.743a8.5 8.5 0 01.167-1.607l.925-5.67h-.85l-.47 2.668a1.168 1.168 0 00-1.136-.742c-1.258 0-2.198 1.121-2.456 2.668-.258 1.546.212 2.804 1.562 2.804zm-.683-2.744c.213-1.243.834-2.077 1.516-2.077s1.077.834.864 2.077c-.212 1.243-.773 2.123-1.516 2.123-.742 0-1.091-.864-.864-2.123zm3.99 2.623h.85l.925-5.23h-.85l-.924 5.23zm1.118-6.291h.834l.182-.986h-.85l-.166.986zm5.339 3.744c.242-1.637-.455-2.82-1.804-2.82-1.35 0-2.214 1.031-2.441 2.669-.227 1.637.455 2.82 1.804 2.82s2.213-1.032 2.441-2.669zm-3.38-.09c.196-1.38.787-2.047 1.515-2.047.728 0 1.198.712.985 2.077-.212 1.364-.773 2.061-1.516 2.061-.742 0-1.197-.712-.985-2.092zm8.218-2.591h-1v-.288c.212-1.182.47-1.273.97-1.273h.258l.106-.576a1.969 1.969 0 00-.47-.091c-.94 0-1.516.485-1.698 1.895v.288h-.758l-.106.576h.758l-.819 4.639h.849l.819-4.64h1l.091-.53zm3.969-1.67h-.849l-.137.834h.849l.137-.834zm-2.892 7.019a2.322 2.322 0 001.834-1.288 9.093 9.093 0 000 1.167h.758a7.295 7.295 0 01.167-1.607l.636-3.623h-.849l-.424 2.44c-.212 1.274-1.228 2.184-1.759 2.184-.53 0-.682-.5-.53-1.289l.591-3.335h-.849l-.591 3.335c-.243.955-.076 2.016 1.016 2.016zm1.165-7.019h-.849l-.136.834h.849l.136-.834zm5.501 2.472l.151-.925a2.047 2.047 0 00-1.728 1.228 8.514 8.514 0 000-1.107h-.743a7.29 7.29 0 01-.166 1.516l-.637 3.624h.849l.485-2.88a1.638 1.638 0 011.789-1.456zm5.883 2.411c.121-.833-.197-1.743-.97-1.88a1.774 1.774 0 001.122-1.515 1.518 1.518 0 00-1.516-1.82h-1.728L116 73.309h2.244a2.154 2.154 0 002.137-2.062zm-2.395-4.547h.773c.788 0 1.061.454.94 1.182s-.47 1.183-1.258 1.183h-.864l.409-2.365zm-1.016 5.82l.47-2.728h1.061c.864 0 1.122.622 1.061 1.35a1.373 1.373 0 01-.946 1.316c-.183.06-.377.082-.569.063h-1.077zm5.565.864a1.867 1.867 0 001.516-.85 5.89 5.89 0 000 .728h.727c.012-.54.073-1.078.182-1.606l.637-3.624h-.682l-.243.713a1.293 1.293 0 00-1.212-.834c-1.259 0-2.199 1.122-2.456 2.668-.258 1.546.182 2.805 1.531 2.805zm-.682-2.744c.212-1.243.833-2.077 1.591-2.077s1.077.834.865 2.077c-.213 1.243-.849 2.122-1.607 2.122s-1.077-.864-.849-2.122zm6.124-4.655h-.849l-1.288 7.277h.849l1.288-7.277zm.743 7.276l1.273-7.276h-.833l-1.289 7.277h.849zm4.774-.347l.152-.834a2.113 2.113 0 01-1.516.591c-.925 0-1.38-.743-1.349-1.698a2.482 2.482 0 010-.44h2.85c.115-.316.181-.648.197-.985a1.523 1.523 0 00-.399-1.15 1.515 1.515 0 00-1.117-.487c-1.274 0-2.38 1.243-2.441 3.032 0 1.319.652 2.426 1.971 2.426a2.167 2.167 0 001.652-.455zm-1.106-4.336a.785.785 0 01.818.545.768.768 0 01.03.35 2.16 2.16 0 010 .454h-2.198c.273-.833.698-1.349 1.35-1.349zm2.365 4.683h.849l.804-4.654h.849l.106-.576h-.834l.243-1.44h-.834l-.258 1.44h-.834l-.106.576h.819l-.804 4.654zm2.883 0h.849l.803-4.654h.849l.121-.576h-.849l.243-1.44h-.849l-.242 1.44h-.834l-.122.576h.849l-.818 4.654zm-71.33 9.31c-.212 1.273-1.228 2.183-1.773 2.183-.546 0-.667-.5-.531-1.289l.591-3.335h-.834l-.606 3.335c-.167.955 0 2.016 1.092 2.016a2.334 2.334 0 001.834-1.288 9.093 9.093 0 000 1.167h.621a8.5 8.5 0 01.167-1.607l.652-3.623H66.7l-.394 2.44zm4.943-2.562a2.335 2.335 0 00-1.85 1.273c.049-.382.074-.767.076-1.152h-.758a8.475 8.475 0 01-.167 1.516l-.652 3.638h.85l.424-2.456c.227-1.273 1.243-2.167 1.773-2.167.531 0 .683.485.531 1.273l-.591 3.35h.849l.591-3.35c.091-.88-.06-1.925-1.076-1.925zm5.335.742a1.198 1.198 0 00-1.152-.743c-1.258 0-2.198 1.122-2.456 2.668-.257 1.547.182 2.805 1.516 2.805a1.865 1.865 0 001.516-.85 5.929 5.929 0 000 .729h.743c.012-.54.068-1.077.167-1.607l1.016-5.67h-.85l-.5 2.668zm-.303 1.986c-.212 1.273-.849 2.077-1.516 2.077s-1.076-.819-.864-2.077c.212-1.258.834-2.077 1.607-2.077s1 .834.773 2.077zm8.356-4.638h-4.563l-.136.758h1.849l-1.137 6.503h.864l1.152-6.503h1.85l.12-.758zm2.273 2.744a1.273 1.273 0 00-1.212-.834c-1.258 0-2.198 1.122-2.456 2.668s.182 2.805 1.516 2.805a1.865 1.865 0 001.516-.85 3.965 3.965 0 000 .728h.743a8.42 8.42 0 01.167-1.607l.636-3.623h-.636l-.273.713zm-.363 1.895c-.137 1.273-.85 2.152-1.653 2.152s-1.076-.818-.864-2.077c.213-1.258.834-2.076 1.592-2.076.758 0 1.137.758.925 2zm4.88-2.729a2.32 2.32 0 00-1.85 1.273 8.894 8.894 0 000-1.152h-.743a8.475 8.475 0 01-.166 1.516l-.652 3.638h.849l.424-2.456c.227-1.273 1.243-2.167 1.774-2.167.53 0 .667.485.53 1.273l-.591 3.35h.849l.621-3.274c.198-.955 0-2.001-1.045-2.001zm2.227.697h2.077l-2.971 4.23-.06.424h3.258l.076-.591H93.76l2.972-4.215.06-.424h-3.047l-.09.576zm4.655 4.654h.849l.909-5.23h-.849l-.91 5.23zm1.271-7.261l-.166.97h.849l.167-.97h-.85zm4.097 1.91a2.29 2.29 0 00-1.834 1.273V80.13h-.758a7.359 7.359 0 01-.167 1.516l-.637 3.638h.849l.44-2.38c.212-1.273 1.228-2.168 1.758-2.168.531 0 .682.486.531 1.274l-.591 3.35h.849l.591-3.35c.212-.955.06-2.001-1.031-2.001zm6.275-1.926l-3.608 7.277h.879l.985-1.986h2.289l.258 2h.879l-.97-7.291h-.712zm-1.41 4.548l1.516-3.032.379 3.032h-1.895zm7.276-.06c-.227 1.273-1.243 2.183-1.774 2.183-.53 0-.682-.5-.53-1.289l.591-3.335h-.849l-.591 3.335c-.167.955 0 2.016 1.076 2.016a2.314 2.314 0 001.835-1.288v1.167h.758a8.5 8.5 0 01.166-1.607l.637-3.623h-.849l-.47 2.44zm5.366-1.728a1.275 1.275 0 00-1.213-.834c-1.258 0-2.198 1.122-2.456 2.668s.182 2.805 1.516 2.805a1.738 1.738 0 001.349-.683v.228c-.364 1.819-.834 2.046-1.622 2.046a2.366 2.366 0 01-1.516-.576v.773c.438.329.969.51 1.516.516.985 0 2.001-.425 2.441-2.896l.849-4.76h-.622l-.242.713zm-.364 1.895c-.212 1.273-.849 2.077-1.607 2.077s-1.076-.82-.849-2.077c.227-1.259.834-2.077 1.516-2.077s1.152.834.94 2.077zm1.974-1.29a1.382 1.382 0 001.091 1.516c.561.182.819.5.773.986a.92.92 0 01-1 .818 2.015 2.015 0 01-1.258-.454l-.212.636c.434.331.969.502 1.515.485a1.637 1.637 0 001.789-1.606c0-.668-.288-1.274-1.273-1.517a.8.8 0 01-.591-.909.83.83 0 01.894-.728 1.95 1.95 0 011.061.334l.243-.667a2.26 2.26 0 00-1.228-.38 1.61 1.61 0 00-1.63.86 1.61 1.61 0 00-.174.626zm6.319-1.44a1.712 1.712 0 00-1.334.667l.455-2.592h-.895l-1.288 7.277h.652l.242-.728a1.262 1.262 0 001.213.849c1.258 0 2.198-1.137 2.456-2.683.257-1.547-.137-2.79-1.501-2.79zm.697 2.729c-.227 1.243-.833 2.077-1.607 2.077-.773 0-1.076-.834-.849-2.077.228-1.243.849-2.077 1.516-2.077s1.153.819.94 2.077zm4.761-.166c-.213 1.273-1.228 2.183-1.759 2.183-.53 0-.682-.5-.53-1.289l.591-3.335h-.849l-.591 3.335c-.182.955 0 2.016 1.076 2.016a2.318 2.318 0 001.834-1.288 9.093 9.093 0 000 1.167h.758a7.418 7.418 0 01.167-1.607l.637-3.623h-.849l-.485 2.44zm4.762-2.562a2.049 2.049 0 00-1.729 1.228 8.513 8.513 0 000-1.107h-.758a7.29 7.29 0 01-.166 1.516l-.637 3.638h.834l.5-2.88a1.638 1.638 0 011.728-1.516l.228-.88zm3.742.122l-.243.712a1.29 1.29 0 00-1.213-.834c-1.258 0-2.213 1.122-2.456 2.668-.242 1.546.182 2.804 1.516 2.804a1.793 1.793 0 001.35-.682v.228c-.349 1.819-.834 2.046-1.622 2.046a2.362 2.362 0 01-1.516-.576v.773c.437.329.968.51 1.516.516.985 0 2.001-.425 2.44-2.896l.849-4.76h-.621zm-.576 2.607c-.228 1.273-.849 2.076-1.607 2.076s-1.077-.818-.849-2.076c.227-1.259.834-2.077 1.516-2.077s1.121.834.94 2.077zM33.352 126.516a695.8 695.8 0 00-3.032 4.957l-.773 1.182h.56l.607-.955a196.816 196.816 0 003.184-5.109l-.546-.075zm1.425.257l-2.259 3.593c-.515.804-1.046 1.516-1.516 2.365h.576c.47-.697.925-1.395 1.395-2.122.803-1.243 1.516-2.486 2.334-3.699l-.5-.091m-6.185 7.079a138.188 138.188 0 01-3.032 4.23l.455.167a141.065 141.065 0 003.031-4.154l-.454-.243zm1.03.637c-.97 1.364-1.955 2.699-3.031 3.972l.47.152c1-1.244 1.955-2.547 2.91-3.881l-.41-.243M12.55 123.41zm106.146 1.319a2.841 2.841 0 00-.288-1.213l-.212.107.197-.107a4.42 4.42 0 00-1.698-1.804 2.74 2.74 0 00-1.061-.424 16.685 16.685 0 00-3.456-.273c-4.195.022-8.38.412-12.507 1.167 1.198-3.592 2.092-6.427 2.653-8.474.152-.257.258-.455.364-.606.092-.161.198-.313.318-.455v-.258a1.224 1.224 0 00-.364-.833 1.51 1.51 0 00-1.152-.44h-.182a1.286 1.286 0 00-.727.394 3.976 3.976 0 00-.501.682 21.84 21.84 0 01-1.637 1.35 92.16 92.16 0 01-2.486 1.803 56.228 56.228 0 01-3.26 2.077c-.774.465-1.585.865-2.425 1.198h-.636l-.137-.106v-.243c.02-.166.06-.329.121-.485a38.415 38.415 0 012.623-4.275 26.493 26.493 0 011.895-2.395c.32-.401.71-.74 1.152-1.001h.167v-.181a1.151 1.151 0 00-.258-.652.78.78 0 00-.606-.258h-.091c-.25.05-.494.126-.728.227-.318.122-.758.304-1.288.546-.406.168-.8.361-1.183.576-.236.115-.443.28-.606.485a1.43 1.43 0 00-.106.592v1c-1.82 3.305-3.032 5.564-3.608 6.776a18.677 18.677 0 01-3.245 2.183 6.827 6.827 0 01-3.153 1.001 2.48 2.48 0 01-2.107-.667 3.17 3.17 0 01-.56-1.986 6.413 6.413 0 01.757-3.032 15.672 15.672 0 012.153-3.274 3.396 3.396 0 012.501-1.516h.243v.151a2.15 2.15 0 01-.394 1.046l-.319.531-.075.167v.121a.393.393 0 00.227.379.86.86 0 00.44.091 2.141 2.141 0 001.97-1.092 1.88 1.88 0 00.182-.955 1.656 1.656 0 00-.47-1.243 1.928 1.928 0 00-1.334-.409 4.55 4.55 0 00-2.183.667 14.004 14.004 0 00-4.214 3.896 9.7 9.7 0 00-1.516 3.153l-.53.531c-2.305 2.076-4.078 3.032-5.185 3.032a.38.38 0 01-.258 0v-.198c.055-.49.193-.966.41-1.409.342-.736.722-1.455 1.136-2.153a39.042 39.042 0 001.79-3.502 6.442 6.442 0 00.606-2.153 1.261 1.261 0 00-.273-.864 1.067 1.067 0 00-.804-.303c-.9.099-1.768.388-2.547.849-.818.44-1.91 1.152-3.274 2.077a4.79 4.79 0 00.576-1.971 1.165 1.165 0 00-.364-.955 1.517 1.517 0 00-1.046-.318 5.128 5.128 0 00-2.622 1.031c-.303.197-.53.348-.682.47l-.182.166-.076.076v.258l.166.167.092.091h.318c.45-.319.922-.607 1.41-.864.236-.144.499-.237.773-.273a.36.36 0 01.242 0v.197a1.888 1.888 0 01-.106.379 39.835 39.835 0 01-1.789 3.668 13.22 13.22 0 01-2.35 2.532c-2.167 1.88-3.88 2.789-5.032 2.789a1.996 1.996 0 01-1.061-.227.64.64 0 01-.288-.576 7.02 7.02 0 01.379-1.516l1.227-1.183a6.623 6.623 0 002.274-3.986.533.533 0 00-.257-.455.9.9 0 00-.41-.106 4.398 4.398 0 00-1.243-1.88 3.316 3.316 0 00-2.107-.682 8.195 8.195 0 00-5.851 3.032 8.972 8.972 0 00-2.85 6.063c-.05.719.142 1.434.545 2.032a2.102 2.102 0 001.698.712 9.096 9.096 0 004.275-1.516 1.622 1.622 0 00.576 1.365 2.562 2.562 0 001.607.439 7.574 7.574 0 003.745-1.213 18.313 18.313 0 003.608-2.819l-.668 1.152-.97 1.652-.242.44v.227l.166.364.364.121h.288l.41-.151.424-.091.394-.121.288-.273 2.456-4.427.303-.576.607-1.137c.106-.197.197-.333.257-.439v-.122l.122-.106a24.34 24.34 0 011.425-1.046c.624-.484 1.277-.93 1.955-1.334a4.549 4.549 0 011.744-.667.95.95 0 010 .303 6.56 6.56 0 01-.516 1.516 30.9 30.9 0 01-.94 1.835c-.364.667-.637 1.136-.773 1.409l-.41.864c-.262.506-.459.915-.59 1.228a7.753 7.753 0 00-.455 1.183 4.638 4.638 0 00-.243 1.197 1.322 1.322 0 00.394 1.016c.3.251.686.376 1.077.349a7.161 7.161 0 003.304-1.319 22.977 22.977 0 003.169-2.426 4.548 4.548 0 000 .47 2.563 2.563 0 001.258 2.426c.81.496 1.749.744 2.698.712a9.273 9.273 0 004.17-1.046 18.267 18.267 0 002.925-1.91c.028.18.107.349.227.485a1.068 1.068 0 00.834.394c.166-.01.33-.046.485-.106a37 37 0 006.807-3.865 55.295 55.295 0 004.912-3.76c0 .303-.107.622-.182 1.001a106.72 106.72 0 01-.546 2.516 49.959 49.959 0 01-1.516 5.23c-4.366.849-8.64 1.88-12.795 3.032-4.153 1.152-7.822 2.486-11.672 3.957l-.667.273h-.122l-1.743.712a57.77 57.77 0 00-14.235 7.928l-.303.258-.47.409-.576.531-.44.409-.515.531c-.121.136-.258.273-.379.424-.121.152-.303.349-.455.531l-.348.424a1.564 1.564 0 00-.122.167 12.926 12.926 0 00-1.516 2.668 8.762 8.762 0 00-.682 3.396c0 3.562 1.834 6.776 5.427 9.596a16.678 16.678 0 0010.703 3.911h1.106c6.261-.394 12.037-3.835 17.313-10.248a71.85 71.85 0 009.095-15.023l.197-.424.076-.152.227-.485c.486-1.076.97-2.198 1.516-3.335a118.262 118.262 0 001.516-3.82c.076-.197.152-.41.243-.607l.182-.5c.44-1.182.894-2.395 1.334-3.638a66.176 66.176 0 0112.885-1.031h3.245a2.636 2.636 0 011.516.47 1.279 1.279 0 01.454 1.061 3.803 3.803 0 01-.697 1.956l-.091.166a8.527 8.527 0 01-.682.94l-.197.228a15.3 15.3 0 01-.986 1.046 1.742 1.742 0 00-.242.212s-.091 0-.121.121a1.143 1.143 0 00-.107.182.662.662 0 000 .243v.136l.213.091a.757.757 0 00.394-.121 1.97 1.97 0 00.303-.228.163.163 0 01.076 0c.657-.503 1.28-1.05 1.864-1.637a8.06 8.06 0 00.622-.697v-.106c.182-.174.345-.367.485-.576l.152-.303a2.22 2.22 0 00.151-.789zM57.679 115.3c-.123.37-.313.714-.56 1.016l-.652.773c.242-.425.454-.788.636-1.076.135-.223.293-.432.47-.622l.106-.091zm-2.789 1.046a13.653 13.653 0 00-2.107 3.957 5.67 5.67 0 01-3.199 1.288 1.035 1.035 0 01-.88-.348 1.79 1.79 0 01-.302-1.137 8.744 8.744 0 012.152-5.23 5.818 5.818 0 014.382-2.699 2.697 2.697 0 011.606.47c.407.319.725.736.925 1.213a7.29 7.29 0 00-2.577 2.516v-.03zm40.688 12.128c-.197.515-.41 1.03-.606 1.516a146.965 146.965 0 01-1.94 4.547 99.882 99.882 0 01-5.397 10.097c-6.458 10.338-13.174 15.568-20.117 15.826h-.819a16.192 16.192 0 01-10.08-3.456c-3.033-2.38-4.549-5.064-4.549-8.065.003-.464.054-.926.152-1.38.11-.457.247-.907.41-1.349a14.234 14.234 0 012.455-3.926c.258-.303.53-.622.834-.925l.273-.288c.379-.364.758-.728 1.167-1.091l.197-.167c.364-.318.758-.637 1.152-.94l.41-.318 1.303-.955a63.255 63.255 0 019.308-5.2 75.919 75.919 0 014.7-1.986l1.88-.743a139.466 139.466 0 0120.89-5.942c-.47 1.607-1.032 3.168-1.623 4.699v.046z"/><path d="M46.054 108.327c.137-.053.28-.089.425-.106l4.047-.212a106.96 106.96 0 013.836-.182c.165.032.335.032.5 0a.47.47 0 00.288-.379.376.376 0 00-.212-.364.69.69 0 00-.364-.212h-7.58a69.508 69.508 0 011.956-2.941 39.622 39.622 0 013.032-3.775 24.546 24.546 0 013.532-3.26 8.322 8.322 0 013.79-1.667h.515c.52.01 1.033.112 1.516.303.687.284 1.31.7 1.834 1.228l.273.091.319-.121c.149-.107.277-.24.379-.394.103-.152.19-.315.257-.485a.956.956 0 00.122-.41 1.516 1.516 0 00-.47-.924 2.031 2.031 0 00-1.152-.637 8.615 8.615 0 00-1.259-.09c-.507 0-1.014.04-1.516.12a14.48 14.48 0 00-2.774.743 18.06 18.06 0 00-2.622 1.243c-.801.454-1.57.96-2.305 1.516-.782.6-1.512 1.264-2.182 1.986-.728.758-1.44 1.516-2.123 2.41-.682.895-1.364 1.729-2 2.608l-1.699 2.471a4.51 4.51 0 01-.636 0h-2.214a.867.867 0 00-.485.136.667.667 0 00-.258.379l-.075.288a.712.712 0 00.47.637c.288.136.56.288.818.44.223.164.422.358.591.576l.076.227c-.02.2-.088.392-.197.561l-3.183 5.958a240.133 240.133 0 01-4.139 7.428 190.66 190.66 0 01-4.881 7.958 107.876 107.876 0 01-5.351 7.58 53.65 53.65 0 01-5.594 6.185 20.154 20.154 0 01-5.564 3.851 12.23 12.23 0 01-4.76 1.091H8.52a7.575 7.575 0 01-3.972-1.303 6.172 6.172 0 01-2.32-3.032 6.885 6.885 0 01-.348-2.198 10.22 10.22 0 01.333-2.426 13.31 13.31 0 012.744-5.548 12.812 12.812 0 014.442-3.396c.183-.078.36-.169.53-.273l.167-.152.091-.242-.151-.227h-.213a2.283 2.283 0 00-.652.151c-.991.364-1.938.843-2.82 1.425a17.04 17.04 0 00-2.667 2.168 16.308 16.308 0 00-2.168 2.638 10.61 10.61 0 00-1.273 3.213A9.102 9.102 0 000 143.027c.001.884.134 1.763.394 2.607a7.578 7.578 0 002.547 3.79 8.939 8.939 0 004.715 1.819c.348.024.697.024 1.046 0 1.901-.034 3.78-.43 5.533-1.167a21.104 21.104 0 006.367-4.229 61.478 61.478 0 006.336-6.898 132.58 132.58 0 005.973-8.383c1.96-2.981 3.74-5.867 5.336-8.656a289.57 289.57 0 004.442-7.747 305.285 305.285 0 013.184-5.654l.181-.182z"/></svg><svg viewBox="0 0 125 120" id="header__logo" xmlns="http://www.w3.org/2000/svg"><path d="M44.833 22.383c-.315 1.439-.761 1.165-.863 2.401-.101 1.237.781.588 1.015 1.145.233.558-2.618 4.297-2.79 6.172-.173 1.874.79-.264-.965 2.412-1.522 2.32-7.437 3.516-7.437 3.516a16.53 16.53 0 00-6.9-.405c-1.594-1.287-1.076-4.834 1.258-7.49 2.638-3.04 6.403-3.445 8.828-4.276a18.273 18.273 0 005.347-2.685c1.188-.76 3.044-3.385 2.527-.79m.964-4.45c-.802 0-1.32 1.38-1.32 1.38a12.377 12.377 0 01-3.835 2.806 71.856 71.856 0 01-10.147 3.344c-1.015.233-.903-.577-.325-1.378.579-.8 1.634-1.672 2.233-1.348 2.73 1.47 6.798-1.58 5.753-3.688-.67-1.338-.903-1.226-1.228-1.115-.324.111-.74.233-1.775-1.115-2.182-3.425-3.856-.344-4.709-.213-.245.04-.495.04-.74 0-.305 0-.437-.08-.427.254v.527s-1.623 1.783-1.309 2.25c.082.131.569.435.69.689.122.253-.507 2.857-3.236 4.337-.69.375-.71-.375-.254-1.764.243-.86 6.453-15.413 6.453-15.757-.02-.782.014-1.564.102-2.341.081-.547.142-.882.213-1.226.071-.345-.233-.538-.162-.963.08-1.196.284-2.027.304-2.604-.213-.092-.457.658-.68 1.57 0 .142-.162 0-.284-.121-.122-.122-.203-.233-.223-.183-.294.659.365.618.203 1.196 0 .06-.223 0-.437-.132-.213-.131-.426-.202-.436-.111-.05.78.893.547.67 1.631 0 .112 0 .223-.061.304a1.664 1.664 0 01-.132.456c-.609 1.074-1.015-.324-1.492-.861-.476-.537-.882-1.013-.405.304.162.456.202 1.662.324 1.936.386.82.761.79.68 1.408-.152 1.206-3.5 6.384-3.967 7.246-1.512 2.726-2.557 6.516-3.349 7.64a17.003 17.003 0 00-2.537 6.901c-1.532 8.34 4.719 19.254 4.719 19.254s-3.877 11.907-4.81 13.468c-.933 1.56-5.997 10.65-7.59 12.373-1.593 1.723-1.38 8.431-.507 8.249.872-.183.943-3.04 1.877-4.145.933-1.104 2.8-.476 3.095-1.621.294-1.145-1.248-1.611-1.147-2.615.102-1.003 6.626-6.647 7.316-8.43.69-1.784.325-5.068 2.486-6.78 3.45-4.054 3.897-13.032 6.21-14.096 4.952-2.28 13.384-6.79 14.013-8.948.63-2.159.842-7.763 1.228-8.624a9.373 9.373 0 00.75-3.972c-.151-4.054-1.014-5.36-1.866-5.381m78.54 63.472a2.99 2.99 0 00-.302-1.27l-.222.111.206-.11a4.419 4.419 0 00-.746-1.064 4.597 4.597 0 00-1.032-.826 2.869 2.869 0 00-1.111-.444 17.46 17.46 0 00-3.619-.286 74.92 74.92 0 00-13.095 1.222c1.254-3.761 2.19-6.73 2.778-8.873.159-.27.27-.476.381-.634.096-.169.208-.328.333-.477v-.27a1.284 1.284 0 00-.381-.872 1.579 1.579 0 00-1.206-.46h-.191c-.292.05-.56.194-.762.412a4.143 4.143 0 00-.523.714c-.429.397-1 .873-1.715 1.413a95.003 95.003 0 01-2.603 1.889 58.752 58.752 0 01-3.413 2.174c-.81.486-1.66.906-2.54 1.254h-.665l-.143-.11v-.255c.02-.174.064-.344.127-.508a40.194 40.194 0 012.746-4.476 27.766 27.766 0 011.984-2.508c.336-.42.744-.774 1.207-1.047h.174v-.19a1.207 1.207 0 00-.27-.683.809.809 0 00-.634-.27h-.096a3.8 3.8 0 00-.762.238 23.19 23.19 0 00-1.349.571 11.43 11.43 0 00-1.238.604 1.84 1.84 0 00-.635.507c-.08.197-.118.407-.11.62v1.047c-1.906 3.46-3.175 5.826-3.779 7.095a19.558 19.558 0 01-3.396 2.286 7.143 7.143 0 01-3.302 1.048 2.604 2.604 0 01-2.206-.699 3.317 3.317 0 01-.588-2.08 6.713 6.713 0 01.794-3.174 16.414 16.414 0 012.254-3.428 3.556 3.556 0 012.619-1.588h.254v.16a2.253 2.253 0 01-.413 1.094l-.333.556-.08.175v.127a.412.412 0 00.239.396.889.889 0 00.46.096 2.238 2.238 0 002.063-1.143c.15-.311.216-.656.19-1a1.732 1.732 0 00-.491-1.302 2.016 2.016 0 00-1.397-.428 4.762 4.762 0 00-2.286.698 14.665 14.665 0 00-4.412 4.08 10.158 10.158 0 00-1.588 3.3l-.555.556c-2.413 2.175-4.27 3.175-5.429 3.175a.397.397 0 01-.27 0v-.206a4.493 4.493 0 01.429-1.477c.359-.77.756-1.522 1.19-2.253a40.862 40.862 0 001.873-3.667 6.746 6.746 0 00.635-2.254 1.32 1.32 0 00-.285-.905 1.11 1.11 0 00-.842-.317 6.65 6.65 0 00-2.666.889c-.858.46-2 1.206-3.429 2.174.348-.636.554-1.34.603-2.063a1.222 1.222 0 00-.38-1 1.587 1.587 0 00-1.096-.334 5.376 5.376 0 00-2.746 1.08 9.968 9.968 0 00-.714.492l-.19.174-.08.08v.27l.175.174.095.095h.333c.472-.333.965-.635 1.476-.904.248-.15.523-.248.81-.286a.38.38 0 01.254 0v.206a1.96 1.96 0 01-.111.397 41.718 41.718 0 01-1.873 3.841 13.845 13.845 0 01-2.46 2.651c-2.27 1.969-4.064 2.92-5.27 2.92a2.095 2.095 0 01-1.112-.237.666.666 0 01-.301-.603 7.35 7.35 0 01.397-1.588l1.285-1.238a6.937 6.937 0 002.381-4.174.556.556 0 00-.27-.477.951.951 0 00-.428-.11 4.604 4.604 0 00-1.302-1.969 3.476 3.476 0 00-2.206-.714 8.59 8.59 0 00-6.127 3.174 9.397 9.397 0 00-2.984 6.35 3.381 3.381 0 00.571 2.126 2.19 2.19 0 001.778.747 9.523 9.523 0 004.476-1.588 1.698 1.698 0 00.603 1.429 2.682 2.682 0 001.683.46 7.936 7.936 0 003.92-1.27 19.187 19.187 0 003.778-2.952l-.698 1.206-1.016 1.73-.254.46v.239l.175.38.38.128h.302l.429-.159.444-.095.413-.127.301-.286 2.572-4.635.317-.603.635-1.19c.111-.207.207-.35.27-.46v-.128l.127-.11c.238-.191.73-.572 1.492-1.096a20.154 20.154 0 012.048-1.397 4.76 4.76 0 011.825-.698 1 1 0 010 .317 6.89 6.89 0 01-.54 1.587c-.27.588-.603 1.223-.984 1.921-.38.699-.666 1.19-.81 1.476l-.428.905c-.275.53-.481.958-.619 1.286a8.122 8.122 0 00-.476 1.238c-.14.405-.225.826-.254 1.254a1.383 1.383 0 00.413 1.063c.314.263.718.394 1.127.365a7.492 7.492 0 003.46-1.38 24.114 24.114 0 003.318-2.54 4.751 4.751 0 000 .492 2.681 2.681 0 001.317 2.54 5.08 5.08 0 002.825.746 9.714 9.714 0 004.365-1.096 19.137 19.137 0 003.064-2 1 1 0 00.238.508 1.127 1.127 0 00.873.413c.174-.011.345-.049.508-.111a38.785 38.785 0 007.127-4.048 57.666 57.666 0 005.143-3.936c0 .317-.111.65-.191 1.047a102.12 102.12 0 01-.571 2.635A52.35 52.35 0 01102.159 79a175.446 175.446 0 00-13.397 3.175c-4.35 1.206-8.19 2.603-12.222 4.143l-.699.286h-.127l-1.825.746a60.49 60.49 0 00-14.905 8.301l-.317.27-.492.428-.604.556-.46.429-.54.555c-.127.143-.27.286-.396.445-.127.158-.318.365-.477.555l-.365.445a1.6 1.6 0 00-.127.174 13.522 13.522 0 00-1.587 2.794 9.175 9.175 0 00-.714 3.555c0 3.731 1.92 7.096 5.682 10.048A17.459 17.459 0 0069.794 120h1.158c6.556-.412 12.603-4.016 18.127-10.73a75.23 75.23 0 009.524-15.73l.207-.444.079-.16.238-.507c.508-1.127 1.016-2.302 1.587-3.492a124.57 124.57 0 001.588-4c.079-.207.158-.429.253-.635l.191-.524c.46-1.238.936-2.508 1.397-3.81a69.311 69.311 0 0113.492-1.079h3.397a2.76 2.76 0 011.587.492 1.338 1.338 0 01.476 1.111 3.989 3.989 0 01-.73 2.048l-.095.175a8.907 8.907 0 01-.715.984l-.206.238c-.301.35-.635.714-1.032 1.095a1.86 1.86 0 00-.254.222s-.095 0-.127.127c-.042.06-.08.124-.111.19a.678.678 0 000 .255v.143l.223.095a.793.793 0 00.412-.127c.113-.07.22-.149.318-.238a.156.156 0 01.079 0c.688-.527 1.341-1.1 1.952-1.714.231-.231.448-.475.651-.73v-.112c.191-.182.362-.384.508-.603l.159-.317c.103-.264.156-.543.159-.826zm-63.89-9.873a3.333 3.333 0 01-.587 1.064l-.682.81c.254-.445.476-.826.667-1.128.14-.233.306-.451.492-.65l.11-.096zm-2.92 1.095a14.284 14.284 0 00-2.206 4.143 5.936 5.936 0 01-3.35 1.35 1.08 1.08 0 01-.92-.366 1.874 1.874 0 01-.318-1.19 9.16 9.16 0 012.255-5.476 6.096 6.096 0 014.587-2.826 2.824 2.824 0 011.682.492c.426.334.76.771.969 1.27a7.633 7.633 0 00-2.699 2.635v-.032zm42.603 12.699c-.206.54-.428 1.08-.635 1.587a152.984 152.984 0 01-2.031 4.762 104.463 104.463 0 01-5.651 10.571C85 113.063 77.968 118.539 70.698 118.809h-.857a16.955 16.955 0 01-10.555-3.619c-3.175-2.492-4.762-5.302-4.762-8.445.003-.485.056-.969.158-1.444.116-.479.26-.95.43-1.413a14.913 14.913 0 012.57-4.11c.27-.318.556-.652.873-.97l.286-.3a42.97 42.97 0 011.222-1.144l.207-.174c.38-.334.793-.667 1.206-.984l.429-.334 1.365-1a66.277 66.277 0 019.746-5.444 79.069 79.069 0 014.92-2.08l1.969-.777a146.018 146.018 0 0121.873-6.222c-.492 1.682-1.08 3.317-1.699 4.92v.048z"/><path d="M48.222 64.221a1.81 1.81 0 01.445-.11l4.238-.223c1.333-.095 2.682-.143 4.016-.19.172.034.35.034.523 0a.492.492 0 00.302-.397.396.396 0 00-.222-.381.73.73 0 00-.381-.223h-7.937a72.712 72.712 0 012.048-3.079c.977-1.38 2.037-2.7 3.175-3.952a25.698 25.698 0 013.698-3.413 8.714 8.714 0 013.968-1.746h.54c.544.01 1.081.117 1.587.317.72.297 1.373.734 1.92 1.286l.287.095.333-.127c.156-.112.29-.252.397-.412.108-.16.198-.33.27-.508a.997.997 0 00.126-.429 1.588 1.588 0 00-.492-.968 2.127 2.127 0 00-1.206-.667A9.035 9.035 0 0064.54 49c-.532.001-1.063.043-1.588.127a15.13 15.13 0 00-2.904.778c-.95.36-1.868.794-2.747 1.301a21.877 21.877 0 00-2.412 1.588 18.324 18.324 0 00-2.286 2.079c-.762.794-1.508 1.587-2.222 2.524-.714.936-1.429 1.81-2.095 2.73l-1.778 2.587a4.755 4.755 0 01-.667 0h-2.318a.904.904 0 00-.507.143.698.698 0 00-.27.397l-.08.302a.746.746 0 00.493.666c.301.143.587.302.857.46.233.172.441.375.619.604l.08.238a1.37 1.37 0 01-.207.587l-3.334 6.238a250.418 250.418 0 01-4.333 7.778 199.455 199.455 0 01-5.11 8.333 113.103 113.103 0 01-5.604 7.937 56.306 56.306 0 01-5.857 6.476 21.09 21.09 0 01-5.826 4.032 12.808 12.808 0 01-4.984 1.143h-.54a7.943 7.943 0 01-4.158-1.366 6.456 6.456 0 01-2.429-3.174 7.207 7.207 0 01-.365-2.302 10.7 10.7 0 01.35-2.54 13.937 13.937 0 012.872-5.809 13.411 13.411 0 014.651-3.555 4.42 4.42 0 00.556-.286l.174-.159.096-.254-.16-.238h-.221a2.378 2.378 0 00-.683.159c-1.038.381-2.03.882-2.952 1.492a17.857 17.857 0 00-2.794 2.27 17.098 17.098 0 00-2.27 2.762 11.11 11.11 0 00-1.333 3.365A9.524 9.524 0 000 100.555c.001.925.14 1.845.413 2.73a7.937 7.937 0 002.666 3.968 9.374 9.374 0 004.937 1.905c.365.024.73.024 1.095 0a15.7 15.7 0 005.794-1.223 22.087 22.087 0 006.666-4.428 64.323 64.323 0 006.635-7.222 138.838 138.838 0 006.254-8.778 172.66 172.66 0 005.588-9.064 305.07 305.07 0 004.65-8.11 315.028 315.028 0 013.334-5.921l.19-.19z"/></svg><svg viewBox="0 0 132 180" id="header__logo-main" xmlns="http://www.w3.org/2000/svg"><path d="M69.062 37.204c-.522 2.392-1.264 1.937-1.432 3.992-.168 2.055 1.297.977 1.684 1.903.388.926-4.345 7.142-4.632 10.258-.286 3.116 1.314-.438-1.6 4.009-2.526 3.857-12.346 5.845-12.346 5.845a27.406 27.406 0 00-11.454-.674c-2.645-2.14-1.786-8.035 2.088-12.448 4.38-5.053 10.629-5.727 14.655-7.108a30.317 30.317 0 008.876-4.464c1.971-1.263 5.053-5.625 4.194-1.313m1.6-7.395c-1.33 0-2.19 2.291-2.19 2.291a20.55 20.55 0 01-6.366 4.666 119.204 119.204 0 01-16.844 5.558c-1.684.388-1.5-.96-.539-2.29.96-1.331 2.712-2.78 3.706-2.24 4.53 2.442 11.285-2.628 9.55-6.132-1.112-2.223-1.499-2.038-2.038-1.853-.539.185-1.23.388-2.948-1.853-3.621-5.693-6.4-.572-7.815-.353a3.792 3.792 0 01-1.23 0c-.505 0-.724-.135-.707.42v.877s-2.695 2.964-2.173 3.739c.135.219.943.724 1.145 1.145.202.422-.842 4.75-5.373 7.21-1.145.623-1.179-.624-.421-2.931.404-1.432 10.713-25.62 10.713-26.192-.035-1.3.022-2.6.168-3.891a34.2 34.2 0 01.354-2.038c.118-.573-.387-.893-.27-1.6.135-1.988.472-3.37.506-4.33-.354-.151-.758 1.095-1.129 2.611 0 .236-.27 0-.471-.202-.203-.202-.337-.387-.371-.303-.488 1.095.606 1.027.337 1.988 0 .1-.37 0-.724-.22-.354-.218-.708-.336-.725-.185-.084 1.297 1.482.91 1.112 2.712 0 .185 0 .37-.101.505-.036.262-.11.518-.22.758-1.01 1.786-1.684-.539-2.475-1.431-.792-.893-1.465-1.685-.674.505.27.758.337 2.762.54 3.217.64 1.365 1.262 1.314 1.128 2.341-.253 2.005-5.811 10.612-6.586 12.044-2.51 4.53-4.245 10.83-5.559 12.7a28.28 28.28 0 00-4.21 11.47c-2.544 13.863 7.832 32.004 7.832 32.004s-6.435 19.791-7.984 22.385c-1.55 2.594-9.955 17.703-12.6 20.567-2.644 2.863-2.29 14.014-.842 13.711 1.449-.304 1.567-5.054 3.116-6.89 1.55-1.836 4.65-.791 5.138-2.695.488-1.903-2.072-2.678-1.903-4.345.168-1.668 10.998-11.05 12.144-14.014 1.145-2.965.539-8.422 4.127-11.269 5.727-6.737 6.468-21.661 10.308-23.43 8.22-3.79 22.217-11.285 23.261-14.873 1.045-3.587 1.398-12.902 2.038-14.334a15.598 15.598 0 001.247-6.602c-.253-6.738-1.684-8.91-3.1-8.945M37.056 140.574a783.29 783.29 0 00-3.369 5.508l-.859 1.314h.623l.674-1.061a219.868 219.868 0 003.537-5.677l-.606-.084zm1.583.287l-2.51 3.992c-.572.892-1.162 1.684-1.684 2.627h.64c.522-.775 1.028-1.549 1.55-2.358.893-1.381 1.684-2.762 2.594-4.11l-.556-.101m-6.874 7.866a154.458 154.458 0 01-3.37 4.7l.506.185a156.588 156.588 0 003.369-4.615l-.506-.27zm1.145.708c-1.078 1.516-2.173 2.998-3.369 4.413l.522.168c1.112-1.381 2.173-2.829 3.234-4.312l-.455-.269m99.009-10.898a3.179 3.179 0 00-.32-1.348l-.236.118.219-.118a4.693 4.693 0 00-.792-1.128 4.9 4.9 0 00-1.095-.876 3.037 3.037 0 00-1.179-.472 18.517 18.517 0 00-3.84-.303 79.474 79.474 0 00-13.896 1.297c1.33-3.992 2.324-7.142 2.947-9.416.169-.286.287-.505.405-.674.102-.179.22-.348.353-.505v-.286a1.367 1.367 0 00-.404-.927 1.692 1.692 0 00-1.28-.488h-.202a1.43 1.43 0 00-.809.438 4.396 4.396 0 00-.556.758c-.454.421-1.061.926-1.819 1.499a100.99 100.99 0 01-2.762 2.004 62.108 62.108 0 01-3.622 2.308 18.48 18.48 0 01-2.695 1.331h-.707l-.152-.118v-.27c.022-.185.067-.366.135-.539a42.638 42.638 0 012.914-4.75 29.32 29.32 0 012.106-2.661 4.686 4.686 0 011.28-1.112h.185v-.202a1.283 1.283 0 00-.286-.724.87.87 0 00-.674-.287h-.101a4.083 4.083 0 00-.809.253 25.24 25.24 0 00-1.431.606 12.26 12.26 0 00-1.314.64 1.974 1.974 0 00-.674.539 1.595 1.595 0 00-.118.657v1.112c-2.021 3.672-3.369 6.182-4.009 7.529a20.713 20.713 0 01-3.604 2.426 7.578 7.578 0 01-3.504 1.111 2.752 2.752 0 01-2.341-.741 3.519 3.519 0 01-.623-2.206 7.126 7.126 0 01.842-3.369 17.42 17.42 0 012.392-3.638 3.771 3.771 0 012.779-1.685h.27v.169a2.4 2.4 0 01-.439 1.162l-.353.59-.084.185v.135a.437.437 0 00.252.421.94.94 0 00.489.101 2.372 2.372 0 002.19-1.213 2.1 2.1 0 00.202-1.061 1.837 1.837 0 00-.523-1.381 2.138 2.138 0 00-1.482-.455 5.058 5.058 0 00-2.425.741 15.557 15.557 0 00-4.683 4.329 10.779 10.779 0 00-1.684 3.503l-.59.59c-2.56 2.308-4.53 3.369-5.76 3.369a.426.426 0 01-.287 0v-.219c.06-.545.215-1.075.455-1.567.381-.818.803-1.616 1.263-2.392a43.194 43.194 0 001.988-3.891 7.15 7.15 0 00.674-2.391 1.397 1.397 0 00-.304-.96 1.168 1.168 0 00-.892-.337 7.06 7.06 0 00-2.83.943c-.91.488-2.122 1.28-3.638 2.308a5.338 5.338 0 00.64-2.19 1.297 1.297 0 00-.405-1.061 1.68 1.68 0 00-1.162-.354 5.718 5.718 0 00-2.914 1.145c-.337.219-.59.388-.758.523l-.202.185-.084.084v.286l.185.186.101.101h.354c.5-.354 1.024-.674 1.567-.96.262-.16.554-.263.859-.304a.415.415 0 01.269 0v.219a2.035 2.035 0 01-.118.421 44.242 44.242 0 01-1.987 4.077 14.747 14.747 0 01-2.611 2.813c-2.409 2.088-4.312 3.099-5.592 3.099a2.226 2.226 0 01-1.18-.253.706.706 0 01-.32-.64 7.8 7.8 0 01.422-1.684l1.364-1.314a7.358 7.358 0 002.526-4.43.585.585 0 00-.286-.505 1.004 1.004 0 00-.455-.118 4.886 4.886 0 00-1.38-2.089 3.689 3.689 0 00-2.342-.758 9.121 9.121 0 00-6.502 3.369 9.971 9.971 0 00-3.166 6.737 3.591 3.591 0 00.606 2.258 2.322 2.322 0 001.886.791c1.7-.151 3.335-.731 4.75-1.684a1.8 1.8 0 00.64 1.516 2.845 2.845 0 001.786.488 8.428 8.428 0 004.16-1.347 20.372 20.372 0 004.01-3.133l-.742 1.28-1.078 1.836-.27.488v.253l.186.404.404.135h.32l.455-.168.472-.101.437-.135.32-.303 2.73-4.919.336-.64.674-1.263c.118-.219.219-.371.286-.489v-.134l.135-.118c.253-.202.775-.607 1.583-1.163a21.414 21.414 0 012.173-1.482 5.067 5.067 0 011.937-.741c.018.112.018.225 0 .337a7.3 7.3 0 01-.573 1.684 33.74 33.74 0 01-1.044 2.038c-.404.742-.707 1.264-.859 1.567l-.455.96c-.292.562-.51 1.016-.657 1.364a8.637 8.637 0 00-.505 1.314 5.17 5.17 0 00-.27 1.331 1.463 1.463 0 00.439 1.128c.333.279.762.418 1.195.388a7.955 7.955 0 003.672-1.466 25.482 25.482 0 003.52-2.695 5.069 5.069 0 000 .523 2.846 2.846 0 001.399 2.695c.9.551 1.943.827 2.998.791 1.614-.019 3.2-.417 4.632-1.162a20.352 20.352 0 003.25-2.122c.032.2.12.387.254.539a1.2 1.2 0 00.926.438c.184-.012.366-.052.539-.118a41.207 41.207 0 007.563-4.295 61.213 61.213 0 005.457-4.178c0 .337-.118.691-.202 1.112-.152.758-.354 1.684-.606 2.796a55.597 55.597 0 01-1.685 5.811 186.26 186.26 0 00-14.216 3.369c-4.615 1.28-8.691 2.762-12.97 4.396l-.74.303h-.135l-1.938.792a64.204 64.204 0 00-15.816 8.809l-.337.287-.522.454-.64.59-.488.455-.573.589c-.135.152-.287.303-.421.472-.135.168-.337.387-.505.589l-.388.472a1.86 1.86 0 00-.135.185 14.352 14.352 0 00-1.684 2.965 9.733 9.733 0 00-.758 3.773c0 3.958 2.038 7.529 6.03 10.662a18.53 18.53 0 0011.892 4.346h1.23c6.956-.438 13.373-4.262 19.235-11.387a79.823 79.823 0 0010.106-16.692l.219-.472.084-.168.253-.539c.539-1.196 1.078-2.442 1.685-3.706a133.304 133.304 0 001.684-4.244c.084-.219.168-.455.269-.674l.203-.556c.488-1.314.993-2.661 1.482-4.042a73.562 73.562 0 0114.317-1.146h3.605a2.938 2.938 0 011.684.522 1.42 1.42 0 01.505 1.179 4.223 4.223 0 01-.775 2.173l-.101.186a9.54 9.54 0 01-.758 1.044l-.219.253c-.32.37-.673.758-1.094 1.162-.097.07-.188.149-.27.236 0 0-.101 0-.135.134a1.365 1.365 0 00-.118.202.721.721 0 000 .27v.152l.236.101a.848.848 0 00.438-.135c.12-.073.233-.158.337-.253a.17.17 0 01.084 0 20.46 20.46 0 002.072-1.819c.245-.245.475-.504.691-.775v-.118a3.84 3.84 0 00.539-.64l.168-.337c.109-.279.166-.576.169-.875zM64.088 128.11a3.538 3.538 0 01-.623 1.128l-.724.859c.27-.471.505-.876.707-1.196.15-.247.325-.479.522-.69l.118-.101zm-3.099 1.162a15.16 15.16 0 00-2.341 4.396 6.3 6.3 0 01-3.554 1.432 1.152 1.152 0 01-.977-.388 1.987 1.987 0 01-.337-1.263 9.72 9.72 0 012.392-5.811 6.473 6.473 0 014.867-2.998 2.996 2.996 0 011.786.522 3.36 3.36 0 011.027 1.348 8.092 8.092 0 00-2.863 2.796v-.034zm45.209 13.475c-.219.573-.455 1.145-.674 1.684a163.311 163.311 0 01-2.156 5.054 111.146 111.146 0 01-5.996 11.218c-7.176 11.487-14.638 17.298-22.352 17.584h-.91a17.983 17.983 0 01-11.2-3.84c-3.37-2.644-5.054-5.626-5.054-8.961a7.46 7.46 0 01.169-1.533c.122-.508.274-1.008.454-1.499a15.814 15.814 0 012.729-4.362c.286-.337.59-.691.926-1.028l.303-.32c.422-.404.843-.808 1.297-1.213l.22-.185c.404-.354.842-.707 1.28-1.044l.454-.354 1.449-1.061a70.294 70.294 0 0110.342-5.777 83.53 83.53 0 015.222-2.207l2.088-.825A154.915 154.915 0 01108 137.475c-.522 1.785-1.145 3.52-1.802 5.221v.051z"/><path d="M51.172 120.362a1.92 1.92 0 01.471-.118l4.497-.236c1.415-.101 2.847-.151 4.262-.202.183.037.372.037.556 0a.52.52 0 00.32-.421.422.422 0 00-.236-.404.777.777 0 00-.404-.236h-8.422c.59-.926 1.28-2.004 2.173-3.267a44.125 44.125 0 013.368-4.195 27.305 27.305 0 013.925-3.621 9.242 9.242 0 014.211-1.853h.573a4.836 4.836 0 011.684.337 6.206 6.206 0 012.038 1.364l.303.101.354-.134c.166-.12.308-.268.421-.438.115-.169.211-.35.286-.539.08-.14.125-.295.135-.455a1.688 1.688 0 00-.522-1.028 2.257 2.257 0 00-1.28-.707 9.618 9.618 0 00-1.398-.101c-.564.001-1.127.046-1.684.135a16.034 16.034 0 00-3.083.825 20.102 20.102 0 00-2.914 1.381 23.19 23.19 0 00-2.56 1.685c-.87.666-1.68 1.404-2.426 2.206-.808.842-1.6 1.685-2.358 2.678-.758.994-1.516 1.921-2.223 2.898l-1.887 2.745a4.914 4.914 0 01-.707 0h-2.46a.962.962 0 00-.538.152.74.74 0 00-.287.421l-.084.32a.793.793 0 00.522.707c.32.152.624.32.91.489.247.182.468.397.657.64l.084.252a1.436 1.436 0 01-.219.624l-3.537 6.619a266.453 266.453 0 01-4.599 8.254 211.936 211.936 0 01-5.423 8.843 120.256 120.256 0 01-5.946 8.422 59.718 59.718 0 01-6.215 6.872 22.384 22.384 0 01-6.182 4.278 13.574 13.574 0 01-5.29 1.213h-.572a8.425 8.425 0 01-4.413-1.449 6.853 6.853 0 01-2.577-3.368 7.651 7.651 0 01-.387-2.443c.015-.91.14-1.814.37-2.695a14.79 14.79 0 013.049-6.165 14.242 14.242 0 014.935-3.773c.204-.086.4-.188.59-.303l.185-.168.101-.27-.168-.252h-.236c-.249.02-.493.077-.724.168a15.19 15.19 0 00-3.133 1.583 18.934 18.934 0 00-2.965 2.409c-.903.89-1.71 1.872-2.409 2.931a11.788 11.788 0 00-1.414 3.571 10.103 10.103 0 00-.27 2.274c.002.982.15 1.958.438 2.897a8.425 8.425 0 002.83 4.211 9.938 9.938 0 005.238 2.021c.387.026.775.026 1.162 0 2.113-.038 4.2-.479 6.148-1.297a23.45 23.45 0 007.075-4.699 68.286 68.286 0 007.04-7.664 147.172 147.172 0 006.637-9.315 183.1 183.1 0 005.929-9.618 321.992 321.992 0 004.935-8.607 335.782 335.782 0 013.537-6.283l.203-.202z"/></svg><svg viewBox="0 0 137 127" id="header__logo-sub" xmlns="http://www.w3.org/2000/svg"><path d="M2.095 122.771l-.59-4.295H.564l.943 5.828h.657l3.015-5.828H4.2l-2.106 4.295zm6-4.429c-1.348 0-2.46 1.128-2.712 2.964-.253 1.836.522 3.133 2.005 3.133 1.482 0 2.459-1.162 2.711-2.964.253-1.803-.505-3.133-2.004-3.133zm1.078 3.065c-.236 1.533-.876 2.274-1.684 2.274-.809 0-1.331-.775-1.112-2.307.219-1.533.876-2.291 1.684-2.291.809 0 1.331.792 1.112 2.324zm5.405-3.065a2.581 2.581 0 00-2.038 1.432c.027-.432.027-.866 0-1.297h-.843a8.18 8.18 0 01-.185 1.785l-.707 4.026h.943l.472-2.712c.235-1.415 1.364-2.426 1.954-2.426.589 0 .757.556.589 1.432l-.657 3.706h.943l.657-3.706c.253-1.061.034-2.24-1.128-2.24zm10.226-2.123h-1.128l-3.336 3.857.674-3.857h-.977l-1.431 8.068h.976l.657-3.739 2.476 3.739h1.112l-2.61-3.958 3.587-4.11zm1.666 3.504v-1.247h-.843c.004.6-.058 1.199-.185 1.786l-.708 4.025h.944l.539-3.2a1.82 1.82 0 011.937-1.684l.168-1.045a2.264 2.264 0 00-1.853 1.365zm3.233-2.409h.943l.186-1.095h-.944l-.185 1.095zm-1.246 6.973h.943l1.028-5.811h-.944l-1.027 5.811zm3.068-4.345a1.566 1.566 0 001.213 1.685c.64.202.926.556.86 1.095a1.012 1.012 0 01-1.096.909 2.258 2.258 0 01-1.415-.505l-.235.707a2.655 2.655 0 001.684.539 1.803 1.803 0 001.384-.458 1.814 1.814 0 00.603-1.327c0-.741-.336-1.415-1.414-1.685a.874.874 0 01-.657-1.01.914.914 0 01.639-.79.927.927 0 01.355-.036c.418.007.823.143 1.162.388l.219-.674a2.407 2.407 0 00-1.365-.438 1.786 1.786 0 00-1.937 1.6zm6.62-3.048h-.943l-.287 1.583h-.926l-.118.657h.926l-.892 5.154h.943l.893-5.154h.943l.118-.657h-.943l.286-1.583zm.753 7.393h.944l1.01-5.811h-.943l-1.01 5.811zm1.235-6.973h.943l.185-1.095h-.943l-.185 1.095zm4.999 1.028a2.581 2.581 0 00-2.038 1.432c.028-.432.028-.866 0-1.297h-.842a8.18 8.18 0 01-.185 1.785l-.708 4.026h.944l.471-2.712c.236-1.415 1.365-2.426 1.954-2.426.59 0 .758.556.59 1.432l-.657 3.706h.943l.657-3.706c.253-1.061.084-2.24-1.129-2.24zm3.321-1.028h.943l.186-1.095h-.944l-.185 1.095zm-1.23 6.973h.926l1.027-5.811h-.943l-1.01 5.811zm6.804-5.019a1.43 1.43 0 00-1.347-.926c-1.398 0-2.46 1.263-2.73 2.981-.269 1.718.203 3.099 1.685 3.099a2.05 2.05 0 001.684-.926 6.342 6.342 0 000 .792h.81a9.74 9.74 0 01.201-1.685l.708-4.042h-.708l-.303.707zm-.404 2.123c-.253 1.414-.943 2.307-1.786 2.307-.842 0-1.196-.909-.943-2.307s.927-2.325 1.769-2.325c.842 0 1.196.943.96 2.325zm4.327-1.18c-.336 2.661.877 4.194 2.713 4.194a3.122 3.122 0 002.004-.724l.118-.927a2.796 2.796 0 01-1.87.775c-1.398 0-2.24-1.196-1.97-3.369.269-2.173 1.465-3.251 2.812-3.251a2.367 2.367 0 011.685.775l.135-.909a2.593 2.593 0 00-.877-.565 2.63 2.63 0 00-1.027-.177c-1.752.085-3.402 1.533-3.722 4.178zm9.519-1.87a2.524 2.524 0 00-1.988 1.331s0-.32.118-.506l.522-2.947h-.943l-1.432 8.068h.943l.472-2.712c.236-1.415 1.364-2.425 1.97-2.425.607 0 .742.555.59 1.431l-.657 3.706h.893l.657-3.706c.236-1.061.05-2.24-1.145-2.24zm5.928.135l-2.139 4.446-.572-4.446h-.944l.86 5.777-1.348 2.661h.893l4.21-8.438h-.96zm5.307.809a1.425 1.425 0 00-.525-.684 1.425 1.425 0 00-.823-.259c-1.398 0-2.442 1.263-2.729 2.981-.286 1.718.203 3.099 1.685 3.099a1.917 1.917 0 001.499-.741v.253c-.404 2.021-.927 2.274-1.802 2.274a2.541 2.541 0 01-1.685-.657v.876a2.869 2.869 0 001.685.573c1.094 0 2.223-.472 2.712-3.218l.943-5.305h-.708l-.252.808zm-.405 2.106c-.236 1.414-.943 2.307-1.785 2.307s-1.196-.909-.943-2.307c.252-1.398.926-2.308 1.684-2.308.758 0 1.28.926 1.044 2.308zm3.655-1.668v-1.247h-.826a8.425 8.425 0 01-.202 1.786l-.707 4.025h.943l.556-3.2a1.8 1.8 0 011.92-1.684l.168-1.045a2.264 2.264 0 00-1.852 1.365zm4.144 3.199l-.573-4.446h-.943l.86 5.777-1.348 2.661h.893l4.21-8.438h-.977l-2.122 4.446zm6.989-4.58a2.6 2.6 0 00-2.055 1.432c.028-.432.028-.866 0-1.297h-.826a9.452 9.452 0 01-.185 1.785l-.724 4.026h.943l.472-2.712c.236-1.415 1.381-2.426 1.97-2.426.59 0 .742.556.59 1.432l-.657 3.706h.943l.657-3.706c.253-1.061.084-2.24-1.128-2.24zm2.61 1.6a1.567 1.567 0 001.213 1.684c.64.202.91.556.859 1.095a1.008 1.008 0 01-1.095.91 2.253 2.253 0 01-1.415-.506l-.236.708a2.642 2.642 0 001.685.539 1.797 1.797 0 001.39-.452 1.805 1.805 0 00.597-1.334c0-.741-.32-1.414-1.398-1.684a.874.874 0 01-.657-1.011.911.911 0 01.994-.825c.418.007.824.142 1.162.388l.22-.674a2.458 2.458 0 00-1.365-.438 1.787 1.787 0 00-1.75.933 1.79 1.79 0 00-.204.667zm7.951-1.466l-2.56 2.678.876-4.935h-.944l-1.414 8.068h.926l.539-3.032 1.667 3.032h1.011l-1.718-3.066 2.644-2.745h-1.027zm5.559.001l-.27.791a1.427 1.427 0 00-1.347-.926c-1.398 0-2.459 1.263-2.729 2.981-.269 1.718.202 3.099 1.684 3.099a2.048 2.048 0 001.685-.926 6.156 6.156 0 000 .792h.808a9.84 9.84 0 01.202-1.685l.708-4.042-.741-.084zm-.674 2.914c-.253 1.414-.943 2.307-1.785 2.307-.843 0-1.196-.909-.944-2.307.253-1.398.927-2.325 1.685-2.325s1.28.943 1.044 2.325zM48.754 8.535a2.072 2.072 0 001.685-.943 6.61 6.61 0 000 .808h.825c.013-.599.075-1.196.185-1.785l1.129-6.3h-.944l-.522 2.965a1.33 1.33 0 00-1.263-.825c-1.398 0-2.46 1.246-2.745 2.964-.287 1.718.134 3.116 1.65 3.116zm-.775-3.049c.253-1.38.927-2.307 1.786-2.307s1.196.926.943 2.307c-.253 1.382-.926 2.308-1.684 2.308-.758 0-1.28-.91-1.045-2.308zm8.728-2.104a1.432 1.432 0 00-1.348-.926c-1.398 0-2.459 1.247-2.729 2.965-.269 1.718.203 3.116 1.685 3.116a2.072 2.072 0 001.684-.944 6.57 6.57 0 000 .809h.809c.012-.6.08-1.198.202-1.785l.707-4.026h-.707l-.303.791zm-.404 2.106c-.253 1.415-.944 2.358-1.82 2.358-.875 0-1.195-.91-.943-2.308.253-1.398.927-2.307 1.684-2.307.759 0 1.314.876 1.079 2.257zm5.15 1.263c0-.74-.32-1.415-1.415-1.684a.893.893 0 01-.657-1.01.927.927 0 01.993-.81c.42.01.83.138 1.18.371l.202-.673a2.409 2.409 0 00-1.348-.421 1.769 1.769 0 00-1.87 1.684 1.533 1.533 0 001.213 1.684c.623.202.91.556.86 1.095a1.028 1.028 0 01-1.079.86 2.29 2.29 0 01-1.415-.506l-.219.707a2.645 2.645 0 001.685.54 1.819 1.819 0 001.87-1.837zm6.756-.59a2.442 2.442 0 00-1.685-2.476 1.483 1.483 0 01-.91-1.499A1.247 1.247 0 0166.879.974a2.369 2.369 0 011.465.539l.287-.758a2.476 2.476 0 00-1.685-.607 2.29 2.29 0 00-.91 4.396c.843.388 1.331.876 1.247 1.685a1.448 1.448 0 01-1.516 1.415 2.307 2.307 0 01-1.684-.809l-.32.826a2.695 2.695 0 002.021.791 2.409 2.409 0 002.425-2.29zm1.028 2.241h.943l.893-5.172h.943l.118-.64h-.927l.27-1.6h-.943l-.27 1.6h-.926l-.135.64h.943l-.91 5.172zm4.261.134a2.577 2.577 0 002.038-1.432v1.297h.843c-.004-.6.058-1.199.185-1.785l.707-4.026h-.943l-.472 2.712c-.235 1.415-1.364 2.425-1.953 2.425-.59 0-.759-.556-.59-1.432l.657-3.705h-.96l-.657 3.705c-.236 1.062-.067 2.24 1.145 2.24zm5.894-.001a2.139 2.139 0 001.684-.943c-.024.269-.024.54 0 .808h.826a9.45 9.45 0 01.185-1.785l1.028-6.3h-.944L81.65 3.28a1.297 1.297 0 00-1.263-.825c-1.398 0-2.442 1.246-2.729 2.964-.286 1.718.236 3.116 1.735 3.116zm-.758-3.049c.236-1.38.927-2.307 1.684-2.307.758 0 1.196.926.96 2.307-.235 1.382-.858 2.359-1.684 2.359-.825 0-1.212-.96-.96-2.359zm4.432 2.915h.944l1.027-5.811h-.943L83.066 8.4zm1.247-6.991h.926L85.44.315h-.943l-.186 1.095zm5.927 4.162c.27-1.819-.505-3.133-2.004-3.133s-2.459 1.146-2.712 2.965c-.252 1.82.506 3.133 2.005 3.133 1.499 0 2.46-1.145 2.712-2.965zm-3.755-.1c.219-1.533.876-2.275 1.684-2.275.809 0 1.33.792 1.095 2.308-.236 1.516-.86 2.29-1.685 2.29-.825 0-1.33-.79-1.094-2.324zm9.131-2.881h-1.111v-.32C94.74.957 95.027.856 95.583.856h.286l.118-.64a2.172 2.172 0 00-.522-.1c-1.044 0-1.685.538-1.887 2.105v.32h-.842l-.118.64h.842l-.91 5.154h.944l.91-5.154h1.111l.101-.59zm4.412-1.854h-.943l-.151.927h.943l.151-.927zM96.81 8.536a2.577 2.577 0 002.039-1.432c-.028.432-.028.865 0 1.297h.842c-.004-.6.058-1.199.185-1.785l.708-4.026h-.944l-.471 2.712c-.236 1.415-1.364 2.425-1.954 2.425-.59 0-.758-.556-.59-1.432l.657-3.705h-.943l-.657 3.705c-.27 1.062-.084 2.24 1.129 2.24zM98.107.737h-.944l-.151.927h.943l.152-.927zm6.113 2.747l.168-1.028a2.271 2.271 0 00-1.92 1.364c.026-.409.026-.82 0-1.23h-.825a8.155 8.155 0 01-.186 1.685l-.707 4.026h.943l.539-3.2a1.82 1.82 0 011.988-1.617zm6.539 2.678c.134-.927-.219-1.937-1.079-2.089a1.964 1.964 0 001.247-1.684 1.698 1.698 0 00-.356-1.416 1.686 1.686 0 00-1.328-.605h-1.921l-1.431 8.085h2.493a2.39 2.39 0 002.375-2.291zm-2.662-5.053h.859c.876 0 1.179.505 1.045 1.313-.135.809-.523 1.314-1.399 1.314h-.96l.455-2.627zm-1.128 6.468l.522-3.032h1.179c.96 0 1.246.69 1.179 1.499a1.539 1.539 0 01-.501 1.141 1.533 1.533 0 01-1.183.392h-1.196zm6.177.96a2.069 2.069 0 001.685-.944c-.017.27-.017.54 0 .809h.808c.013-.6.08-1.198.202-1.785l.708-4.026h-.758l-.27.791a1.429 1.429 0 00-1.347-.926c-1.398 0-2.443 1.247-2.729 2.965-.286 1.718.202 3.116 1.701 3.116zm-.758-3.049c.236-1.381.927-2.308 1.769-2.308.842 0 1.196.927.96 2.308-.236 1.381-.943 2.358-1.785 2.358-.843 0-1.196-.96-.944-2.358zm6.807-5.173h-.943L116.82 8.4h.944l1.431-8.085zm.826 8.085l1.415-8.085h-.926L119.078 8.4h.943zm5.305-.385l.169-.927a2.34 2.34 0 01-1.684.657c-1.028 0-1.533-.825-1.5-1.886a2.846 2.846 0 010-.489h3.167a3.72 3.72 0 00.219-1.095 1.682 1.682 0 00-1.684-1.819c-1.415 0-2.645 1.381-2.712 3.369 0 1.465.724 2.695 2.189 2.695a2.413 2.413 0 001.836-.505zm-1.229-4.818a.874.874 0 01.943.994c.018.168.018.337 0 .505h-2.442c.303-.926.775-1.499 1.499-1.499zm2.631 5.205h.943l.893-5.172h.943l.118-.64h-.926l.269-1.6h-.926l-.287 1.6h-.926l-.118.64h.91l-.893 5.172zm3.196 0h.944l.892-5.172h.944l.134-.64h-.943l.27-1.6h-.944l-.269 1.6h-.927l-.134.64h.943l-.91 5.172zM50.675 18.744c-.236 1.415-1.365 2.426-1.971 2.426-.607 0-.741-.556-.59-1.432l.657-3.706h-.926l-.674 3.706c-.185 1.061 0 2.24 1.213 2.24a2.594 2.594 0 002.038-1.432c-.028.432-.028.866 0 1.297h.69c.005-.6.067-1.197.186-1.785l.724-4.026h-.91l-.438 2.712zm5.493-2.846a2.594 2.594 0 00-2.055 1.414c.054-.424.082-.852.084-1.28h-.842a9.412 9.412 0 01-.185 1.685l-.725 4.042h.944l.471-2.729c.253-1.415 1.381-2.408 1.97-2.408.59 0 .759.539.59 1.415l-.657 3.722h.944l.657-3.722c.1-.977-.068-2.14-1.196-2.14zm5.927.824a1.331 1.331 0 00-1.28-.825c-1.398 0-2.443 1.246-2.73 2.964-.285 1.719.203 3.117 1.685 3.117a2.072 2.072 0 001.685-.944 6.61 6.61 0 000 .809h.825c.014-.6.075-1.196.185-1.786l1.129-6.3h-.944l-.555 2.965zm-.337 2.207c-.236 1.415-.944 2.308-1.685 2.308-.74 0-1.196-.91-.96-2.308.236-1.398.927-2.308 1.786-2.308s1.111.927.859 2.308zm9.28-5.155h-5.07l-.152.843h2.055l-1.263 7.226h.96l1.28-7.226h2.055l.135-.843zm2.53 3.05a1.415 1.415 0 00-1.347-.926c-1.398 0-2.443 1.246-2.729 2.964-.286 1.718.202 3.116 1.684 3.116a2.073 2.073 0 001.685-.943c-.025.269-.025.54 0 .808h.825a9.45 9.45 0 01.185-1.785l.708-4.026h-.707l-.304.792zm-.404 2.105c-.151 1.415-.943 2.392-1.836 2.392-.893 0-1.196-.91-.96-2.307.236-1.398.926-2.308 1.769-2.308.842 0 1.263.842 1.027 2.224zm5.423-3.031a2.576 2.576 0 00-2.055 1.414 9.942 9.942 0 000-1.28h-.826a9.42 9.42 0 01-.185 1.685l-.724 4.042h.943l.472-2.729c.252-1.415 1.38-2.408 1.97-2.408.59 0 .742.539.59 1.415l-.657 3.722h.943l.691-3.638c.219-1.061 0-2.223-1.162-2.223zm2.474.774h2.308l-3.302 4.7-.067.471h3.621l.085-.657h-2.527l3.302-4.682.067-.472h-3.386l-.1.64zm5.173 5.171h.944l1.01-5.81h-.943l-1.01 5.81zm1.412-8.068l-.185 1.078h.943l.186-1.078h-.944zm4.549 2.123a2.544 2.544 0 00-2.038 1.414v-1.28h-.842a8.168 8.168 0 01-.186 1.685l-.707 4.042h.943l.489-2.644c.235-1.415 1.364-2.409 1.954-2.409.589 0 .757.539.589 1.415l-.657 3.722h.943l.657-3.722c.236-1.061.068-2.223-1.145-2.223zm6.97-2.14l-4.009 8.085h.977l1.095-2.207h2.544l.286 2.224h.977l-1.078-8.102h-.792zM97.6 18.81l1.684-3.369.421 3.369H97.6zm8.086-.066c-.252 1.415-1.381 2.426-1.97 2.426-.59 0-.758-.556-.59-1.432l.657-3.706h-.943l-.657 3.706c-.185 1.061 0 2.24 1.196 2.24a2.574 2.574 0 002.038-1.432v1.297h.842c.005-.6.067-1.197.185-1.785l.708-4.026h-.943l-.523 2.712zm5.963-1.92a1.416 1.416 0 00-1.348-.926c-1.398 0-2.442 1.246-2.728 2.964-.287 1.718.202 3.116 1.684 3.116a1.934 1.934 0 001.499-.758v.253c-.404 2.021-.926 2.274-1.802 2.274a2.626 2.626 0 01-1.684-.64v.859a2.861 2.861 0 001.684.572c1.095 0 2.223-.471 2.712-3.217l.943-5.289h-.691l-.269.792zm-.404 2.105c-.236 1.415-.944 2.308-1.786 2.308-.842 0-1.196-.91-.943-2.307.253-1.398.926-2.308 1.684-2.308.758 0 1.28.926 1.045 2.308zm2.19-1.431a1.536 1.536 0 001.213 1.684c.623.202.91.556.859 1.095a1.023 1.023 0 01-1.111.91 2.238 2.238 0 01-1.398-.506l-.236.708a2.642 2.642 0 001.684.539 1.818 1.818 0 001.988-1.786c0-.741-.32-1.415-1.415-1.684a.895.895 0 01-.657-1.01.924.924 0 01.994-.81c.42.007.83.136 1.179.371l.269-.74a2.507 2.507 0 00-1.364-.422 1.788 1.788 0 00-2.005 1.65zm7.022-1.601a1.903 1.903 0 00-1.482.741l.505-2.88h-.994l-1.431 8.085h.724l.269-.809a1.405 1.405 0 001.348.944c1.398 0 2.442-1.264 2.729-2.982.286-1.718-.152-3.099-1.668-3.099zm.775 3.032c-.253 1.381-.926 2.308-1.785 2.308-.86 0-1.196-.927-.944-2.308.253-1.381.944-2.308 1.685-2.308.741 0 1.28.91 1.044 2.308zm5.292-.185c-.236 1.415-1.364 2.426-1.954 2.426-.59 0-.758-.556-.59-1.432l.657-3.706h-.943l-.657 3.706c-.202 1.061 0 2.24 1.196 2.24a2.582 2.582 0 002.038-1.432c-.028.432-.028.866 0 1.297h.842c-.003-.6.059-1.198.186-1.785l.707-4.026h-.943l-.539 2.712zm5.287-2.846a2.27 2.27 0 00-1.92 1.364c.027-.41.027-.82 0-1.23h-.842a8.154 8.154 0 01-.185 1.685l-.708 4.042h.927l.556-3.2a1.817 1.817 0 011.92-1.685l.252-.976zm4.162.134l-.269.792a1.437 1.437 0 00-1.348-.927c-1.398 0-2.459 1.247-2.729 2.965-.269 1.718.203 3.116 1.685 3.116a1.985 1.985 0 001.499-.758v.253c-.388 2.021-.927 2.274-1.802 2.274a2.629 2.629 0 01-1.685-.64v.859a2.867 2.867 0 001.685.572c1.094 0 2.223-.471 2.711-3.217l.944-5.289h-.691zm-.64 2.897c-.253 1.415-.943 2.308-1.785 2.308-.843 0-1.196-.91-.944-2.308.253-1.398.927-2.307 1.685-2.307s1.246.926 1.044 2.307z"/></svg><svg viewBox="0 0 24 24" id="instagram" xmlns="http://www.w3.org/2000/svg"><path d="M11.997 7.998A4.01 4.01 0 007.995 12a4.01 4.01 0 004.002 4.002A4.01 4.01 0 0015.998 12a4.01 4.01 0 00-4.001-4.002zM23.999 12c0-1.657.015-3.3-.078-4.953-.093-1.922-.532-3.627-1.937-5.032C20.576.607 18.874.172 16.953.08 15.296-.014 13.653 0 12 0c-1.657 0-3.3-.015-4.953.078C5.125.172 3.42.61 2.015 2.015.607 3.423.172 5.125.08 7.047-.014 8.704 0 10.346 0 12c0 1.654-.015 3.3.078 4.953.093 1.922.531 3.627 1.936 5.032 1.408 1.408 3.11 1.843 5.032 1.936 1.658.093 3.3.079 4.954.079 1.657 0 3.299.015 4.953-.078 1.921-.093 3.626-.531 5.031-1.936 1.408-1.408 1.844-3.11 1.937-5.032.096-1.654.078-3.296.078-4.953zm-12.002 6.157A6.148 6.148 0 015.84 12a6.148 6.148 0 016.157-6.157A6.148 6.148 0 0118.154 12a6.148 6.148 0 01-6.157 6.157zM18.406 7.03a1.436 1.436 0 01-1.438-1.438c0-.796.642-1.438 1.438-1.438a1.436 1.436 0 011.329 1.988 1.436 1.436 0 01-1.329.888z"/><defs><linearGradient id="hpaint0_linear_287_33475" x1="24" y1="0" x2=".166" y2="26.814" gradientUnits="userSpaceOnUse"><stop stop-color="#533DD6"/><stop offset=".266" stop-color="#C235B5"/><stop offset=".521" stop-color="#FB2594"/><stop offset=".776" stop-color="#FE7E00"/><stop offset="1" stop-color="#FEC646"/></linearGradient></defs></svg><svg viewBox="0 0 37 45" id="marker" xmlns="http://www.w3.org/2000/svg"><path fill-rule="evenodd" clip-rule="evenodd" d="M3.312 28.51a18.1 18.1 0 001.652 2.01l11.119 13.537a2.583 2.583 0 003.99.001l11.253-13.682c.496-.533.96-1.097 1.389-1.688l.23-.28h-.03a17.994 17.994 0 003.24-10.33C36.155 8.093 28.06 0 18.077 0 8.094 0 0 8.094 0 18.077c0 3.841 1.198 7.402 3.24 10.33h-.012l.084.102zm22.513-10.433a7.747 7.747 0 11-15.495 0 7.747 7.747 0 0115.495 0z"/></svg><svg viewBox="0 0 147 7" id="page__title-icone" xmlns="http://www.w3.org/2000/svg"><path fill-rule="evenodd" clip-rule="evenodd" d="M99.002 3.605C72.454 5.067 37.355 7 1 7a1 1 0 110-2c36.297 0 71.343-1.93 97.895-3.392l7.199-.395C119.693.474 130.589-.06 137.553.006c3.446.033 6.056.212 7.55.636.382.108.749.247 1.054.44.299.187.642.492.782.964.15.503.004.961-.203 1.298-.199.321-.49.599-.801.84a1 1 0 01-1.233-1.574 4.219 4.219 0 00-.145-.044c-1.198-.34-3.545-.527-7.023-.56-6.886-.066-17.71.464-31.331 1.204l-7.2.395zm46.123-.807l-.004-.004a.026.026 0 01.004.004z"/></svg><svg viewBox="0 0 90 25" id="sub" xmlns="http://www.w3.org/2000/svg"><path d="M1.754 8.535a2.072 2.072 0 001.685-.943c-.017.27-.017.54 0 .808h.825c.013-.599.075-1.196.185-1.785l1.129-6.3h-.944L4.112 3.28a1.33 1.33 0 00-1.263-.825C1.451 2.455.389 3.7.103 5.419c-.286 1.718.135 3.116 1.651 3.116zM.98 5.486c.253-1.38.927-2.307 1.786-2.307s1.196.926.943 2.307c-.253 1.382-.926 2.308-1.684 2.308-.758 0-1.28-.91-1.045-2.308zm8.727-2.104a1.432 1.432 0 00-1.348-.926c-1.398 0-2.459 1.247-2.728 2.965-.27 1.718.202 3.116 1.684 3.116a2.072 2.072 0 001.684-.944c-.016.27-.016.54 0 .809h.809c.012-.6.08-1.198.202-1.785l.707-4.026h-.707l-.303.791zm-.405 2.106C9.05 6.903 8.36 7.846 7.484 7.846s-1.196-.91-.943-2.308c.253-1.398.927-2.307 1.684-2.307.758 0 1.314.876 1.079 2.257zm5.151 1.263c0-.74-.32-1.415-1.415-1.684a.893.893 0 01-.657-1.01.927.927 0 01.993-.81c.42.01.83.138 1.18.371l.202-.673a2.409 2.409 0 00-1.348-.421 1.769 1.769 0 00-1.87 1.684 1.533 1.533 0 001.213 1.684c.623.202.91.556.86 1.095a1.028 1.028 0 01-1.079.86 2.29 2.29 0 01-1.415-.506l-.219.707a2.645 2.645 0 001.685.54 1.819 1.819 0 001.87-1.837zm6.756-.59a2.442 2.442 0 00-1.685-2.476 1.483 1.483 0 01-.91-1.499A1.247 1.247 0 0119.878.974a2.369 2.369 0 011.465.539l.287-.758a2.476 2.476 0 00-1.685-.607 2.29 2.29 0 00-.91 4.396c.843.388 1.331.876 1.247 1.685a1.448 1.448 0 01-1.516 1.415 2.307 2.307 0 01-1.684-.809l-.32.826a2.695 2.695 0 002.021.791 2.409 2.409 0 002.425-2.29zm1.028 2.241h.943l.893-5.172h.943l.118-.64h-.927l.27-1.6h-.943l-.27 1.6h-.926l-.135.64h.943l-.91 5.172zm4.261.134a2.577 2.577 0 002.038-1.432v1.297h.842c-.003-.6.059-1.199.186-1.785l.707-4.026h-.943l-.472 2.712c-.236 1.415-1.364 2.425-1.954 2.425-.59 0-.758-.556-.59-1.432l.658-3.705h-.96l-.657 3.705c-.236 1.062-.068 2.24 1.145 2.24zm5.894-.001a2.139 2.139 0 001.684-.943c-.024.269-.024.54 0 .808h.826a9.45 9.45 0 01.185-1.785l1.028-6.3h-.944L34.65 3.28a1.297 1.297 0 00-1.263-.825c-1.398 0-2.443 1.246-2.729 2.964-.286 1.718.236 3.116 1.735 3.116zm-.758-3.049c.236-1.38.926-2.307 1.684-2.307.759 0 1.196.926.96 2.307-.235 1.382-.858 2.359-1.684 2.359-.825 0-1.213-.96-.96-2.359zm4.432 2.915h.944l1.027-5.811h-.943L36.066 8.4zm1.247-6.991h.926L38.44.315h-.943l-.185 1.095zm5.927 4.162c.27-1.819-.505-3.133-2.004-3.133s-2.459 1.146-2.711 2.965c-.253 1.82.505 3.133 2.004 3.133s2.46-1.145 2.712-2.965zm-3.755-.1c.218-1.533.876-2.275 1.684-2.275.809 0 1.33.792 1.095 2.308-.236 1.516-.86 2.29-1.685 2.29-.825 0-1.33-.79-1.094-2.324zm9.131-2.881h-1.111v-.32C47.74.957 48.027.856 48.583.856h.286l.118-.64a2.172 2.172 0 00-.522-.1c-1.045 0-1.685.538-1.887 2.105v.32h-.842l-.118.64h.842l-.91 5.154h.944l.91-5.154h1.111l.101-.59zM53.028.737h-.943l-.151.927h.943l.151-.927zM49.81 8.536a2.577 2.577 0 002.039-1.432c-.028.432-.028.865 0 1.297h.842c-.004-.6.058-1.199.185-1.785l.708-4.026h-.944l-.471 2.712c-.236 1.415-1.364 2.425-1.954 2.425-.59 0-.758-.556-.59-1.432l.657-3.705h-.943l-.657 3.705c-.27 1.062-.084 2.24 1.129 2.24zM51.107.737h-.944l-.151.927h.943l.152-.927zm6.113 2.747l.168-1.028a2.274 2.274 0 00-1.92 1.364c.026-.409.026-.82 0-1.23h-.825a8.168 8.168 0 01-.186 1.685l-.707 4.026h.943l.54-3.2a1.819 1.819 0 011.987-1.617zm6.538 2.678c.135-.927-.219-1.937-1.078-2.089a1.97 1.97 0 001.247-1.684A1.684 1.684 0 0062.243.368h-1.92L58.89 8.453h2.492a2.392 2.392 0 002.375-2.291zm-2.66-5.053h.858c.876 0 1.18.505 1.044 1.313-.134.809-.522 1.314-1.398 1.314h-.96l.455-2.627zm-1.13 6.468l.523-3.032h1.179c.96 0 1.246.69 1.179 1.499a1.532 1.532 0 01-1.684 1.533h-1.196zm6.178.96a2.071 2.071 0 001.685-.944 6.57 6.57 0 000 .809h.808c.013-.6.08-1.198.202-1.785l.708-4.026h-.758l-.27.791a1.432 1.432 0 00-1.347-.926c-1.398 0-2.443 1.247-2.729 2.965-.286 1.718.202 3.116 1.701 3.116zm-.758-3.049c.236-1.381.927-2.308 1.769-2.308.842 0 1.196.927.96 2.308-.236 1.381-.943 2.358-1.785 2.358-.843 0-1.196-.96-.944-2.358zM72.195.315h-.943L69.82 8.4h.944L72.195.315zm.826 8.085L74.436.315h-.926L72.078 8.4h.943zm5.305-.385l.169-.927a2.342 2.342 0 01-1.684.657c-1.028 0-1.533-.825-1.5-1.886a2.806 2.806 0 010-.489h3.167c.128-.352.202-.72.219-1.095a1.683 1.683 0 00-1.684-1.819c-1.415 0-2.645 1.381-2.712 3.369 0 1.465.724 2.695 2.19 2.695a2.408 2.408 0 001.835-.505zm-1.23-4.818a.876.876 0 01.944.994c.018.168.018.337 0 .505h-2.442c.303-.926.775-1.499 1.499-1.499zm2.632 5.205h.943l.893-5.172h.943l.118-.64h-.927l.27-1.6h-.926l-.287 1.6h-.926l-.118.64h.91l-.893 5.172zm3.196 0h.944l.892-5.172h.944l.134-.64h-.943l.27-1.6h-.944l-.27 1.6h-.926l-.134.64h.943l-.91 5.172zM3.675 18.744C3.439 20.16 2.31 21.17 1.704 21.17c-.607 0-.741-.556-.59-1.432l.657-3.706H.845L.17 19.738c-.185 1.061 0 2.24 1.213 2.24a2.594 2.594 0 002.038-1.432c-.028.432-.028.866 0 1.297h.69c.005-.6.067-1.197.186-1.785l.724-4.026h-.91l-.437 2.712zm5.493-2.846a2.594 2.594 0 00-2.055 1.414c.054-.424.082-.852.084-1.28h-.842a9.416 9.416 0 01-.185 1.685l-.725 4.042h.944l.471-2.729c.253-1.415 1.381-2.408 1.97-2.408.59 0 .759.539.59 1.415l-.656 3.722h.943l.657-3.722c.1-.977-.068-2.14-1.196-2.14zm5.927.824a1.331 1.331 0 00-1.28-.825c-1.399 0-2.443 1.246-2.73 2.964-.286 1.719.203 3.117 1.685 3.117a2.072 2.072 0 001.685-.944 6.61 6.61 0 000 .809h.825c.014-.6.075-1.196.185-1.786l1.129-6.3h-.944l-.555 2.965zm-.337 2.207c-.236 1.415-.943 2.308-1.685 2.308-.74 0-1.196-.91-.96-2.308.236-1.398.927-2.308 1.786-2.308s1.112.927.859 2.308zm9.28-5.155h-5.07l-.152.843h2.055l-1.263 7.226h.96l1.28-7.226h2.055l.135-.843zm2.53 3.05a1.415 1.415 0 00-1.347-.926c-1.398 0-2.443 1.246-2.729 2.964-.286 1.718.202 3.116 1.684 3.116a2.073 2.073 0 001.685-.943c-.025.269-.025.54 0 .808h.825a9.45 9.45 0 01.186-1.785l.707-4.026h-.707l-.304.792zm-.404 2.105c-.152 1.415-.943 2.392-1.836 2.392-.893 0-1.196-.91-.96-2.307.236-1.398.926-2.308 1.769-2.308.842 0 1.263.842 1.027 2.224zm5.423-3.031a2.576 2.576 0 00-2.055 1.414 9.942 9.942 0 000-1.28h-.826a9.42 9.42 0 01-.185 1.685l-.724 4.042h.943l.472-2.729c.252-1.415 1.38-2.408 1.97-2.408.59 0 .742.539.59 1.415l-.657 3.722h.943l.691-3.638c.219-1.061 0-2.223-1.162-2.223zm2.474.774h2.308l-3.302 4.7-.067.471h3.621l.085-.657h-2.527l3.301-4.682.068-.472h-3.386l-.1.64zm5.173 5.171h.944l1.01-5.81h-.943l-1.01 5.81zm1.412-8.068l-.185 1.078h.943l.185-1.078h-.943zm4.549 2.123a2.544 2.544 0 00-2.038 1.414v-1.28h-.842a8.168 8.168 0 01-.186 1.685l-.707 4.042h.943l.489-2.644c.235-1.415 1.364-2.409 1.953-2.409.59 0 .758.539.59 1.415l-.657 3.722h.943l.657-3.722c.236-1.061.068-2.223-1.145-2.223zm6.97-2.14l-4.009 8.085h.977l1.095-2.207h2.544l.286 2.224h.977l-1.078-8.102h-.792zM50.6 18.81l1.684-3.369.421 3.369H50.6zm8.086-.066c-.252 1.415-1.38 2.426-1.97 2.426-.59 0-.758-.556-.59-1.432l.657-3.706h-.943l-.657 3.706c-.185 1.061 0 2.24 1.196 2.24a2.577 2.577 0 002.038-1.432v1.297h.842c.005-.6.067-1.197.185-1.785l.708-4.026h-.944l-.522 2.712zm5.963-1.92a1.415 1.415 0 00-1.348-.926c-1.398 0-2.442 1.246-2.728 2.964-.287 1.718.202 3.116 1.684 3.116a1.937 1.937 0 001.5-.758v.253c-.405 2.021-.927 2.274-1.803 2.274a2.628 2.628 0 01-1.684-.64v.859a2.863 2.863 0 001.684.572c1.095 0 2.223-.471 2.712-3.217l.943-5.289h-.69l-.27.792zm-.404 2.105c-.236 1.415-.944 2.308-1.786 2.308-.842 0-1.196-.91-.943-2.307.253-1.398.926-2.308 1.684-2.308.758 0 1.28.926 1.045 2.308zm2.191-1.431a1.533 1.533 0 001.212 1.684c.624.202.91.556.86 1.095a1.028 1.028 0 01-1.112.91 2.24 2.24 0 01-1.398-.506l-.236.708a2.644 2.644 0 001.684.539 1.818 1.818 0 001.988-1.786c0-.741-.32-1.415-1.415-1.684a.893.893 0 01-.657-1.01.927.927 0 01.994-.81c.42.007.83.136 1.179.371l.27-.74a2.51 2.51 0 00-1.365-.422 1.785 1.785 0 00-2.004 1.65zm7.021-1.601a1.903 1.903 0 00-1.482.741l.505-2.88h-.994l-1.431 8.085h.724l.27-.809a1.398 1.398 0 001.347.944c1.398 0 2.442-1.264 2.729-2.982.286-1.718-.152-3.099-1.668-3.099zm.775 3.032c-.253 1.381-.927 2.308-1.785 2.308-.86 0-1.196-.927-.944-2.308.253-1.381.944-2.308 1.685-2.308.74 0 1.28.91 1.044 2.308zm5.292-.185c-.236 1.415-1.365 2.426-1.954 2.426-.59 0-.758-.556-.59-1.432l.657-3.706h-.943l-.657 3.706c-.202 1.061 0 2.24 1.196 2.24a2.577 2.577 0 002.038-1.432 10.13 10.13 0 000 1.297h.842c-.003-.6.059-1.198.186-1.785l.707-4.026h-.943l-.54 2.712zm5.287-2.846a2.274 2.274 0 00-1.92 1.364c.027-.41.027-.82 0-1.23h-.842a8.168 8.168 0 01-.185 1.685l-.708 4.042h.927l.555-3.2a1.819 1.819 0 011.92-1.685l.253-.976zm4.162.134l-.27.792a1.432 1.432 0 00-1.347-.927c-1.398 0-2.46 1.247-2.729 2.965-.27 1.718.203 3.116 1.685 3.116a1.987 1.987 0 001.499-.758v.253c-.388 2.021-.927 2.274-1.802 2.274a2.627 2.627 0 01-1.685-.64v.859a2.863 2.863 0 001.685.572c1.094 0 2.223-.471 2.712-3.217l.943-5.289h-.69zm-.64 2.897c-.253 1.415-.943 2.308-1.785 2.308-.843 0-1.196-.91-.944-2.308.253-1.398.927-2.307 1.685-2.307s1.246.926 1.044 2.307z"/></svg><svg viewBox="0 0 50 5" id="text" xmlns="http://www.w3.org/2000/svg"><path d="M1.295 3.097L1.03 1.164H.605l.425 2.623h.296l1.356-2.623h-.44l-.947 1.933zm2.697-1.993c-.607 0-1.107.507-1.22 1.334-.114.826.234 1.41.901 1.41s1.107-.524 1.22-1.335c.114-.81-.227-1.41-.901-1.41zm.485 1.379c-.106.69-.394 1.023-.758 1.023s-.6-.348-.5-1.038c.098-.69.394-1.031.757-1.031.364 0 .6.356.5 1.046zm2.432-1.379a1.16 1.16 0 00-.917.644 4.55 4.55 0 000-.584h-.38c.002.27-.026.54-.083.804l-.318 1.811h.424l.213-1.22c.106-.637.614-1.092.879-1.092s.341.25.265.645l-.295 1.667h.424l.296-1.667c.113-.478.015-1.008-.508-1.008zM11.512.15h-.508l-1.5 1.736L9.806.15h-.44l-.644 3.631h.44l.295-1.683 1.114 1.683h.5L9.898 2 11.512.15zm.749 1.575v-.56h-.379c.002.27-.026.539-.083.803l-.319 1.811h.425l.243-1.44a.819.819 0 01.871-.758l.076-.47a1.016 1.016 0 00-.834.614zM13.719.643h.424l.084-.493h-.425l-.083.493zm-.563 3.138h.425l.462-2.615h-.424l-.463 2.615zm1.382-1.956a.705.705 0 00.545.758c.288.09.417.25.387.493a.455.455 0 01-.493.409 1.009 1.009 0 01-.636-.228l-.107.319c.218.165.485.25.758.242a.819.819 0 00.895-.803c0-.334-.152-.637-.637-.758a.394.394 0 01-.296-.455.408.408 0 01.448-.371.92.92 0 01.523.174l.098-.303a1.084 1.084 0 00-.614-.197.803.803 0 00-.871.72zM17.515.451h-.424l-.129.713h-.417l-.053.295h.417l-.402 2.32h.425l.402-2.32h.424l.053-.295h-.424l.128-.713zm.34 3.33h.425l.455-2.615h-.425l-.454 2.615zM18.41.643h.425l.083-.493h-.424l-.084.493zm2.249.461a1.16 1.16 0 00-.917.644c.012-.195.012-.39 0-.584h-.38c.002.27-.026.54-.083.804l-.318 1.811h.424l.213-1.22c.106-.637.614-1.092.879-1.092s.341.25.265.645l-.295 1.667h.424l.296-1.667c.113-.478.038-1.008-.508-1.008zm1.493-.461h.425L22.66.15h-.424l-.084.493zm-.55 3.138h.416l.463-2.615h-.425l-.454 2.615zm3.062-2.261a.645.645 0 00-.607-.416c-.629 0-1.106.568-1.228 1.341-.121.773.091 1.395.758 1.395a.925.925 0 00.758-.417 2.861 2.861 0 000 .356h.364c.008-.255.039-.508.091-.758l.318-1.819H24.8l-.136.318zm-.182.955c-.114.637-.425 1.039-.804 1.039-.379 0-.538-.41-.424-1.039.113-.629.417-1.046.796-1.046.379 0 .538.425.432 1.046zm1.946-.53c-.152 1.197.394 1.887 1.22 1.887.33 0 .649-.114.902-.326l.053-.417a1.258 1.258 0 01-.841.349c-.63 0-1.008-.538-.887-1.516S27.535.459 28.14.459a1.061 1.061 0 01.758.349l.06-.41a1.174 1.174 0 00-.856-.333c-.789.038-1.531.69-1.675 1.88zm4.282-.84a1.137 1.137 0 00-.894.6s0-.145.053-.228L30.104.15h-.425l-.644 3.631h.425l.212-1.22c.106-.637.614-1.092.887-1.092s.333.25.265.645l-.296 1.667h.402l.296-1.667c.106-.478.023-1.009-.516-1.009zm2.67.061l-.962 2.001-.258-2.001h-.425l.387 2.6-.606 1.197h.401l1.895-3.797h-.432zm2.388.362a.644.644 0 00-.607-.424c-.629 0-1.099.568-1.228 1.341s.091 1.395.758 1.395a.864.864 0 00.675-.334v.114c-.182.91-.417 1.023-.811 1.023a1.144 1.144 0 01-.758-.295v.394c.219.164.484.254.758.258.492 0 1-.213 1.22-1.448l.425-2.388h-.319l-.113.364zm-.182.947c-.106.637-.425 1.039-.804 1.039-.379 0-.538-.41-.424-1.039.114-.629.417-1.038.758-1.038.34 0 .576.417.47 1.038zm1.644-.748v-.56h-.371a3.79 3.79 0 01-.091.803l-.319 1.811h.425l.25-1.44a.812.812 0 01.864-.758l.076-.47a1.016 1.016 0 00-.834.614zm1.867 1.44l-.257-2.001h-.425l.387 2.6-.607 1.197h.402l1.895-3.797h-.44l-.955 2.001zm3.143-2.063a1.167 1.167 0 00-.924.644c.012-.195.012-.39 0-.584h-.372a4.26 4.26 0 01-.083.804l-.326 1.811h.425l.212-1.22c.106-.637.621-1.092.887-1.092.265 0 .333.25.265.645l-.296 1.667h.425l.295-1.667c.114-.478.038-1.008-.507-1.008zm1.173.722a.705.705 0 00.545.758c.288.09.41.25.387.492a.455.455 0 01-.493.41 1.017 1.017 0 01-.636-.228l-.107.319c.218.165.485.25.758.242a.811.811 0 00.895-.803c0-.334-.144-.637-.63-.758a.394.394 0 01-.295-.455.41.41 0 01.447-.372c.188.004.37.064.523.175l.099-.303a1.107 1.107 0 00-.614-.197.804.804 0 00-.88.72zm3.578-.66l-1.152 1.205.394-2.22h-.424l-.637 3.63h.417l.242-1.364.75 1.364h.455l-.773-1.38 1.19-1.235h-.462zm2.501-.002l-.121.356a.644.644 0 00-.607-.416c-.629 0-1.106.568-1.228 1.341-.121.773.091 1.395.758 1.395a.925.925 0 00.758-.417 2.861 2.861 0 000 .356h.364c.008-.255.039-.508.091-.758l.318-1.819-.333-.038zm-.303 1.311c-.114.637-.425 1.039-.804 1.039-.379 0-.538-.41-.424-1.039.114-.629.417-1.046.758-1.046.34 0 .576.425.47 1.046z"/></svg><svg viewBox="0 0 20 28" id="video_btn" xmlns="http://www.w3.org/2000/svg"><path d="M0 25.114V2.886C0 1.26 1.839.313 3.162 1.26l15.56 11.114a2 2 0 010 3.255L3.161 26.74C1.84 27.687 0 26.741 0 25.114z"/></svg></svg>